<?xml version="1.0" encoding="UTF-8"?>
<svg id="Ebene_2" data-name="Ebene 2" xmlns="http://www.w3.org/2000/svg" width="383.29" height="383.23" viewBox="0 0 383.29 383.23">
  <g id="Ebene_1-2" data-name="Ebene 1">
    <path d="M383.29,30.69V351.81c-6.02,10.07-12.4,10.89-21.35,2.99-3.35-2.96-6.94-5.72-10.71-8.12-18.02-11.48-33.18-11.04-50.7,1.26-1.33,.93-2.58,1.97-3.89,2.92-3,2.16-4.97,4.84-6.22,8.5-5.4,15.87-17.62,24.47-33.19,23.83-14.07-.57-25.34-10.06-30.32-25.39-.48-1.47-1.19-3.12-2.31-4.1-22.4-19.72-40.62-19.96-62-3.38-.39,.31-.78,.63-1.18,.92-2.79,2.03-4.54,4.61-5.69,7.99-5.4,15.9-17.54,24.55-33.09,23.97-14.09-.53-25.42-9.98-30.43-25.26-.52-1.58-1.27-3.47-2.52-4.36-5.76-4.1-11.45-8.47-17.71-11.68-9.61-4.93-19.7-4.63-29.66-.4-8.38,3.56-15.67,8.71-22.13,15.05-3.82,3.74-8.12,5.47-13.22,3.29C1.92,357.69,.01,353.53,.01,348.13,.05,243.84,.05,139.55,0,35.26c0-4.44,1.35-8.13,4.73-10.89,5.2-4.26,10.38-8.58,15.87-12.43C29.72,5.56,40.09,2.1,50.94,0,54.93,0,58.92,0,62.92,0c.33,.16,.65,.43,1,.48,17.62,2.62,31.92,11.55,44.28,23.82,2.31,2.3,3.42,5.85,4.91,8.91,1.14,2.33,1.68,5.01,3.09,7.13,4.04,6.05,11.72,6.17,16,.31,1.29-1.76,2.53-3.92,2.79-6.02,.73-5.81,4.05-9.81,8.3-13.24,4.06-3.29,8.16-6.56,12.45-9.53C164.78,5.59,174.95,2.07,185.68,0,189.67,0,193.66,0,197.65,0c.33,.16,.65,.43,1,.48,17.62,2.62,31.92,11.55,44.28,23.82,2.31,2.3,3.42,5.85,4.91,8.91,1.14,2.33,1.68,5.01,3.09,7.13,4.04,6.05,11.72,6.17,16,.31,1.29-1.76,2.53-3.92,2.79-6.02,.73-5.81,4.05-9.81,8.3-13.24,4.06-3.29,8.16-6.56,12.45-9.53C299.51,5.59,309.69,2.07,320.41,0,324.41,0,328.4,0,332.39,0c6.05,1.77,12.39,2.89,18.09,5.45,12.87,5.76,24.78,13.06,32.81,25.24ZM90.61,168.34V52.03c0-15.87-.18-16.3-14.1-23.93-8.16-4.48-16.77-6.95-26.21-4.93-10.3,2.2-18.83,7.67-26.65,14.41-.82,.71-1.11,2.41-1.12,3.65-.06,41.39-.05,82.78-.03,124.17,0,.89,.19,1.78,.33,3.06,22.54-13.65,44.83-14.01,67.77-.12Zm270.22,.27V52.56c0-16.37-.21-16.77-14.8-24.55-2.41-1.28-4.95-2.35-7.51-3.3-8.55-3.19-17.25-3.31-25.46,.62-6.12,2.93-11.7,6.99-17.52,10.55-2.22,1.36-2.89,3.28-2.89,5.94,.09,40.77,.06,81.53,.07,122.3,0,1.18,.11,2.36,.19,4.11,22.74-13.84,45.14-13.42,67.92,.37ZM22.5,326.58c22.87-13.84,45.28-14.2,68.12-.32v-116.51c0-15.66-.13-15.93-13.97-23.61-2.49-1.38-5.15-2.51-7.82-3.51-7.76-2.91-15.8-3.44-23.34-.02-6.96,3.16-13.38,7.51-20.04,11.33-2.42,1.39-3.02,3.44-3.01,6.22,.1,40.64,.07,81.28,.07,121.92,0,1.24,0,2.48,0,4.51Zm338.15-.45c.1-1.11,.18-1.6,.18-2.09,0-41.76,.03-83.51-.08-125.27,0-1.36-.87-3.22-1.95-3.98-4.96-3.53-9.91-7.17-15.27-9.99-11.36-5.96-23.04-5.97-34.36,.15-4.9,2.65-9.35,6.13-14.02,9.21-1.96,1.29-2.49,3.02-2.49,5.38,.08,41.01,.05,82.02,.06,123.03,0,1.04,.14,2.07,.25,3.63,22.63-13.85,44.95-13.27,67.66-.05ZM225.35,168.33V52.05c0-15.89-.17-16.3-14.09-23.94-8.16-4.48-16.78-6.97-26.22-4.93-10.05,2.18-18.36,7.53-25.86,14.28-.89,.8-1.15,2.65-1.15,4.01-.06,41.16-.05,82.31-.04,123.47,0,.92,.12,1.84,.22,3.27,22.37-13.49,44.44-13.55,67.14,.14Zm-67.37,157.95c22.65-13.72,44.84-13.68,67.37-.04v-116.57q0-15.6-13.7-23.43c-13.1-7.52-26.27-7.85-39.39-.21-3.86,2.25-7.4,5.05-11.13,7.53-2.38,1.58-3.23,3.57-3.22,6.54,.11,40.53,.07,81.06,.07,121.59v4.6ZM113.2,66.63s-.12,.58-.12,1.19c0,40.51-.09,81.01,.14,121.52,.02,3.23,1.64,6.83,3.51,9.58,3.75,5.49,11.58,5.5,15.16-.09,1.97-3.08,3.46-7.1,3.48-10.71,.24-39.51,.15-79.02,.15-118.53v-2.95h-22.32Zm134.73,0c.02-.13-.11,.36-.11,.85-.01,40.63-.09,81.26,.14,121.89,.02,3.22,1.65,6.83,3.53,9.57,3.76,5.48,11.62,5.47,15.15-.15,2.01-3.19,3.44-7.35,3.47-11.09,.24-39.26,.15-78.52,.15-117.78v-3.3h-22.33ZM113.16,224.56c0,.07-.08,.57-.08,1.06,0,40.51-.08,81.01,.13,121.52,.02,3.14,1.46,6.62,3.2,9.32,3.88,6.02,12.17,5.97,15.86-.18,1.83-3.04,3.1-6.95,3.12-10.47,.21-39.38,.14-78.77,.14-118.15v-3.09h-22.36Zm134.8,0c0,.05-.15,.76-.15,1.47-.01,40.38-.08,80.76,.13,121.14,.02,3.13,1.48,6.62,3.23,9.31,3.9,6,12.17,5.92,15.85-.26,1.82-3.05,3.08-6.95,3.1-10.48,.21-39.38,.13-78.77,.13-118.15v-3.04h-22.3Z" fill="#d81c2e"/>
  </g>
</svg>