<?xml version="1.0" encoding="UTF-8"?>
<svg id="Ebene_2" data-name="Ebene 2" xmlns="http://www.w3.org/2000/svg" viewBox="0 0 518.31 250">
  <defs>
    <style>
      .cls-1 {
        fill: none;
      }

      .cls-2 {
        fill: #fff;
      }

      .cls-3 {
        fill: #4a4a49;
      }
    </style>
  </defs>
  <g id="Ebene_2-2" data-name="Ebene 2">
    <g id="Ebene_1-2" data-name="Ebene 1-2">
      <path class="cls-3" d="M150.13,15.97h218.06v218.06h-218.06V15.97Z"/>
      <path class="cls-2" d="M285.67,91.35l-9.44,38.89h-.18l-9.45-38.89h-28.98v44.17c-.66-8.48-5.87-12.73-11.41-14.63,4.91-2.68,8.15-6.3,8.15-12.96s-3.7-16.57-21.11-16.57h-36.21v66.12h37.5c11.15,0,22.13-6.27,23.08-18.38v18.38h19.26v-42.41h.18l11.48,42.41h15.19l11.48-42.41h.19v42.41h19.26v-66.12h-28.99ZM197.4,107.09h10.74c4.17,0,6.94,1.2,6.94,4.54,0,4.26-2.69,5.46-6.94,5.46h-10.74v-10ZM209.35,141.71h-11.94v-12.31h12.78c4.82,0,7.13,2.13,7.13,6.02,0,5.09-3.7,6.3-7.96,6.3h0ZM320.91,91.35h20.37v66.11h-20.37s0-66.11,0-66.11Z"/>
      <rect class="cls-1" width="518.31" height="250"/>
    </g>
  </g>
</svg>