<?xml version="1.0" encoding="UTF-8"?>
<svg id="Ebene_2" data-name="Ebene 2" xmlns="http://www.w3.org/2000/svg" viewBox="0 0 260 100">
  <defs>
    <style>
      .cls-1 {
        fill: none;
      }

      .cls-2 {
        fill: #4a4a49;
      }
    </style>
  </defs>
  <g id="Ebene_1-2" data-name="Ebene 1">
    <path class="cls-2" d="M7.14,52.68h25.38c4.96,0,6.24.9,6.24,4.48v2.79c0,2.49-.9,4.08-5.45,4.08H7.14v-11.35ZM37.38,42.63c0,1.59-.5,3.68-4.66,3.68H7.14v-10.05h25.77c.8,0,4.46.1,4.46,2.99v3.38ZM41.24,48.7c2.08-1.19,3.37-3.48,3.27-5.87v-3.28c0-3.48-1.38-9.55-11.1-9.55H0v40.21h34c7.24,0,12.09-3.68,12.09-9.16v-4.58c-.2-3.98-1.68-6.67-4.86-7.76"/>
    <path class="cls-2" d="M80.38,36.26c7.53,0,8.33,1.39,8.33,4.58v3.48c0,2.89-1.19,4.48-7.04,4.48h-23.69v-12.54h22.41ZM82.17,29.99h-31.32v40.21h7.14v-15.13h24.08c4.46,0,6.54.5,6.54,5.57v9.36h6.94v-10.65c0-3.38-1.19-5.57-3.76-7.07,2.38-.9,4.26-2.99,4.26-7.46v-3.18c0-7.46-2.28-11.64-13.87-11.64"/>
    <path class="cls-2" d="M136.69,55.86h-21.81l10.9-18.51,10.91,18.51ZM122.02,29.98l-23.79,40.21h8.23l4.66-8.06h29.24l4.66,8.06h8.23l-23.79-40.21h-7.43Z"/>
    <path class="cls-2" d="M193.88,55.86h-21.81l10.9-18.51,10.91,18.51ZM179.11,29.98l-23.79,40.21h8.23l4.66-8.06h29.24l4.66,8.06h8.23l-23.79-40.21h-7.43Z"/>
    <path class="cls-2" d="M236.6,70.99c20.12,0,23.4-2.99,23.4-12.54s-2.58-11.74-12.89-12.04l-21.11-.3c-4.26,0-5.55-1.19-5.55-4.88,0-4.68,1.28-5.77,15.67-5.77s15.47,1,15.47,6.17v1h7.63v-1.59c0-9.16-1.78-12.04-23.2-12.04-19.73,0-22.9,2.89-22.9,12.04s2.58,11.45,12.99,11.64l20.91.3c4.46,0,5.55,1.19,5.55,5.18,0,5.18-1.28,6.27-15.96,6.27s-15.96-.8-15.96-6.17v-1.79h-7.53v2.39c-.3,9.26,1.58,12.14,23.49,12.14h-.02Z"/>
    <rect class="cls-1" width="260" height="100"/>
  </g>
</svg>