<?xml version="1.0" encoding="UTF-8"?>
<svg id="Ebene_2" data-name="Ebene 2" xmlns="http://www.w3.org/2000/svg" viewBox="0 0 112.86 30.01">
  <defs>
    <style>
      .cls-1 {
        fill: none;
      }

      .cls-2 {
        isolation: isolate;
      }

      .cls-3 {
        fill: #4a4a49;
      }
    </style>
  </defs>
  <g id="Ebene_1-2" data-name="Ebene 1">
    <g class="cls-2">
      <g id="_图层_2" data-name="图层 2">
        <g id="_图层_1-2" data-name="图层 1-2">
          <path class="cls-3" d="M40.17,10.57c-.91-1.21-2.36-1.89-3.87-1.82h-14.73v2.43h14.66c.5-.04.99.1,1.39.41.37.32.5.83.33,1.29-.26.72-1,.9-1.72.91h-14.66v2.39h14.66c.87,0,1.79.32,1.79,1.3s-.92,1.29-1.79,1.3h-14.66v2.42h14.73c1.51.07,2.96-.62,3.87-1.83.93-1.41.71-3.28-.52-4.43,1.2-1.14,1.42-2.98.52-4.37Z"/>
          <path class="cls-3" d="M84.38,10.18c-1.45-.97-3.17-1.46-4.91-1.4-1.43,0-3.59,0-5.5-.06h-6.31v2.46c4.73,0,8,0,11.7.06,1.13-.05,2.25.24,3.21.83,1.62,1.1,2.04,3.31.94,4.93-.25.37-.57.69-.94.94-.98.61-2.11.91-3.26.86-3.65.1-7,.07-11.69.07v2.42c4.76,0,8.18,0,11.81-.07,1.74.06,3.46-.42,4.91-1.38,2.67-1.88,3.31-5.56,1.44-8.23-.39-.56-.88-1.04-1.44-1.44h.04Z"/>
          <path class="cls-3" d="M48.13,14.18c-1.27,0-1.67-.43-1.68-1.69s0-2.55,0-3.74h-2.8v4.79c.09,2.28.84,3,3.16,3.07h5.12v-2.43h-3.8Z"/>
          <path class="cls-3" d="M61.97,12.5c0,1.23-.41,1.63-1.68,1.65h-7.12v7.13h3.28v-4.67h4.98c2.47-.07,3.22-.77,3.31-3.07v-4.82h-2.77c0,1.22,0,2.58,0,3.78Z"/>
        </g>
      </g>
    </g>
    <rect class="cls-1" width="112.86" height="30.01"/>
  </g>
</svg>