<?xml version="1.0" encoding="UTF-8"?>
<svg id="Ebene_2" data-name="Ebene 2" xmlns="http://www.w3.org/2000/svg" viewBox="0 0 300 100">
  <defs>
    <style>
      .cls-1 {
        fill: none;
      }

      .cls-2 {
        fill: #4a4a49;
      }
    </style>
  </defs>
  <g id="Layer_1" data-name="Layer 1">
    <path class="cls-2" d="M47.22,64.19c-4.96.12-9.85-1.2-14.07-3.8-4.18-2.59-6.69-7.18-6.62-12.09-.03-4.27,1.93-8.3,5.29-10.93,3.81-3.14,9.27-4.8,15.24-4.8,8.11,0,14.4,2.82,19.2,8.78l.33.33-7.45,2.65-.14-.17c-3.32-3.38-7.88-5.24-12.61-5.16-7.12,0-11.92,3.81-11.92,9.44s5,9.43,12.59,9.43c4.62.16,9.07-1.79,12.08-5.3l.17-.16,6.78,3.64-.33.33c-5.13,5.3-10.76,7.78-18.54,7.78"/>
    <polygon class="cls-2" points="253.68 54.43 253.68 33.4 245.73 33.4 245.73 63.37 253.68 63.37 253.68 54.43 253.68 54.43"/>
    <polygon class="cls-2" points="161.63 63.37 169.57 63.37 169.57 33.4 161.63 33.4 161.63 63.37"/>
    <path class="cls-2" d="M191.26,52.27c4.31-1.32,6.46-4.47,6.46-8.94,0-6-4.64-9.93-11.59-9.93h-13.91v6.29h13.08c2.81,0,4.47,1.33,4.47,3.31,0,2.32-1.66,3.48-4.47,3.48h-13.24v6.29h10.43l7.45,10.6h8.94s-7.62-11.1-7.62-11.1Z"/>
    <polygon class="cls-2" points="117.92 63.37 125.86 63.37 125.86 33.4 117.92 33.4 117.92 63.37"/>
    <path class="cls-2" d="M138.11,33.4h-9.6v6.29h10.1c5.46,0,9.6,3.64,9.6,8.78-.06,1.76-.7,3.45-1.82,4.8-1.96,2.26-4.79,3.59-7.78,3.64h-10.1v6.46h10.6c4.27.08,8.46-1.26,11.89-3.81,3.5-2.53,5.54-6.61,5.46-10.93,0-9.27-7.28-15.23-18.38-15.23"/>
    <polygon class="cls-2" points="72.22 39.69 110.14 39.69 110.14 33.4 72.22 33.4 72.22 39.69"/>
    <polygon class="cls-2" points="72.22 63.37 110.14 63.37 110.14 57.08 72.22 57.08 72.22 63.37"/>
    <polygon class="cls-2" points="72.22 51.45 110.14 51.45 110.14 45.15 72.22 45.15 72.22 51.45"/>
    <polygon class="cls-2" points="276.52 57.08 256.33 57.08 256.33 63.37 276.52 63.37 276.52 57.08"/>
    <polygon class="cls-2" points="226.53 33.4 218.41 33.4 222.88 41.68 222.88 41.68 227.68 50.78 215.93 50.78 220.23 42.67 216.26 35.22 201.19 63.37 209.31 63.37 212.62 57.08 231.16 57.08 234.64 63.37 242.59 63.37 226.53 33.4"/>
    <path class="cls-2" d="M271.53,32.57c.88,0,1.74.23,2.49.68.77.43,1.4,1.06,1.83,1.83.45.75.68,1.61.68,2.49,0,1.79-.97,3.44-2.53,4.33-2.39,1.39-5.45.58-6.84-1.81,0,0,0,0,0,0-.44-.76-.66-1.63-.66-2.51,0-.88.23-1.74.67-2.5.44-.76,1.07-1.39,1.83-1.83.77-.45,1.64-.68,2.53-.67ZM271.53,33.4c-2.3,0-4.17,1.87-4.17,4.17,0,2.3,1.87,4.17,4.17,4.17h0c2.3,0,4.16-1.87,4.16-4.16,0-1.11-.44-2.17-1.23-2.95-.76-.8-1.83-1.24-2.93-1.23ZM270.4,40.26h-.87v-5.38h1.86c.47-.03.94.03,1.39.16.27.1.5.28.65.52.16.22.25.49.25.77.01.39-.15.78-.43,1.05-.3.29-.7.45-1.11.47.22.1.42.24.58.42.25.29.47.61.67.94l.65,1h-1.04l-.47-.84c-.21-.43-.48-.83-.8-1.18-.22-.19-.51-.28-.8-.27h-.51l-.02,2.34ZM270.4,35.61v1.62h1.06c.35.03.69-.04,1-.2.34-.26.41-.75.15-1.09-.04-.06-.09-.1-.15-.15-.33-.15-.7-.21-1.06-.18h-1Z"/>
    <rect class="cls-1" width="300" height="100"/>
  </g>
</svg>