<?xml version="1.0" encoding="UTF-8"?>
<svg id="Ebene_2" data-name="Ebene 2" xmlns="http://www.w3.org/2000/svg" viewBox="0 0 203.75 101.67">
  <defs>
    <style>
      .cls-1 {
        fill: none;
      }

      .cls-2 {
        fill: #4a4a49;
      }
    </style>
  </defs>
  <g id="Ebene_1-2" data-name="Ebene 1">
    <polygon class="cls-2" points="176.98 39.78 172.11 45.59 167.05 39.78 158.26 39.78 167.78 50.74 157.85 62.58 167.78 62.58 172.84 56.56 178.08 62.58 186.88 62.58 177.16 51.41 186.92 39.78 186.92 39.78 176.98 39.78"/>
    <path class="cls-2" d="M39.64,42.06v18.24c0,1.25-1.03,2.28-2.28,2.28h-18.24c-1.25,0-2.28-1.03-2.28-2.28v-18.24c0-1.26,1.03-2.28,2.28-2.28h18.24l-11.81,11.81c0,1.25,1.03,2.28,2.28,2.28l11.81-11.81Z"/>
    <polygon class="cls-2" points="134.61 39.78 134.61 62.58 155.14 62.58 155.14 57.43 142.49 57.43 142.49 53.59 152.57 53.59 152.57 48.44 142.49 48.44 142.49 44.93 155.01 44.93 155.01 39.78 134.61 39.78"/>
    <polygon class="cls-2" points="108.22 39.78 108.22 45.49 115.34 45.49 115.34 62.58 123.33 62.58 123.33 45.49 130.45 45.49 130.45 39.78 108.22 39.78"/>
    <path class="cls-2" d="M79.9,39.78h7.99v12.2c0,1.49.36,2.65,1.09,3.48.72.82,1.75,1.24,3.09,1.24s2.44-.45,3.18-1.35,1.1-2.12,1.1-3.66v-11.91h7.99v12.47c0,3.3-1.05,5.9-3.14,7.79-2.1,1.9-5.07,2.84-8.93,2.84s-6.99-.87-9.14-2.62-3.23-4.15-3.23-7.21c0,0,0-13.27,0-13.27Z"/>
    <path class="cls-2" d="M64.53,53.8h3.41v3.21c-.4.07-1.72.1-2.1.1-2.2,0-4.37-.48-5.85-1.68-1.43-1.16-2.28-2.62-2.28-4.51s1.05-3.52,2.49-4.76c1.52-1.24,3.93-1.94,6.28-1.94,1.17,0,2.4.17,3.67.5s2.59.84,3.94,1.5v-5.9c-1.42-.51-2.89-.9-4.39-1.17-1.5-.28-3.01-.42-4.53-.42-4.6,0-8.33,1.16-11.19,3.49-2.86,2.33-4.29,5.23-4.29,8.71s1.33,6.44,3.99,8.67c2.66,2.24,6.28,3.35,10.85,3.35,1.5,0,3.15-.1,4.97-.29,1.81-.19,3.5-.47,5.08-.81v-12.58h-10.04v4.53h-.01Z"/>
    <rect class="cls-1" width="203.75" height="101.67"/>
  </g>
</svg>