<?xml version="1.0" encoding="UTF-8"?>
<svg id="Ebene_2" data-name="Ebene 2" xmlns="http://www.w3.org/2000/svg" viewBox="0 0 2585.64 856.68">
  <defs>
    <style>
      .cls-1 {
        fill: none;
      }

      .cls-2 {
        fill: #4b4a49;
      }
    </style>
  </defs>
  <g id="Ebene_1-2" data-name="Ebene 1">
    <path class="cls-2" d="M1414.94,359.75h47.3v131.58c0,66.79-36.81,105.1-100.94,105.1s-99.94-37.64-99.94-103.27v-133.25h47.3v131.75c0,38.98,19.15,59.8,53.3,59.8s52.97-20.32,52.97-58.13v-133.58ZM1148.44,453.69h-106.93v-93.94h-47.3v233.18h47.3v-94.77h106.77v94.77h47.3v-233.18h-47.3v93.94h.17ZM2333.02,359.75v232.85h46.64v-232.85h-46.64ZM2147.3,492.5h86.11v-42.47h-86.11v-47.8h124.92v-42.31h-171.56v232.85h176.05v-42.47h-129.42v-57.8ZM1961.76,519.98l-52.97-160.4h-38.64l-52.97,160.4-51.47-160.23h-50.3l81.28,233.02h39.14l52.97-153.07,52.97,153.07h39.47l81.11-233.02h-49.14l-51.47,160.23ZM1631.3,361.08l101.77,231.69h-49.63l-20.99-48.47h-106.77l-1.5,3.33-19.65,45.14h-48.3l102.77-233.02h41.31l1,1.33ZM1642.63,496.66l-33.65-78.12-33.48,78.12-2.33,5.33h71.62l-2.17-5.33Z"/>
    <path class="cls-2" d="M528.51,568.11c.67-.5.83-1.5.5-2.33-45.93-98.71-103.22-191.73-170.72-277.16,0,0-53.63,50.97-49.8,102.1,1.81,23.81,13.02,45.92,31.15,61.46,46.8,45.64,160.06,103.27,186.38,116.43.83.33,1.83.17,2.5-.5M511.02,607.09c-.33-1-1.33-1.67-2.5-1.67l-188.55,6.5c20.49,36.48,54.96,64.79,90.78,56.13,24.82-6.16,80.78-45.3,99.27-58.63,1.5-1.17,1-2.17,1-2.33M513.85,590.27c1-1.5-.67-2.83-.67-2.83-82.78-55.96-243.34-141.91-243.34-141.91-19.12,58.59,12.89,121.59,71.48,140.7,9.43,3.08,19.22,4.88,29.12,5.37,2.83.5,112.1,0,141.41-.17.83-.17,1.5-.5,2-1.17M526.34,207.18c-8.16.67-30.31,5.83-30.31,5.83-49.97,12.83-61.79,58.3-61.79,58.3-9.16,28.48.17,59.96.17,59.96,16.66,73.95,98.6,195.71,116.26,221.19,1.17,1.33,2.17.83,2.17.83,1-.33,1.83-1.17,1.83-2.33,27.32-271.83-28.32-343.78-28.32-343.78M588.8,552.96c1,.33,2.17,0,2.66-1,18.16-26.15,99.6-147.24,116.26-220.86,0,0,8.99-35.64.33-59.96,0,0-12.33-46.14-62.29-58.3,0,0-14.32-3.66-29.65-5.83,0,0-55.96,71.95-28.65,343.78-.17,1,.5,1.83,1.33,2.17M633.44,605.59c-.9.18-1.68.72-2.17,1.5-.17,1,0,1.83.67,2.5,17.99,12.99,72.79,51.3,99.1,58.63,0,0,48.8,16.66,91.11-56.13l-188.71-6.5ZM872.45,445.19s-160.23,86.11-243.18,142.08c-.83.67-1.33,1.67-1,2.66,0,0,.83,1.5,2,1.5,29.65,0,141.91.17,144.91-.33,11.16-.83,22.15-3.33,32.48-7.5,0,0,39.97-12.66,60.63-58.13,0,0,18.49-36.98,4.16-80.28M614.12,568.11c.67.5,1.67.67,2.5.17,26.98-13.49,139.41-70.62,185.88-116.09,0,0,29.48-23.65,30.98-61.79,3.33-52.8-49.8-101.77-49.8-101.77,0,0-98.27,119.09-170.39,276.49-.23,1.08.08,2.2.83,3"/>
    <rect class="cls-1" width="2585.64" height="856.68"/>
  </g>
</svg>