<?xml version="1.0" encoding="UTF-8"?>
<svg id="Ebene_2" data-name="Ebene 2" xmlns="http://www.w3.org/2000/svg" viewBox="0 0 250 118.55">
  <defs>
    <style>
      .cls-1 {
        fill: none;
      }

      .cls-2 {
        fill: #4a4a49;
      }
    </style>
  </defs>
  <g id="Ebene_1-2" data-name="Ebene 1">
    <path class="cls-2" d="M233,25.28h-10.74v53.37h10.74V25.28Z"/>
    <path class="cls-2" d="M27.74,38.4h-10.74v40.24h10.74v-40.24Z"/>
    <path class="cls-2" d="M27.74,25.28h-10.74v10.22h10.74v-10.22Z"/>
    <path class="cls-2" d="M100.83,68.55c-5.5,0-10.12-4.67-10.12-10.22s4.62-10.22,10.12-10.22,10.12,4.67,10.12,10.22-4.62,10.22-10.12,10.22ZM100.83,37.51c-11.49,0-20.74,9.34-20.74,20.94s9.24,20.94,20.74,20.94,20.74-9.34,20.74-20.94-9.24-20.94-20.74-20.94Z"/>
    <path class="cls-2" d="M64.22,60.1c-.87,5.55-6.12,9.34-11.62,8.33-5.5-.88-9.24-6.18-8.25-11.73,1-5.55,6.12-9.34,11.62-8.33,4.12.76,7.5,3.91,8.25,8.2h10.74c-1.25-11.48-11.37-19.93-22.74-18.92-11.37,1.14-19.74,11.35-18.74,22.71,1.12,11.48,11.24,19.93,22.49,18.92,9.99-.88,17.99-8.96,18.74-19.18h-10.49Z"/>
    <path class="cls-2" d="M215.76,58.33c0-11.61-9.37-20.94-20.74-20.94s-20.74,9.46-20.74,20.94,9.37,20.94,20.74,20.94c2.62,0,5.25-.63,7.62-1.51v-12.74c-3.62,4.16-10,4.79-14.12,1.14-4.12-3.66-4.75-10.09-1.12-14.26,3.62-4.16,9.99-4.79,14.12-1.14,2.25,2.02,3.5,4.79,3.5,7.7v19.93h10.62v-20.06h.12Z"/>
    <path class="cls-2" d="M147.67,37.51c-11.37,0-20.74,9.34-20.74,20.94v34.82h10.62v-34.95c0-5.68,4.5-10.35,10.12-10.35s10.24,4.54,10.24,10.22-4.5,10.35-10.12,10.35c-3.12,0-6-1.26-7.87-3.53v12.74c2.5,1.14,5,1.51,7.62,1.51,11.49,0,20.74-9.46,20.74-20.94s-9.12-20.82-20.61-20.82Z"/>
    <rect class="cls-1" width="250" height="118.55"/>
  </g>
</svg>