<?xml version="1.0" encoding="UTF-8"?>
<svg id="Ebene_2" data-name="Ebene 2" xmlns="http://www.w3.org/2000/svg" viewBox="0 0 195.43 71.23">
  <defs>
    <style>
      .cls-1 {
        fill: none;
      }

      .cls-2 {
        fill: #4b4a49;
      }
    </style>
  </defs>
  <g id="Ebene_1-2" data-name="Ebene 1">
    <g>
      <path class="cls-2" d="M171.01,49.21h.78c.52,0,.79.09.93.31.33.54.37.57.58.57.26,0,.42-.18.42-.44,0-.72-.71-1.39-1.47-1.39h-1.5c-.52,0-.68.16-.68.71v5.26c0,.3.19.5.46.5.29,0,.48-.2.48-.5v-5.02ZM164.92,51.02c0-.5.01-.6.05-.79.15-.67.57-1.01,1.24-1.01.91,0,1.29.52,1.29,1.8h-2.59ZM164.92,51.96h2.9c.27,0,.46-.07.52-.18.07-.12.12-.53.12-.9,0-1.58-.88-2.61-2.26-2.61-1.27,0-2.22,1.01-2.22,2.35v1.99c0,.6.15,1.18.37,1.5.31.45.82.63,1.77.63h1.85c.3,0,.52-.2.52-.46,0-.27-.22-.48-.52-.48h-1.84c-.97,0-1.21-.29-1.21-1.36v-.48ZM160.3,49.21h.78c.52,0,.79.09.92.31.33.54.37.57.59.57.26,0,.42-.18.42-.44,0-.72-.71-1.39-1.47-1.39h-1.5c-.52,0-.68.16-.68.71v5.26c0,.3.19.5.46.5.29,0,.48-.2.48-.5v-5.02ZM156.37,53.8h-1.4c-1.01,0-1.32-.34-1.32-1.48v-3.54c0-.3-.19-.5-.48-.5s-.46.2-.46.5v3.55c0,.64.11,1.21.31,1.59.31.58.79.82,1.71.82h1.95c.46,0,.63-.18.63-.67v-5.29c0-.3-.19-.5-.47-.5s-.46.2-.46.5v5.02ZM149.91,48.27v-2.11c0-.3-.19-.5-.48-.5-.27,0-.46.2-.46.5v2.11h-.41c-.29,0-.5.2-.5.48s.22.46.5.46h.41v5.02c0,.3.19.5.46.5.29,0,.48-.2.48-.5v-5.02h1.35c.3,0,.5-.19.5-.46s-.2-.48-.5-.48h-1.35ZM145.84,48.27c-1.32,0-1.99.69-1.99,2.1v2.27c0,1.4.67,2.1,1.99,2.1h1.1c.37,0,.6-.18.6-.46,0-.24-.23-.48-.49-.48h-1.13c-.84,0-1.13-.31-1.13-1.23v-2.14c0-.91.29-1.22,1.13-1.22h1.1c.27,0,.52-.23.52-.48s-.23-.46-.5-.46h-1.2ZM141.25,53.76h-1.48c-.73,0-1.2-.35-1.2-.91,0-.61.45-.91,1.39-.91h1.29v1.82ZM141.25,51h-1.61c-.45,0-.86.08-1.16.25-.55.3-.93.94-.93,1.59s.38,1.31.94,1.62c.37.22.71.29,1.43.29h1.65c.46,0,.61-.22.61-.84v-3.51c0-1.46-.64-2.11-2.08-2.11h-1.91c-.3,0-.52.2-.52.48s.22.46.52.46h2.07c.72,0,.98.38.98,1.4v.38ZM133.91,49.21v5.02c0,.3.19.5.46.5s.48-.2.48-.5v-5.02h1.35c.3,0,.5-.19.5-.46s-.2-.48-.5-.48h-1.35c-.03-1.21.14-1.5.92-1.62.48-.07.64-.1.7-.14.12-.07.22-.24.22-.4,0-.29-.27-.46-.71-.46-.79,0-1.47.31-1.78.82-.26.41-.29.57-.29,1.8h-.41c-.3,0-.5.19-.5.46s.22.48.5.48h.41ZM130.43,53.8h-1.4c-1.01,0-1.32-.34-1.32-1.48v-3.54c0-.3-.19-.5-.48-.5s-.46.2-.46.5v3.55c0,.64.11,1.21.31,1.59.31.58.79.82,1.71.82h1.95c.46,0,.63-.18.63-.67v-5.29c0-.3-.19-.5-.48-.5-.27,0-.46.2-.46.5v5.02ZM121.31,49.21h1.4c1.05,0,1.32.3,1.32,1.48v3.54c0,.3.19.5.46.5s.48-.2.48-.5v-3.62c0-1.67-.59-2.34-2.03-2.34h-1.76c-.64,0-.82.15-.82.67v5.3c0,.3.19.5.46.5.29,0,.48-.2.48-.5v-5.02ZM117.51,53.76h-1.48c-.74,0-1.2-.35-1.2-.91,0-.61.45-.91,1.39-.91h1.29v1.82ZM117.51,51h-1.61c-.45,0-.86.08-1.16.25-.54.3-.93.94-.93,1.59s.38,1.31.94,1.62c.37.22.71.29,1.43.29h1.65c.46,0,.61-.22.61-.84v-3.51c0-1.46-.64-2.11-2.08-2.11h-1.91c-.3,0-.52.2-.52.48s.22.46.52.46h2.07c.72,0,.98.38.98,1.4v.38ZM107.09,49.21h1.7v5.02c0,.3.19.5.46.5s.48-.2.48-.5v-5.02c1.51,0,1.76.18,1.76,1.29v3.73c0,.3.19.5.46.5s.48-.2.48-.5v-3.93c0-.63-.14-1.1-.41-1.44-.34-.42-.9-.59-1.99-.59h-2.91c-.76,0-.97.16-.97.76v5.2c0,.3.19.5.46.5.29,0,.48-.2.48-.5v-5.02ZM98.4,51.02c0-.5.01-.6.06-.79.15-.67.57-1.01,1.24-1.01.91,0,1.29.52,1.29,1.8h-2.59ZM98.4,51.96h2.9c.27,0,.46-.07.52-.18.07-.12.12-.53.12-.9,0-1.58-.89-2.61-2.26-2.61-1.27,0-2.22,1.01-2.22,2.35v1.99c0,.6.15,1.18.37,1.5.31.45.82.63,1.77.63h1.85c.3,0,.52-.2.52-.46,0-.27-.22-.48-.52-.48h-1.84c-.97,0-1.21-.29-1.21-1.36v-.48ZM94.61,52.87c0,.64.1.99.33,1.31.24.33.69.56,1.08.56.27,0,.42-.16.42-.45,0-.16-.05-.26-.19-.34-.63-.33-.7-.45-.7-1.22v-6.56c0-.3-.19-.5-.48-.5s-.46.2-.46.5v6.71ZM91.7,53.8h-1.4c-1.01,0-1.32-.34-1.32-1.48v-3.54c0-.3-.19-.5-.48-.5s-.46.2-.46.5v3.55c0,.64.11,1.21.31,1.59.31.58.79.82,1.72.82h1.95c.46,0,.63-.18.63-.67v-5.29c0-.3-.19-.5-.48-.5s-.46.2-.46.5v5.02ZM85.18,49.21v4.59h-1.51c-.84,0-1.21-.37-1.21-1.23v-2.14c0-.86.37-1.22,1.21-1.22h1.51ZM85.18,48.27h-1.58c-.69,0-1.24.18-1.59.5-.33.31-.49.84-.49,1.59v2.27c0,.75.14,1.21.46,1.55.38.4.83.54,1.67.54h1.89c.42,0,.57-.15.57-.57v-8.01c0-.3-.19-.5-.46-.5-.29,0-.48.2-.48.5v2.11ZM76.36,51.08c0-1.24.46-1.85,1.4-1.85s1.39.6,1.39,1.85v.9c0,1.17-.49,1.81-1.39,1.81s-1.4-.64-1.4-1.81v-.9ZM75.42,52.24c0,1.51.93,2.51,2.34,2.51s2.33-.99,2.33-2.51v-1.46c0-1.51-.93-2.51-2.33-2.51s-2.34.99-2.34,2.51v1.46ZM68.52,49.21h1.7v5.02c0,.3.19.5.46.5.29,0,.48-.2.48-.5v-5.02c1.51,0,1.76.18,1.76,1.29v3.73c0,.3.19.5.46.5.29,0,.48-.2.48-.5v-3.93c0-.63-.14-1.1-.41-1.44-.34-.42-.9-.59-1.99-.59h-2.91c-.76,0-.97.16-.97.76v5.2c0,.3.19.5.46.5.29,0,.48-.2.48-.5v-5.02ZM61.14,49.21h.78c.52,0,.79.09.92.31.33.54.37.57.59.57.26,0,.42-.18.42-.44,0-.72-.71-1.39-1.47-1.39h-1.5c-.52,0-.68.16-.68.71v5.26c0,.3.19.5.46.5.29,0,.48-.2.48-.5v-5.02ZM57.34,53.76h-1.48c-.74,0-1.2-.35-1.2-.91,0-.61.45-.91,1.39-.91h1.29v1.82ZM57.34,51h-1.61c-.45,0-.86.08-1.16.25-.54.3-.93.94-.93,1.59s.38,1.31.94,1.62c.37.22.71.29,1.43.29h1.65c.46,0,.61-.22.61-.84v-3.51c0-1.46-.64-2.11-2.08-2.11h-1.91c-.3,0-.52.2-.52.48s.22.46.52.46h2.07c.72,0,.98.38.98,1.4v.38ZM51.02,52.87c0,.64.1.99.33,1.31.24.33.69.56,1.07.56.27,0,.42-.16.42-.45,0-.16-.05-.26-.19-.34-.63-.33-.69-.45-.69-1.22v-6.56c0-.3-.19-.5-.48-.5s-.46.2-.46.5v6.71ZM45.69,51.08c0-1.24.46-1.85,1.4-1.85s1.39.6,1.39,1.85v.9c0,1.17-.49,1.81-1.39,1.81s-1.4-.64-1.4-1.81v-.9ZM44.75,52.24c0,1.51.93,2.51,2.34,2.51s2.33-.99,2.33-2.51v-1.46c0-1.51-.93-2.51-2.33-2.51s-2.34.99-2.34,2.51v1.46ZM41.34,48.27c-.56,0-.99.12-1.36.35-.42.27-.71.79-.71,1.27,0,.79.43,1.27,1.8,1.99.99.5,1.06.55,1.24.67.26.19.41.42.41.63,0,.39-.39.65-1.03.65-.56,0-.97-.12-1.58-.44-.33-.18-.45-.23-.58-.23-.22,0-.42.22-.42.46,0,.52,1.29,1.12,2.42,1.12,1.25,0,2.14-.65,2.14-1.58,0-.48-.23-.95-.64-1.27-.3-.23-.43-.31-1.39-.8q-.83-.45-1.04-.59c-.23-.16-.38-.39-.38-.6,0-.39.46-.68,1.08-.68.33,0,.48.03.86.15.35.11.53.15.69.15.29,0,.46-.19.46-.49,0-.19-.08-.3-.3-.41-.49-.22-1.09-.35-1.66-.35"/>
      <path class="cls-2" d="M169.99,23c-.32,1.26-1.83,2.56-3.03,2.57l-7.39.03.74-1.73,1.51-3.37,5.98-.03c2.92-.01,2.52,1.26,2.2,2.53M172.41,16.49l-19.32.09-6.17,14.01-3.35,7.6,10.44-.05,3.98-9.02h3.15s1.07,8.98,1.07,8.98l9.88-.04-1.68-8.96h.2c2.36-.01,4.97-2.09,6.13-4.08.78-1.33,1.26-2.8,1.64-4.28.54-2.11.1-4.2-5.98-4.24"/>
      <polygon class="cls-2" points="102.85 16.81 97.13 22.08 94.72 16.85 85.14 16.89 89.23 25.83 75.48 38.49 85.93 38.44 93.01 31.92 96 38.4 105.56 38.36 100.9 28.19 113.3 16.77 102.85 16.81"/>
      <path class="cls-2" d="M134.47,24.18c-.11.27-.23.55-.34.82l-2.56,5.81c-.98,2.18-3.41,3.37-7.28,3.57-3.63-.17-4.96-1.39-3.98-3.66.83-1.88,1.66-3.76,2.48-5.65.51-1.18,1.17-2.15,2.26-2.86,1.02-.67,2.13-1.19,3.33-1.39.77-.13,1.58-.21,2.37-.21,2.25-.01,3.57.63,3.86,1.98.07.32.15.64,0,1.2l-.14.4ZM144.7,21.53c-.32-3.28-2.74-4.91-7.24-4.89l-10.65.05c-4.46.02-8.32,1.68-11.59,4.97-.68.69-1.3,1.43-1.87,2.24-.83,1.18-1.55,2.43-2.16,3.73-.68,1.47-1.39,3.05-1.74,4.64-.1.45-.16.92-.17,1.38,0,.3,0,.6.05.89.29,2.52,2.86,3.78,7.7,3.76l11.12-.05c4.88-.02,8.61-1.3,11.17-3.84.54-.54,1.04-1.13,1.49-1.76.79-1.09,1.41-2.29,1.95-3.52.16-.36.31-.73.46-1.09.38-.9.76-1.8,1.04-2.74.24-.83.43-1.68.47-2.54.02-.4.03-.82-.02-1.23"/>
      <path class="cls-2" d="M65.27,31.12c-.98,2.17-3.4,3.36-7.27,3.57-3.64-.15-4.96-1.37-3.98-3.66l6.17-14.04-10.44.05-6.17,14.03c-.54,1.46-.72,2.73-.55,3.78.29,2.52,2.86,3.77,7.7,3.75l11.12-.05c4.88-.02,8.61-1.3,11.17-3.83,1.08-1.09,1.99-2.35,2.74-3.79l6.17-14.03-10.41.05-6.24,14.18Z"/>
      <path class="cls-2" d="M41.14,34.76l-1.71,3.89-14.6.06h-.21c-4.84.02-7.4-1.23-7.7-3.75-.14-1.09.04-2.35.55-3.79l6.15-14.02,10.43-.05-6.15,14.03c-.47,1.14-.38,2.03.24,2.69.63.66,1.87.98,3.74.97l9.26-.04Z"/>
    </g>
    <rect class="cls-1" width="195.43" height="71.23"/>
  </g>
</svg>