<?xml version="1.0" encoding="UTF-8"?>
<svg id="Ebene_2" data-name="Ebene 2" xmlns="http://www.w3.org/2000/svg" viewBox="0 0 283.46 58.11">
  <defs>
    <style>
      .cls-1 {
        fill: #fff;
      }

      .cls-2 {
        fill: #db291a;
      }

      .cls-3 {
        fill: #4a4a49;
      }

      .cls-4 {
        fill: #fefefe;
      }

      .cls-5 {
        fill: #babab9;
      }
    </style>
  </defs>
  <g id="Ebene_1-2" data-name="Ebene 1">
    <polygon class="cls-4" points="149.23 53.73 209.42 27.25 149.64 2.17 148.58 1.73 149.23 53.73"/>
    <polygon class="cls-4" points="147.57 1.3 86.32 28.66 112.27 39.39 147.57 1.3"/>
    <path class="cls-4" d="M115.48,40.71l3.64,1.5-3.64-1.5Z"/>
    <polygon class="cls-4" points="122.33 43.55 146.46 53.52 149.23 53.73 122.33 43.55"/>
    <g>
      <path class="cls-4" d="M109.71,41.2l-3.55-1.5c0,.32-.03.63-.07.92-.04.29-.1.57-.17.84-.09.34-.21.67-.35.96-.14.3-.31.57-.51.82-.21.27-.43.5-.68.7-.25.2-.51.37-.8.5-.28.13-.57.23-.88.3-.31.07-.64.1-.98.11h0c-.35,0-.68-.03-.99-.09-.31-.06-.61-.16-.89-.28-.29-.13-.57-.29-.82-.49-.25-.2-.48-.43-.69-.69-.2-.25-.37-.52-.52-.82-.15-.29-.27-.61-.37-.95-.09-.31-.16-.65-.21-1-.05-.36-.07-.73-.08-1.13l-.03-3.55-3.72-1.57.05,4.82c0,.27.02.55.04.85.02.3.06.61.11.94.05.32.1.66.17,1.01s.15.71.24,1.09h0c.05.21.11.42.18.62.07.2.15.41.25.61.1.2.2.41.32.61.12.2.24.4.38.6.14.2.28.39.43.57.14.18.29.34.44.5.14.15.29.28.44.4.15.12.29.23.44.32.67.41,1.44.72,2.26.93.82.21,1.69.32,2.53.34.87.02,1.69-.06,2.41-.22s1.32-.41,1.73-.75h0c.12-.09.24-.18.36-.27.12-.08.23-.17.35-.25h0c.24-.18.49-.36.74-.56.24-.2.48-.43.69-.71.16-.21.31-.43.46-.66.14-.23.27-.47.39-.72.12-.25.24-.52.34-.79.1-.27.19-.55.26-.83h0c.07-.25.13-.5.18-.76.05-.25.1-.51.14-.77"/>
      <path class="cls-4" d="M88,32.01l-3.51-1.49s.03.02.04.04c.01.01.03.02.04.03h0c.15.13.29.27.4.43.12.16.22.33.3.52.07.17.12.35.16.54.04.19.06.39.06.6h0c0,.15-.01.3-.03.44s-.06.29-.1.43c-.04.14-.1.28-.17.41-.07.13-.14.26-.23.38h0c-.09.13-.19.24-.3.34s-.23.19-.35.28c-.13.08-.26.15-.39.21-.14.06-.28.1-.42.13-.17.04-.32.08-.46.1-.14.03-.26.05-.38.08-.13.02-.25.04-.36.05-.11.01-.22.02-.31.02l-2.04.03h-1.17s-.01-1.19-.01-1.19l-.03-3.24v-1.19s1.16-.01,1.16-.01l2.12-.03c.25,0,.49,0,.71.02.22.02.42.04.6.08l-.49-.21-1.71-.71-4.92.06.13,13.53,2.51-.03-.05-5.27v-1.19s1.16-.01,1.16-.01h.42c.17,0,.33,0,.5.02.16.02.32.06.47.1.16.05.31.11.46.18.15.07.29.15.43.25h.01c.12.1.23.2.35.32.11.12.23.25.34.41h0c.09.12.18.26.27.41.09.15.19.32.29.5h0s2.29,4.21,2.29,4.21l2.84-.03-1.48-2.85v-.02s-.05-.07-.07-.11c-.03-.04-.06-.09-.1-.15h0c-.06-.09-.12-.17-.18-.25-.06-.08-.13-.17-.19-.25h0c-.08-.1-.15-.18-.21-.26-.07-.08-.12-.14-.17-.19h0s-.08-.08-.1-.11c-.03-.03-.04-.04-.06-.05h0s-.08-.05-.14-.08c-.05-.03-.11-.06-.18-.09h0c-.09-.04-.19-.08-.3-.12-.1-.04-.22-.08-.33-.12l.09-2.31c.16-.04.31-.08.44-.12.14-.04.26-.08.37-.12.1-.04.2-.08.28-.12.09-.04.17-.09.24-.13h0c.12-.08.24-.16.34-.25.11-.09.21-.18.3-.27.09-.1.18-.2.26-.3.08-.1.15-.21.21-.33h0c.06-.11.12-.23.16-.35.05-.12.09-.25.12-.39.03-.15.06-.3.08-.46.02-.16.02-.32.02-.49,0-.04,0-.08,0-.12,0-.04,0-.08,0-.12"/>
      <path class="cls-4" d="M105.83,17.31l2.66-1.19.29-2.71h0c.02-.18.04-.39.06-.64.02-.25.05-.53.07-.84.02-.24.04-.46.05-.65.01-.18.02-.34.03-.47l2.33-.11c.03.19.06.39.1.6.04.21.09.43.14.67.05.21.1.44.16.66.06.23.12.46.2.71h0s.32,1.09.32,1.09l1.38-.61h-.69l-.12-1.07c-.02-.2-.05-.4-.08-.59-.03-.19-.06-.38-.09-.55-.03-.18-.07-.37-.11-.56-.04-.19-.08-.39-.13-.59h0c-.02-.09-.05-.18-.07-.28-.03-.09-.05-.19-.08-.29l-.33-1.16-.77-2.7h-3.42l-1.9,11.28Z"/>
      <path class="cls-4" d="M115.17,13.14l1.02-.46c.03-.12.06-.24.09-.36.03-.12.06-.23.08-.34.05-.23.1-.46.14-.67.04-.21.08-.41.1-.6l2.33.08.05.64,2.08-.93-.7-4.47h-3.42l-.8,2.66c-.11.38-.22.75-.31,1.11-.1.36-.19.72-.27,1.08-.08.34-.15.67-.21.99-.06.32-.11.62-.15.92l-.05.35Z"/>
    </g>
    <polygon class="cls-4" points="126.69 8 131.08 6.04 126.69 6.04 126.69 8"/>
    <polygon class="cls-4" points="174.08 9.81 176.92 11 176.92 6.04 174.08 6.04 174.08 9.81"/>
    <polygon class="cls-4" points="212.47 28.53 209.54 29.81 209.65 41.07 212.6 41.03 212.47 28.53"/>
    <polygon class="cls-4" points="200.5 33.78 197.83 34.94 201.73 41.17 205.27 41.13 200.9 34.39 200.5 33.78"/>
    <polygon class="cls-4" points="194.69 36.32 191.32 37.8 191.35 41.3 194.74 41.26 194.69 36.32"/>
    <path class="cls-4" d="M185.36,40.41l-2.24.98c.43-.1.84-.24,1.21-.4.37-.17.72-.36,1.02-.58"/>
    <polygon class="cls-4" points="92.41 18.05 101.35 18.05 101.35 15.79 96.19 15.79 95.02 15.79 95.02 14.58 95.02 6.04 92.41 6.04 92.41 18.05"/>
    <g>
      <path class="cls-4" d="M87.53,14.59h0c.15-.38.26-.78.33-1.2.08-.42.11-.86.11-1.32s-.04-.91-.11-1.33c-.07-.42-.18-.82-.33-1.2-.15-.38-.33-.73-.55-1.07-.22-.34-.48-.66-.78-.96-.3-.3-.61-.57-.95-.79-.33-.23-.69-.41-1.06-.56-.37-.15-.77-.27-1.19-.34-.42-.08-.86-.11-1.32-.11s-.9.04-1.32.11c-.42.08-.82.19-1.19.34-.37.15-.72.34-1.06.57-.33.23-.65.49-.95.79-.59.6-1.04,1.28-1.33,2.04-.3.76-.44,1.6-.44,2.51,0,.46.04.9.11,1.32.07.42.18.81.33,1.19.14.37.33.73.55,1.06.22.33.48.65.77.95.31.31.63.58.97.82s.69.42,1.06.58c.37.15.77.27,1.18.35.42.08.85.11,1.31.11s.89-.04,1.31-.11c.42-.08.81-.19,1.18-.34.37-.15.72-.34,1.06-.57.33-.23.65-.49.95-.79.3-.31.56-.63.79-.97s.41-.69.56-1.06"/>
      <path class="cls-4" d="M84.98,10.57h0c.08.23.13.47.17.72.04.25.06.51.06.79s-.02.53-.06.78c-.04.25-.1.49-.17.72-.08.24-.18.47-.3.68-.12.21-.26.42-.43.6h0c-.17.19-.35.36-.54.5-.19.14-.4.27-.62.36-.21.1-.44.17-.67.22-.23.05-.48.07-.73.07s-.49-.02-.73-.07c-.23-.05-.46-.12-.68-.22-.22-.1-.43-.22-.62-.36-.19-.14-.37-.31-.54-.49-.16-.18-.31-.39-.43-.6-.12-.22-.23-.45-.31-.69-.08-.23-.14-.48-.18-.73-.04-.25-.06-.51-.06-.78s.02-.53.06-.79c.04-.25.1-.49.17-.72.08-.24.18-.47.3-.68.12-.22.27-.42.44-.61.34-.39.72-.68,1.15-.87.43-.19.9-.29,1.42-.29.25,0,.49.02.73.07.23.05.46.12.67.21.22.1.43.22.62.36.19.14.37.31.54.5h0c.16.19.31.39.43.61.12.22.22.45.3.69"/>
      <path class="cls-4" d="M71.86,11.19h0c.09-.21.15-.44.2-.7.04-.26.06-.54.06-.86,0-.34-.02-.66-.07-.94-.05-.28-.12-.54-.22-.76h0c-.09-.2-.19-.39-.32-.55-.13-.16-.28-.31-.46-.43-.2-.15-.44-.27-.7-.38-.27-.11-.57-.21-.9-.28-.36-.08-.76-.15-1.2-.19-.44-.04-.92-.06-1.44-.06h-4.79v11.83h2.37v-4.97h3.07c.46,0,.88-.02,1.27-.06.39-.04.75-.1,1.07-.17.29-.07.55-.15.79-.25.23-.1.43-.21.61-.34.15-.11.28-.24.39-.39.11-.15.21-.31.28-.5"/>
      <path class="cls-4" d="M69.02,7.39h0c.35.25.62.56.8.92.18.36.27.78.27,1.25s-.09.89-.27,1.25c-.18.36-.45.66-.8.91-.28.2-.62.35-1,.45-.39.1-.82.15-1.31.15h-2.34v-5.53h2.34c.49,0,.93.05,1.31.15.39.1.72.26,1.01.46h0Z"/>
      <path class="cls-4" d="M81.15,39.04h0s-.03-.05-.05-.07c-.02-.02-.03-.05-.05-.07l.1.14Z"/>
    </g>
    <polygon class="cls-5" points="148.15 55.53 148.15 55.53 212.47 27.22 147.56 0 147.56 0 83.27 28.71 148.15 55.53 148.15 55.53 148.15 55.53"/>
    <polygon class="cls-3" points="202.41 20.75 204.94 19.56 283.44 52.23 283.46 54.55 202.41 20.75"/>
    <path class="cls-3" d="M65.77,34.89h1.18c.47-.02.86-.07,1.19-.15.33-.09.58-.21.77-.38.18-.17.32-.36.42-.57.09-.21.14-.45.13-.7,0-.25-.05-.48-.13-.69-.08-.21-.21-.4-.38-.57-.16-.17-.4-.3-.71-.38s-.69-.12-1.14-.12l-1.38.02.04,3.55ZM79.94,34.38l2.04-.03c.11,0,.27-.02.48-.06.21-.04.48-.1.79-.17.16-.03.31-.09.43-.18.13-.08.25-.2.35-.33.1-.14.17-.28.22-.43.05-.15.07-.32.07-.49,0-.26-.04-.48-.13-.68s-.2-.36-.37-.5c-.16-.14-.39-.24-.69-.3-.3-.07-.67-.1-1.11-.09l-2.12.03.03,3.24ZM75.18,43.91l-.16-15.92,8.05-.1c.75,0,1.41.02,1.98.07.57.06,1.05.15,1.45.28.4.12.76.31,1.08.54.32.24.61.53.85.88.24.35.43.74.55,1.17.12.43.19.9.2,1.4,0,.44-.04.86-.13,1.24-.09.38-.22.73-.4,1.06-.18.32-.4.62-.65.88-.25.26-.54.5-.86.7-.21.13-.45.25-.73.36-.28.11-.6.21-.96.29.29.09.54.19.75.29.21.1.38.19.52.29.09.06.2.16.33.3s.28.31.45.52c.17.21.32.4.43.56.11.16.2.3.26.42l2.38,4.59-5.46.07-2.63-4.83c-.17-.31-.32-.57-.47-.77-.15-.2-.29-.35-.42-.45-.17-.12-.36-.21-.56-.27-.2-.06-.41-.09-.63-.08h-.43s.07,6.47.07,6.47l-4.85.06ZM113.43,38.05l.05,4.93c.77.2,1.5.35,2.19.45.69.1,1.34.14,1.96.13,2-.03,3.71-.63,4.91-1.59,1.2-.96,1.9-2.28,1.89-3.72-.02-2.17-1.38-3.29-2.73-4.1-1.35-.81-2.7-1.33-2.71-2.29.05-.18.22-.35.47-.48.25-.13.6-.22,1-.22.46,0,1.01.1,1.58.35.58.26,1.18.67,1.76,1.28l-.05-4.8c-.66-.26-1.35-.45-2.03-.58-.68-.12-1.36-.18-2.01-.17-1.73.02-3.29.5-4.44,1.38-1.15.88-1.9,2.17-2.02,3.81.02,1.9,1.37,3.06,2.73,3.94,1.36.88,2.71,1.47,2.73,2.22,0,.36-.15.63-.45.83-.3.2-.73.31-1.27.34-.54-.01-1.18-.15-1.8-.42-.62-.28-1.24-.7-1.77-1.29M145.49,43.04l5.31-.06-.07-6.94,5.85-9.04-5.94.07-2.5,4.81-2.48-4.75-5.89.07-14.57.18.07,4.23,7.03-.09-6.62,11.76,15.54-.19.04-4.36-7.31.09,6.18-11.08,5.28,8.16.07,7.14ZM213.78,42.21l-.16-15.91-5.29.07.16,15.91,5.29-.07ZM190.19,42.5l5.73-.07-.08-8.46,5.26,8.39,6.35-.08-5.57-8.57,5.28-7.3-6.6.08-4.73,7.11-.07-7.05-5.73.07.16,15.86ZM177.18,37.28l.05,4.93c.77.2,1.5.35,2.19.45.69.1,1.34.14,1.96.13,2-.03,3.71-.63,4.91-1.59,1.2-.96,1.9-2.28,1.89-3.72-.02-2.17-1.38-3.29-2.73-4.1-1.35-.81-2.7-1.33-2.71-2.29.05-.18.22-.35.47-.48.25-.13.6-.22,1-.22.46,0,1.01.1,1.58.35.58.26,1.18.67,1.76,1.28l-.05-4.8c-.66-.26-1.35-.45-2.03-.58-.68-.12-1.36-.18-2.01-.17-1.73.02-3.29.5-4.44,1.38-1.15.88-1.9,2.17-2.02,3.81.02,1.9,1.37,3.06,2.73,3.94,1.35.88,2.71,1.47,2.73,2.22,0,.36-.15.63-.45.83-.29.2-.73.31-1.27.34-.55-.01-1.18-.15-1.8-.43-.62-.28-1.24-.7-1.77-1.29M157.77,42.89l5.29-.07-.08-7.51,7.31,7.42,4.33-.05-.16-15.91-5.29.06.08,7.57-7.4-7.48-4.25.05.16,15.91ZM60.85,28.17l8.03-.1c.87,0,1.64.09,2.3.29.66.2,1.2.51,1.64.93.44.42.77.93.99,1.53.22.6.34,1.29.35,2.07,0,.8-.1,1.52-.33,2.15-.23.63-.58,1.17-1.05,1.63-.47.46-1.07.8-1.79,1.04-.72.23-1.57.36-2.54.37l-2.64.03.06,5.91-4.85.06-.16-15.92Z"/>
    <polygon class="cls-3" points="184.47 19.27 172.9 19.27 172.9 4.82 178.1 4.82 178.1 14.58 184.47 14.58 184.47 19.27"/>
    <polygon class="cls-3" points="165.22 4.82 159.44 4.82 153 19.27 158.18 19.27 158.62 17.45 165.52 17.45 165.98 19.27 171.46 19.27 165.22 4.82"/>
    <polygon class="cls-3" points="137.52 8.74 137.52 8.74 130.38 8.74 130.38 10.14 136.99 10.14 136.99 13.83 130.38 13.83 130.38 15.35 137.67 15.35 137.67 19.27 125.52 19.27 125.52 4.82 137.52 4.82 137.52 8.74"/>
    <g>
      <path class="cls-3" d="M81.79,19.65h.1s.1,0,.1,0h.1s.1,0,.1,0h.1s.1-.01.1-.01h.1s.1-.02.1-.02h0s.09-.01.09-.01h0s.09-.01.09-.01h0s.09-.01.09-.01h.09s.09-.03.09-.03l.09-.02.09-.02.09-.02h0s.09-.02.09-.02l.09-.02.09-.02h0s.09-.02.09-.02l.09-.02.09-.02.09-.02.09-.03.09-.03.09-.03.08-.03.09-.03.08-.03.08-.03.08-.03.08-.04.08-.03.08-.04.08-.04.08-.04.08-.04.08-.04.08-.04.08-.04.08-.04.08-.04.08-.05.08-.05.08-.05.08-.05.08-.05.07-.05.07-.05.07-.05.07-.05.07-.06.07-.06.07-.06.07-.06.07-.06.07-.06.07-.06.07-.06.07-.06.07-.07.07-.07.07-.07.07-.07.07-.07.07-.07.06-.07.06-.07.06-.07.06-.07.06-.07.06-.07.06-.07.06-.07.05-.07.05-.07.05-.08.05-.08.05-.08.05-.08.05-.08.05-.08.05-.08.05-.08.04-.08.04-.08.04-.08.04-.08.04-.08.04-.08.04-.08.04-.08.04-.08.04-.08.03-.08.03-.09.03-.09.03-.08.03-.09.03-.09.03-.09.03-.09.02-.09.02-.09.02-.09.02-.09.02-.09.02-.09.02-.09.02-.09.02-.09.02-.09.02-.09v-.09s.03-.1.03-.1v-.09s.02-.1.02-.1h0s.01-.1.01-.1v-.1s.02-.1.02-.1v-.1s.01-.1.01-.1v-.1s0-.1,0-.1v-.1s0,0,0,0v-.1s0-.1,0-.1v-.2s0-.1,0-.1v-.1s0-.1,0-.1v-.1s-.01-.1-.01-.1v-.1s-.02-.1-.02-.1v-.1s-.02-.1-.02-.1v-.1s-.02-.1-.02-.1v-.09s-.03-.09-.03-.09l-.02-.09h0s-.02-.09-.02-.09l-.02-.09-.02-.09-.02-.09-.02-.09h0s-.02-.09-.02-.09l-.02-.09-.02-.09-.03-.09-.03-.09-.03-.09h0s-.03-.09-.03-.09h0s-.03-.09-.03-.09l-.03-.09-.03-.09-.03-.09-.03-.08-.04-.08-.04-.08h0s-.04-.08-.04-.08l-.04-.08-.04-.08-.04-.08-.04-.08-.04-.08-.04-.08-.04-.08h0s-.04-.08-.04-.08l-.05-.08-.05-.08-.05-.08-.05-.08-.05-.08-.05-.08-.05-.08-.05-.07-.05-.07-.05-.07-.06-.07-.06-.07-.06-.07-.06-.07-.06-.07-.06-.07-.06-.07-.06-.07-.07-.07-.07-.07c-.71-.72-1.51-1.26-2.4-1.62-.89-.36-1.87-.54-2.93-.54s-2.05.18-2.93.54c-.89.36-1.69.9-2.4,1.62l-.07.07-.07.07-.06.07-.06.07-.06.07-.06.07-.06.07-.06.07-.06.07h0l-.06.07-.06.07-.05.07-.05.07-.05.08-.05.08-.05.08-.05.08h0l-.05.08-.05.08-.05.08-.04.08h0s-.04.08-.04.08l-.04.08-.04.08-.04.08-.04.08-.04.08-.04.08-.04.08h0s-.04.08-.04.08l-.03.08h0l-.03.08-.03.09-.03.09-.03.09-.03.09h0s-.03.09-.03.09h0s-.03.09-.03.09l-.03.09-.03.09-.02.09h0l-.02.09-.02.09h0s-.02.09-.02.09l-.02.09-.02.09-.02.09-.02.09h0s-.02.09-.02.09l-.02.09v.09s-.03.1-.03.1v.1h-.01v.1s-.02.1-.02.1v.1s-.02.1-.02.1v.1s-.01.1-.01.1v.1s0,.1,0,.1v.1s0,.1,0,.1v.1s0,.1,0,.1v.1s0,.1,0,.1v.1s0,.1,0,.1v.1s.01.1.01.1v.1s.02.1.02.1v.1s.02.1.02.1v.09s.02.09.02.09v.09s.03.09.03.09l.02.09.02.09h0s.02.09.02.09l.02.09.02.09.02.09.02.09.02.09.02.09.03.09.03.09.03.09.03.09h0s.03.09.03.09l.03.09.03.08h0s.03.09.03.09l.03.08.04.08.04.08.04.08h0s.04.08.04.08l.04.08.04.08h0s.04.08.04.08l.04.08.04.08.04.08.04.08.05.08.05.08.05.08.05.08.05.08.05.08.05.07.05.07.05.07.05.07.06.07.06.07.06.07.06.07.06.07.06.07.06.07.06.07.06.07.07.07.07.07.07.07.07.07.07.07.07.06.07.06.07.06.07.06.07.06.07.06.07.06.07.06.07.05.07.05.08.05.07.05.08.05.08.05.08.05.08.05.08.05.08.05.08.04.08.04.08.04.08.04.08.04.08.04.08.04.08.04.08.04.08.04.08.03.09.03.08.03.09.03.09.03.09.03.09.03.09.03.09.03.09.02h0s.09.02.09.02h0s.09.02.09.02l.09.02.09.02.09.02.09.02.09.02.09.02h.09s.09.03.09.03h.09s.09.02.09.02h.09s.1.02.1.02h.1s.1.02.1.02h.1s.1.01.1.01h.1s.1,0,.1,0h.1s.1,0,.1,0h.1Z"/>
      <path class="cls-3" d="M72.43,12.53h0s-.02.03-.04.04c-.01.01-.02.03-.04.04l-.04.04c-.07.07-.14.14-.21.21-.07.07-.15.13-.23.19-.03.02-.06.04-.09.07-.03.02-.06.04-.09.06l-.05.03s-.05.03-.07.04c-.03.02-.05.03-.08.04l-.05.03h0s-.05.03-.05.03h0s-.05.03-.05.03h0s-.11.05-.11.05l-.11.05-.06.03-.06.02h0s-.06.03-.06.03l-.06.02-.06.02-.06.02-.06.02-.06.02-.06.02-.06.02h0s-.06.02-.06.02h0s-.06.02-.06.02h0s-.07.02-.07.02l-.07.02-.07.02-.07.02-.07.02-.07.02-.07.02-.14.03h-.07s-.07.03-.07.03h-.07s-.08.03-.08.03h-.08s-.08.02-.08.02c-.04,0-.08.01-.12.02l-.12.02h0s-.08,0-.08,0c-.24.03-.49.05-.75.06-.26.01-.53.02-.81.02h-1.89v4.97h-4.72V4.82h5.97c1.11,0,2.07.09,2.89.28.82.19,1.49.47,2.02.85.53.38.92.87,1.18,1.49.26.61.39,1.34.39,2.19v.15s0,.07,0,.07v.07s0,.07,0,.07v.07s0,.07,0,.07v.07s-.01.07-.01.07v.07s-.01.07-.01.07v.07s-.02.07-.02.07v.07s-.02.06-.02.06v.06s-.02.06-.02.06h0s-.01.06-.01.06v.06s-.03.06-.03.06v.06s-.03.06-.03.06l-.02.06-.02.06-.02.06-.02.06-.02.06-.02.06-.02.06-.02.05-.02.05h0s-.02.05-.02.05l-.02.05-.02.05-.02.05-.02.05-.03.05-.03.05-.03.05h0s-.03.05-.03.05l-.03.05-.03.05-.03.05-.03.05-.03.05-.03.04h0s-.03.04-.03.04l-.03.04-.03.04h0s-.03.04-.03.04Z"/>
      <path class="cls-3" d="M105,39.32c0,.68-.06,1.29-.2,1.83-.14.53-.36.99-.65,1.36-.29.38-.64.66-1.05.86-.41.19-.87.29-1.39.3-.53,0-1-.08-1.41-.27s-.77-.47-1.07-.84c-.3-.37-.52-.82-.68-1.35-.15-.52-.23-1.12-.24-1.8l-.15-15.09-6.04.07.15,14.74c0,.61.06,1.26.16,1.96.1.7.25,1.43.44,2.22.12.49.29.97.51,1.44.22.47.49.94.81,1.39.32.46.65.86,1,1.22s.71.65,1.1.89c1.57.97,3.63,1.43,5.55,1.44,1.92.02,3.7-.42,4.71-1.22.37-.3.76-.55,1.15-.85.39-.3.79-.65,1.17-1.14.38-.49.71-1.02.99-1.6.28-.57.5-1.18.68-1.83.17-.65.3-1.32.39-2.01.08-.69.12-1.4.12-2.13l-.15-14.74-6.04.07.15,15.09Z"/>
    </g>
    <polygon class="cls-1" points="163.99 14.01 162.31 9.21 162.21 9.21 160.26 14.01 163.99 14.01"/>
    <polygon class="cls-3" points="153.65 4.82 140.05 4.82 140.05 9.55 144.23 9.55 144.23 19.27 149.08 19.27 149.08 9.55 153.65 9.55 153.65 4.82"/>
    <polygon class="cls-3" points="123.62 19.27 118.6 19.27 117.98 13.55 117.98 13.53 117.98 13.5 117.97 13.48 117.97 13.45 117.97 13.43 117.97 13.43 117.97 13.4 117.96 13.37 117.96 13.35 117.96 13.32 117.96 13.29 117.96 13.26 117.95 13.23 117.95 13.23 117.95 13.2 117.95 13.17 117.95 13.14 117.94 13.11 117.94 13.1 117.94 13.07 117.94 13.04 117.93 13.01 117.93 12.97 117.93 12.94 117.93 12.9 117.92 12.86 117.92 12.83 117.92 12.79 117.92 12.79 117.91 12.75 117.91 12.72 117.91 12.68 117.9 12.64 117.9 12.6 117.9 12.56 117.89 12.52 117.89 12.47 117.89 12.43 117.88 12.39 117.88 12.35 117.88 12.3 117.87 12.26 117.87 12.21 117.86 12.17 117.86 12.12 117.86 12.07 117.85 12.03 117.85 11.98 117.85 11.93 117.84 11.88 117.84 11.83 117.83 11.78 117.83 11.78 117.83 11.73 117.83 11.68 117.82 11.63 117.82 11.58 117.82 11.58 117.81 11.52 117.81 11.47 117.8 11.42 117.8 11.36 117.79 11.31 117.79 11.25 117.78 11.19 117.78 11.14 117.77 11.08 117.77 11.08 117.77 11.02 117.77 10.96 117.76 10.9 117.75 10.95 117.75 10.99 117.74 11.03 117.73 11.07 117.73 11.11 117.72 11.15 117.71 11.19 117.71 11.24 117.7 11.28 117.69 11.32 117.68 11.36 117.68 11.4 117.67 11.45 117.66 11.49 117.65 11.53 117.65 11.57 117.64 11.61 117.63 11.66 117.62 11.7 117.62 11.7 117.61 11.74 117.6 11.79 117.6 11.83 117.59 11.87 117.58 11.91 117.57 11.96 117.56 12 117.55 12.04 117.54 12.09 117.53 12.13 117.52 12.18 117.51 12.22 117.5 12.26 117.49 12.31 117.48 12.35 117.47 12.39 117.46 12.44 117.45 12.48 117.44 12.53 117.43 12.57 117.42 12.62 117.41 12.66 117.4 12.71 117.4 12.71 117.38 12.75 117.38 12.75 117.37 12.8 117.36 12.84 117.35 12.89 117.34 12.93 117.33 12.98 117.31 13.02 117.3 13.07 117.29 13.11 117.28 13.16 117.27 13.2 117.25 13.25 117.24 13.3 117.23 13.34 117.21 13.39 117.2 13.43 117.19 13.48 117.18 13.53 117.16 13.57 117.15 13.62 117.14 13.67 117.12 13.71 115.49 19.27 112.44 19.27 110.81 13.71 110.79 13.67 110.78 13.62 110.77 13.57 110.75 13.53 110.74 13.48 110.73 13.43 110.71 13.39 110.7 13.34 110.69 13.3 110.68 13.25 110.66 13.2 110.65 13.16 110.64 13.11 110.63 13.07 110.61 13.02 110.6 12.98 110.59 12.93 110.58 12.89 110.57 12.84 110.56 12.8 110.55 12.75 110.55 12.75 110.53 12.71 110.53 12.71 110.52 12.66 110.51 12.62 110.5 12.57 110.49 12.53 110.48 12.48 110.47 12.44 110.46 12.39 110.45 12.35 110.44 12.31 110.43 12.26 110.42 12.22 110.41 12.18 110.4 12.13 110.39 12.09 110.38 12.04 110.37 12 110.36 11.96 110.35 11.91 110.34 11.87 110.33 11.83 110.33 11.79 110.32 11.74 110.31 11.7 110.31 11.7 110.3 11.66 110.29 11.61 110.28 11.57 110.28 11.53 110.27 11.49 110.26 11.45 110.25 11.4 110.24 11.36 110.24 11.32 110.23 11.28 110.22 11.24 110.21 11.19 110.21 11.15 110.2 11.11 110.2 11.07 110.19 11.03 110.18 10.99 110.18 10.95 110.17 10.9 110.17 10.93 110.17 10.96 110.16 11 110.16 11.03 110.16 11.06 110.16 11.09 110.15 11.12 110.15 11.15 110.15 11.19 110.15 11.22 110.15 11.25 110.14 11.29 110.14 11.32 110.14 11.36 110.14 11.39 110.13 11.43 110.13 11.43 110.13 11.46 110.13 11.5 110.12 11.53 110.12 11.53 110.12 11.57 110.12 11.61 110.12 11.61 110.12 11.65 110.11 11.68 110.11 11.72 110.11 11.76 110.1 11.8 110.1 11.84 110.1 11.88 110.1 11.92 110.09 11.96 110.09 12 110.08 12.04 110.08 12.08 110.08 12.12 110.07 12.17 110.07 12.21 110.07 12.25 110.06 12.3 110.06 12.34 110.06 12.38 110.05 12.43 110.05 12.47 110.04 12.52 110.04 12.56 110.04 12.61 110.03 12.66 110.03 12.7 110.02 12.75 110.02 12.8 110.02 12.84 110.01 12.89 110.01 12.94 110 12.99 110 13.04 109.99 13.09 109.99 13.14 109.99 13.14 109.98 13.19 109.98 13.24 109.98 13.24 109.97 13.29 109.97 13.34 109.96 13.39 109.96 13.45 109.96 13.5 109.96 13.5 109.95 13.55 109.33 19.27 104.31 19.27 106.74 4.82 112.02 4.82 113.04 8.4 113.05 8.44 113.06 8.49 113.08 8.53 113.09 8.58 113.1 8.62 113.11 8.66 113.12 8.7 113.14 8.75 113.15 8.79 113.16 8.83 113.17 8.87 113.18 8.9 113.19 8.94 113.21 8.98 113.22 9.02 113.23 9.05 113.24 9.09 113.25 9.13 113.26 9.16 113.27 9.2 113.28 9.23 113.29 9.26 113.3 9.3 113.3 9.33 113.31 9.36 113.32 9.39 113.33 9.42 113.34 9.45 113.35 9.48 113.36 9.51 113.36 9.51 113.36 9.54 113.37 9.57 113.38 9.59 113.39 9.62 113.39 9.65 113.39 9.65 113.4 9.67 113.41 9.7 113.42 9.72 113.42 9.72 113.42 9.74 113.43 9.77 113.43 9.79 113.44 9.81 113.44 9.81 113.45 9.83 113.45 9.86 113.46 9.88 113.46 9.9 113.47 9.91 113.48 9.93 113.48 9.95 113.48 9.95 113.49 9.97 113.49 9.99 113.49 10 113.49 10 113.5 10.02 113.5 10.02 113.5 10.03 113.51 10.05 113.51 10.05 113.51 10.06 113.52 10.08 113.52 10.09 113.52 10.1 113.52 10.11 113.53 10.13 113.53 10.14 113.53 10.15 113.54 10.16 113.55 10.2 113.55 10.24 113.56 10.27 113.57 10.31 113.58 10.35 113.59 10.39 113.6 10.43 113.61 10.47 113.62 10.51 113.63 10.55 113.63 10.59 113.64 10.62 113.65 10.66 113.66 10.7 113.67 10.74 113.68 10.78 113.68 10.82 113.69 10.86 113.7 10.9 113.71 10.94 113.71 10.97 113.72 11.01 113.73 11.05 113.74 11.09 113.74 11.13 113.75 11.17 113.76 11.21 113.77 11.25 113.77 11.28 113.78 11.32 113.79 11.36 113.8 11.4 113.8 11.44 113.81 11.48 113.82 11.51 113.82 11.55 113.83 11.59 113.83 11.63 113.83 11.63 113.84 11.67 113.85 11.71 113.85 11.74 113.85 11.75 113.86 11.78 113.87 11.82 113.87 11.86 113.87 11.86 113.88 11.9 113.88 11.94 113.89 11.97 113.9 12.01 113.9 12.05 113.91 12.09 113.91 12.13 113.92 12.17 113.92 12.2 113.93 12.24 113.93 12.28 113.93 12.28 113.94 12.32 113.94 12.36 113.95 12.39 113.95 12.39 113.95 12.43 113.95 12.43 113.96 12.47 113.96 12.47 113.96 12.51 113.96 12.51 113.96 12.55 113.97 12.58 113.97 12.62 114.05 12.62 114.06 12.56 114.07 12.5 114.08 12.44 114.08 12.44 114.09 12.38 114.1 12.32 114.11 12.26 114.12 12.2 114.13 12.14 114.14 12.08 114.15 12.02 114.16 11.96 114.16 11.96 114.17 11.9 114.18 11.84 114.19 11.77 114.2 11.71 114.21 11.65 114.22 11.59 114.24 11.52 114.25 11.46 114.26 11.4 114.27 11.33 114.29 11.27 114.3 11.2 114.31 11.14 114.33 11.07 114.34 11.01 114.35 10.94 114.37 10.88 114.38 10.81 114.4 10.74 114.41 10.68 114.43 10.61 114.44 10.54 114.46 10.48 114.47 10.41 114.49 10.34 114.51 10.27 114.52 10.21 114.54 10.14 114.56 10.07 114.57 10 114.59 9.93 114.61 9.86 114.63 9.79 114.65 9.72 114.65 9.72 114.66 9.65 114.68 9.58 114.68 9.58 114.7 9.51 114.7 9.51 114.72 9.44 114.72 9.44 114.74 9.37 114.76 9.29 114.78 9.22 114.8 9.15 114.8 9.15 114.82 9.08 114.84 9 114.86 8.93 114.88 8.86 114.9 8.79 114.92 8.71 114.94 8.64 114.96 8.56 114.99 8.49 114.99 8.49 115.01 8.41 115.01 8.41 115.03 8.34 115.03 8.34 116.09 4.82 121.37 4.82 123.62 19.27"/>
    <polygon class="cls-1" points="68.91 9.56 68.9 9.6 68.9 9.6 68.9 9.65 68.9 9.65 68.9 9.7 68.9 9.74 68.9 9.74 68.89 9.79 68.89 9.83 68.89 9.83 68.88 9.87 68.88 9.87 68.87 9.92 68.86 9.96 68.86 9.96 68.85 10 68.84 10.04 68.83 10.08 68.83 10.08 68.81 10.12 68.8 10.16 68.78 10.19 68.78 10.19 68.77 10.23 68.75 10.27 68.73 10.3 68.71 10.33 68.69 10.37 68.69 10.37 68.67 10.4 68.64 10.43 68.62 10.46 68.59 10.49 68.57 10.52 68.54 10.55 68.51 10.58 68.48 10.61 68.48 10.61 68.45 10.64 68.42 10.66 68.39 10.69 68.35 10.71 68.32 10.73 68.28 10.76 68.28 10.76 68.25 10.78 68.21 10.8 68.17 10.82 68.13 10.84 68.09 10.86 68.04 10.88 68 10.9 67.95 10.91 67.91 10.93 67.86 10.95 67.86 10.95 67.81 10.96 67.81 10.96 67.76 10.97 67.71 10.99 67.71 10.99 67.66 11 67.61 11.01 67.56 11.02 67.5 11.03 67.45 11.04 67.39 11.05 67.39 11.05 67.33 11.06 67.33 11.06 67.27 11.07 67.27 11.07 67.21 11.07 67.15 11.08 67.09 11.08 67.09 11.08 67.03 11.09 66.96 11.09 66.9 11.09 66.83 11.1 66.77 11.1 66.7 11.1 65.53 11.1 65.53 7.99 66.7 7.99 66.76 7.99 66.83 7.99 66.9 7.99 66.96 7.99 67.03 8 67.09 8 67.15 8.01 67.21 8.01 67.27 8.02 67.33 8.03 67.39 8.03 67.45 8.04 67.5 8.05 67.56 8.06 67.61 8.07 67.66 8.09 67.71 8.1 67.76 8.11 67.81 8.13 67.86 8.14 67.91 8.16 67.95 8.17 68 8.19 68.04 8.21 68.09 8.23 68.13 8.25 68.17 8.27 68.21 8.29 68.25 8.31 68.28 8.33 68.32 8.36 68.35 8.38 68.39 8.4 68.42 8.43 68.45 8.46 68.48 8.48 68.51 8.51 68.54 8.54 68.57 8.57 68.59 8.6 68.62 8.63 68.64 8.66 68.67 8.7 68.69 8.73 68.71 8.76 68.73 8.8 68.75 8.83 68.75 8.83 68.77 8.87 68.78 8.91 68.8 8.94 68.81 8.98 68.81 8.98 68.83 9.02 68.84 9.06 68.85 9.1 68.86 9.15 68.87 9.19 68.87 9.19 68.88 9.23 68.88 9.23 68.89 9.28 68.89 9.32 68.89 9.32 68.9 9.37 68.9 9.41 68.9 9.41 68.9 9.46 68.9 9.46 68.9 9.51 68.91 9.55 68.91 9.56"/>
    <polygon class="cls-3" points="102.53 14.58 96.19 14.58 96.19 4.82 91.23 4.82 91.23 19.27 102.53 19.27 102.53 14.58"/>
    <g>
      <path class="cls-1" d="M84.89,11.97v-.09s0-.05,0-.05v-.04s0-.05,0-.05v-.04s0-.05,0-.05v-.04s0-.04,0-.04v-.04s0-.04,0-.04v-.04s-.01-.04-.01-.04v-.04s-.01-.04-.01-.04v-.04s-.01-.04-.01-.04v-.04s-.02-.04-.02-.04v-.04s-.02-.04-.02-.04v-.04s-.02-.04-.02-.04v-.04s-.02-.04-.02-.04v-.04s-.02-.04-.02-.04v-.04s-.02-.04-.02-.04h0s-.01-.04-.01-.04v-.04s-.03-.04-.03-.04v-.04s-.03-.04-.03-.04l-.02-.04v-.04s-.03-.04-.03-.04l-.02-.03h0s-.02-.04-.02-.04l-.02-.03-.02-.04-.02-.03-.02-.03-.02-.03h0s-.02-.03-.02-.03h0s-.02-.03-.02-.03h0s-.02-.03-.02-.03l-.02-.03-.02-.03-.02-.03h0s-.02-.03-.02-.03l-.02-.03-.02-.03-.02-.03-.02-.03-.02-.03-.02-.03-.02-.03-.03-.03-.02-.03-.03-.03-.03-.03-.03-.03-.03-.03c-.29-.29-.62-.52-1-.66-.38-.15-.79-.22-1.25-.22h-.04s-.04,0-.04,0h-.08s-.04,0-.04,0h-.04s-.04,0-.04,0h-.04s-.04,0-.04,0h-.04s-.04,0-.04,0h-.04s-.04.01-.04.01h-.04s-.04.01-.04.01h-.04s-.04.01-.04.01h-.04s-.04.02-.04.02h-.04s-.04.02-.04.02h-.04s-.04.02-.04.02h-.04s-.04.02-.04.02h-.04s-.04.02-.04.02h-.04s-.04.02-.04.02h-.04s-.04.03-.04.03h-.03s-.04.03-.04.03h-.04s-.04.03-.04.03l-.03.02-.03.02-.03.02-.03.02-.03.02-.03.02-.03.02-.03.02-.03.02-.03.02-.03.02-.03.02-.03.02h0s-.03.02-.03.02h0s-.03.02-.03.02l-.03.02-.03.02-.03.02-.03.02-.03.02-.03.02-.03.02-.03.03-.03.03-.03.03-.03.03-.03.03-.03.03h0s-.03.03-.03.03l-.03.03-.03.03-.03.03-.03.03-.03.03h0s-.02.03-.02.03l-.03.03-.02.03-.02.03-.02.03-.02.03-.02.03-.02.03-.02.03-.02.03-.02.03-.02.03-.02.03-.02.03-.02.03-.02.03-.02.03-.02.04-.02.03-.02.03-.02.04-.02.03-.02.04v.04s-.03.04-.03.04v.04s-.03.04-.03.04h0s-.01.04-.01.04v.04s-.01,0-.01,0v.04s-.02.04-.02.04v.04s-.02.04-.02.04v.04s-.01,0-.01,0v.04s-.02.04-.02.04v.04s-.02.04-.02.04v.04s-.02.04-.02.04h0s0,.04,0,.04v.04s0,0,0,0v.04s-.01.04-.01.04v.04s-.01.04-.01.04v.04s-.01.04-.01.04v.04s0,.04,0,.04v.04s0,0,0,0v.04s0,.04,0,.04v.04s0,.04,0,.04v.04s0,.04,0,.04v.05s0,.04,0,.04c0,.49.07.92.22,1.31.15.39.37.73.66,1.03.29.29.63.52,1.01.66.38.15.79.22,1.25.22h.08s.04,0,.04,0h.04s.04,0,.04,0h.04s.04,0,.04,0h.04s.04,0,.04,0h.04s.04,0,.04,0h.04s.04,0,.04,0h.04s.04-.01.04-.01h.04s.04-.01.04-.01h0s.04,0,.04,0h.04s.04-.02.04-.02h.04s.04-.02.04-.02h.04s.04-.02.04-.02h.04s.04-.02.04-.02h.04s.04-.02.04-.02h.04s.04-.03.04-.03h.04s.04-.03.04-.03h.04s.03-.03.03-.03l.04-.02.03-.02.03-.02.03-.02.03-.02.03-.02.03-.02.03-.02h0s.03-.02.03-.02l.03-.02h0s.03-.02.03-.02l.03-.02.03-.02.03-.02.03-.02.03-.02.03-.02.03-.02.03-.02.03-.02.03-.02.03-.02.03-.02.03-.02.03-.03.03-.03.03-.03.03-.03.03-.03.03-.03c.29-.29.51-.64.65-1.03.14-.39.22-.83.22-1.31"/>
      <path class="cls-2" d="M72.43,12.53h0s-.02.03-.04.04c-.01.01-.02.03-.04.04l.07-.08Z"/>
    </g>
    <path class="cls-3" d="M11.04,1.52L0,10.19v2.66L11.26,4l51.45,21.36,2.52-1.19L11.04,1.52ZM119.16,48.79l2.51-1.19,22.34,9.31-2.5,1.2-22.36-9.32Z"/>
    <path class="cls-1" d="M67.73,9.55h0c0-.05,0-.09-.01-.12,0-.03-.02-.05-.03-.06h0c-.08-.06-.2-.1-.37-.13-.16-.03-.37-.04-.61-.04v.68c.25,0,.45-.02.62-.05.16-.03.29-.07.37-.13.01,0,.02-.03.02-.05,0-.03,0-.06,0-.1"/>
  </g>
</svg>