<?xml version="1.0" encoding="UTF-8"?>
<svg id="Ebene_2" data-name="Ebene 2" xmlns="http://www.w3.org/2000/svg" viewBox="0 0 121.07 106.61">
  <defs>
    <style>
      .cls-1 {
        fill: none;
      }

      .cls-2 {
        fill: #fff;
      }

      .cls-3 {
        fill: #4a4a49;
      }
    </style>
  </defs>
  <g id="Ebene_1-2" data-name="Ebene 1">
    <g>
      <path class="cls-3" d="M98.91,53.3c0-21.2-17.18-38.38-38.38-38.38S22.15,32.11,22.15,53.3s17.18,38.38,38.38,38.38,38.38-17.18,38.38-38.38"/>
      <path class="cls-2" d="M91.87,46.81c-.4-1.74-3.59-2.47-5.35-2.74-2.28-.34-6.04-.15-6.04-.15l-11.47-19.63s-7.92-.27-16.75,3.96c-3.15,1.51-6.24,4.07-8.87,6.69-.88.88-2.56,1.9-5.12,2.13-1.68.15-4.51.61-6.39,2.58-1.01,1.07-1.41,2.7-1.19,3.58-.51,1.18-.52,2.29-.05,2.81.69.74,1.73,1.25,3.67,1.85l-.29-3.71s-1.38-.71-1.55-1.6c-.12-.62.49-1.74,1.5-2.32,1.28-.73,3.82-.99,3.82-.99l-3.38,19,2.7-.51,2.36.69,2.92-4.42,5.5,3.97.38,10.58,2.83-.53,2.71.69,4.15-8.82h2.75l3.34,3.3h8.38l1.4-1.39,8.2,6.93,2.72-.57,3.53.48-7.28-13.94,3.6-3.66s-.83-1.45-1.16-2.04c3.77-.32,4.94.42,5.32,1.02.6.94-.14,2.17-.14,2.17,0,0,1.69-1.57,2.17-2.27.4-.58,1.42-1.61,1.07-3.12M62.83,49.2c-.6.38-2.51-.13-2.97-.19-.63-.08-3.82-.43-4.99-.03-1.04.36-1.82.85-1.83,1.69-.02.86.36,1.35.36,1.35,0,0-2.02-2.02-2.48-2.79-.33-.57-.82-1.62-.69-2.19.14-.57.39-1.6,2.68-2.41,2.29-.81,5.5-.82,6.1-.82s3.59.11,3.94.34c.32.22.55,1.77.57,2.53.02.79-.08,2.14-.68,2.52"/>
      <path class="cls-2" d="M39.87,81.86h2.85v-2.8h1.32c2.13,0,3.63-1.05,3.63-3.29,0-1.32-.88-3.16-3.4-3.16h-4.41v9.26ZM42.72,74.97h.91c.7,0,1.35.05,1.35.9,0,.93-.78.99-1.52.99h-.74v-1.88Z"/>
      <path class="cls-2" d="M48.12,81.86h2.85v-3.23h1.52c1.13,0,1.21.92,1.28,1.8.04.48.09.96.23,1.43h2.85c-.26-.43-.27-1.53-.31-1.98-.1-1.16-.58-2.01-1.36-2.31.95-.35,1.39-1.36,1.39-2.32,0-1.75-1.4-2.65-3.02-2.65h-5.43v9.26ZM50.97,74.8h1.34c1.09,0,1.41.34,1.41.92,0,.83-.73.92-1.26.92h-1.49v-1.84Z"/>
      <polygon class="cls-2" points="57.45 72.6 65.12 72.6 65.12 74.97 60.3 74.97 60.3 76.13 64.68 76.13 64.68 78.33 60.3 78.33 60.3 79.49 65.26 79.49 65.26 81.86 57.45 81.86 57.45 72.6"/>
      <polygon class="cls-2" points="66.04 72.6 73.41 72.6 73.41 74.97 68.89 74.97 68.89 76.13 72.15 76.13 72.15 78.33 68.89 78.33 68.89 81.86 66.04 81.86 66.04 72.6"/>
      <path class="cls-2" d="M71.44,81.86h2.86l.42-1.32h2.94l.39,1.32h2.96l-3.37-9.26h-2.79l-3.41,9.26ZM75.35,78.55l.89-2.85h.03l.83,2.85h-1.75Z"/>
    </g>
    <rect class="cls-1" width="121.07" height="106.61"/>
  </g>
</svg>