<?xml version="1.0" encoding="UTF-8"?>
<svg id="Ebene_2" data-name="Ebene 2" xmlns="http://www.w3.org/2000/svg" viewBox="0 0 338.33 144.96">
  <defs>
    <style>
      .cls-1 {
        fill: none;
      }

      .cls-2 {
        fill: #4a4a49;
      }
    </style>
  </defs>
  <g id="Ebene_1-2" data-name="Ebene 1">
    <g>
      <path class="cls-2" d="M31.28,44.92c2.36-.45,5.84-.74,9.79-.74,4.82,0,8.2.74,10.51,2.67,1.98,1.58,3.04,3.9,3.04,6.97,0,4.2-2.94,7.11-5.74,8.15v.15c2.27.94,3.52,3.11,4.34,6.18,1.01,3.8,1.98,8.15,2.61,9.44h-7.52c-.48-.99-1.3-3.66-2.22-7.76-.92-4.2-2.32-5.29-5.35-5.34h-2.17v13.09h-7.28v-32.81h0ZM38.56,59.2h2.89c3.67,0,5.84-1.88,5.84-4.79s-2.02-4.59-5.4-4.59c-1.78,0-2.8.1-3.33.25v9.14ZM78.94,71.9c0,2.27.1,4.5.39,5.83h-6.61l-.43-2.42h-.14c-1.54,1.93-3.96,2.97-6.75,2.97-4.77,0-7.62-3.56-7.62-7.41,0-6.27,5.5-9.24,13.84-9.24v-.3c0-1.28-.67-3.11-4.29-3.11-2.41,0-4.97.84-6.51,1.78l-1.35-4.79c1.64-.94,4.87-2.18,9.16-2.18,7.86,0,10.32,4.74,10.32,10.43v8.45h0ZM71.85,66.32c-3.86,0-6.85.94-6.85,3.8,0,1.93,1.25,2.86,2.89,2.86,1.78,0,3.33-1.23,3.81-2.77.1-.39.14-.84.14-1.29v-2.62ZM91.96,47v6.57h5.26v5.54h-5.26v8.74c0,2.91.72,4.25,2.89,4.25,1.01,0,1.49-.05,2.17-.2l.05,5.68c-.92.35-2.7.64-4.73.64-2.36,0-4.34-.84-5.55-2.07-1.35-1.43-2.03-3.75-2.03-7.17v-9.88h-3.14v-5.54h3.14v-4.55l7.19-2.03ZM101.03,42.6h7.33v13.88h.1c.77-1.09,1.74-1.93,2.89-2.52,1.11-.59,2.46-.94,3.81-.94,4.68,0,8.25,3.31,8.25,10.62v14.08h-7.33v-13.29c0-3.16-1.06-5.34-3.81-5.34-1.93,0-3.14,1.28-3.67,2.67-.19.45-.24,1.09-.24,1.63v14.33h-7.33v-35.13h0ZM128.52,71.16c1.35.84,4.15,1.78,6.32,1.78s3.14-.74,3.14-1.98-.72-1.88-3.42-2.77c-4.92-1.68-6.8-4.4-6.75-7.21,0-4.54,3.76-7.95,9.6-7.95,2.75,0,5.16.69,6.61,1.43l-1.25,5.14c-1.06-.54-3.14-1.34-5.11-1.34-1.78,0-2.8.74-2.8,1.93s.92,1.78,3.81,2.77c4.49,1.58,6.32,3.9,6.37,7.41,0,4.55-3.42,7.86-10.18,7.86-3.09,0-5.84-.74-7.62-1.73l1.3-5.34ZM167.21,77.09c-1.3.64-3.76,1.14-6.56,1.14-7.62,0-12.49-4.79-12.49-12.35,0-7.02,4.73-12.8,13.5-12.8,1.93,0,4.05.34,5.59.94l-1.16,5.58c-.87-.4-2.17-.74-4.1-.74-3.86,0-6.37,2.82-6.32,6.72,0,4.45,2.89,6.77,6.46,6.77,1.74,0,3.09-.3,4.2-.79l.87,5.54ZM171.65,42.6h7.33v13.88h.1c.77-1.09,1.74-1.93,2.89-2.52,1.11-.59,2.46-.94,3.81-.94,4.68,0,8.25,3.31,8.25,10.62v14.08h-7.33v-13.29c0-3.16-1.06-5.34-3.81-5.34-1.93,0-3.14,1.28-3.67,2.67-.19.45-.24,1.09-.24,1.63v14.33h-7.33v-35.13ZM204.49,68.05c.24,3.11,3.23,4.59,6.66,4.59,2.51,0,4.53-.35,6.51-1.04l.96,5.09c-2.41,1.04-5.35,1.53-8.54,1.53-8.01,0-12.59-4.74-12.59-12.3,0-6.13,3.76-12.9,11.91-12.9,7.62,0,10.51,6.08,10.51,12.06,0,1.29-.14,2.42-.24,2.97h-15.19ZM213.12,62.91c0-1.83-.77-4.89-4.1-4.89-3.14,0-4.39,2.91-4.58,4.89h8.68ZM242.79,77.09c-1.3.64-3.76,1.14-6.56,1.14-7.62,0-12.49-4.79-12.49-12.35,0-7.02,4.73-12.8,13.5-12.8,1.93,0,4.05.34,5.59.94l-1.16,5.58c-.87-.4-2.17-.74-4.1-.74-3.86,0-6.37,2.82-6.32,6.72,0,4.45,2.89,6.77,6.46,6.77,1.74,0,3.09-.3,4.2-.79l.87,5.54ZM254.56,63.75h.1c.53-1.04,1.11-2.02,1.69-2.91l4.77-7.26h8.83l-8.44,9.78,9.65,14.38h-9.02l-5.74-9.93-1.83,2.37v7.56h-7.33v-35.13h7.33v21.15h0Z"/>
      <g>
        <path class="cls-2" d="M31.01,97.99c.97.54,2.5,1.03,4,1.03,1.76,0,2.68-.81,2.68-2s-.84-1.84-2.76-2.68c-2.79-1.22-4.42-2.98-4.42-5.34,0-3.06,2.34-5.44,6.36-5.44,1.76,0,3.1.38,4,.84l-.79,3.22c-.63-.32-1.76-.79-3.26-.79-1.66,0-2.45.87-2.45,1.81,0,1.14.84,1.65,3.02,2.65,2.89,1.27,4.16,3.01,4.16,5.39,0,3.14-2.29,5.6-6.73,5.6-1.84,0-3.66-.51-4.52-1l.71-3.3ZM75.93,101.62c-.66.33-2.13.68-3.97.68-5.65,0-8.52-3.93-8.52-9.13,0-6.42,4.13-9.61,8.92-9.61,1.81,0,3.18.38,3.79.7l-.76,3.17c-.66-.33-1.6-.6-2.84-.6-2.79,0-5.05,1.92-5.05,6.12,0,3.87,1.95,5.99,5.08,5.99,1.03,0,2.16-.22,2.84-.49l.53,3.17Z"/>
        <polygon class="cls-2" points="102.28 83.8 102.28 90.92 107.98 90.92 107.98 83.8 111.82 83.8 111.82 102.05 107.98 102.05 107.98 94.42 102.28 94.42 102.28 102.05 98.44 102.05 98.44 83.8 102.28 83.8"/>
        <polygon class="cls-2" points="138.36 83.8 138.36 102.05 134.51 102.05 134.51 83.8 138.36 83.8"/>
        <polygon class="cls-2" points="170.68 94.23 164.89 94.23 164.89 98.78 171.36 98.78 171.36 102.05 161.05 102.05 161.05 83.8 170.99 83.8 170.99 87.08 164.89 87.08 164.89 91.01 170.68 91.01 170.68 94.23"/>
        <polygon class="cls-2" points="194.05 83.8 203.94 83.8 203.94 87.08 197.89 87.08 197.89 91.44 203.55 91.44 203.55 94.66 197.89 94.66 197.89 102.06 194.05 102.06 194.05 83.8"/>
        <polygon class="cls-2" points="236.26 94.23 230.48 94.23 230.48 98.78 236.94 98.78 236.94 102.05 226.64 102.05 226.64 83.8 236.58 83.8 236.58 87.08 230.48 87.08 230.48 91.01 236.26 91.01 236.26 94.23"/>
        <path class="cls-2" d="M259.64,84.05c1.24-.22,2.97-.38,4.87-.38,2.39,0,4.21.38,5.42,1.41,1.08.92,1.58,2.19,1.58,3.85,0,2.22-1.39,3.87-3.02,4.52v.08c1.24.51,1.89,1.71,2.31,3.47.5,2.03,1,4.36,1.34,5.07h-3.95c-.26-.51-.68-2.09-1.13-4.28-.42-2.28-1.13-2.9-2.6-2.9h-1v7.18h-3.81v-18.01h0ZM263.45,91.98h1.29c1.84,0,2.92-1.11,2.92-2.71,0-1.68-.95-2.6-2.71-2.63-.76,0-1.24.05-1.5.14v5.2Z"/>
      </g>
      <g>
        <path class="cls-2" d="M301.9,69.45c0,5.9-2.54,11.22-6.63,15.02l4.38,4.22c5.21-4.88,8.44-11.7,8.44-19.24,0-14.83-12.49-26.85-27.9-26.85v5.97c11.99,0,21.7,9.35,21.7,20.89Z"/>
        <polygon class="cls-2" points="280.2 78.41 280.2 86.84 296.23 102.28 305 102.28 280.2 78.41"/>
      </g>
    </g>
    <rect class="cls-1" width="338.33" height="144.96"/>
  </g>
</svg>