<?xml version="1.0" encoding="UTF-8"?>
<svg id="Ebene_2" data-name="Ebene 2" xmlns="http://www.w3.org/2000/svg" viewBox="0 0 245.9 91.97">
  <defs>
    <style>
      .cls-1 {
        fill: none;
      }

      .cls-2 {
        stroke: #fff;
        stroke-miterlimit: 3.86;
        stroke-width: .02px;
      }

      .cls-2, .cls-3, .cls-4 {
        fill: #4a4a49;
      }

      .cls-3 {
        fill-rule: evenodd;
      }
    </style>
  </defs>
  <g id="Ebene_1-2" data-name="Ebene 1">
    <path class="cls-4" d="M28.82,55.04h5.07v-11.63c.09-.79.74-1.39,1.53-1.42h5.44s-6.01,7.98-6.01,7.98v5.07h12.08s0-5.07,0-5.07h-5.8l5.8-7.98v-5.07h-10.03c-1.28.07-2.42.83-2.96,1.98l-.05.1v-2.09s-5.07,0-5.07,0v18.12Z"/>
    <path class="cls-2" d="M28.82,55.04h5.07v-11.63c.09-.79.74-1.39,1.53-1.42h5.44s-6.01,7.98-6.01,7.98v5.07h12.08s0-5.07,0-5.07h-5.8l5.8-7.98v-5.07h-10.03c-1.28.07-2.42.83-2.96,1.98l-.05.1v-2.09s-5.07,0-5.07,0v18.12Z"/>
    <path class="cls-3" d="M22.32,30.42h31.13v31.13h-31.13v-31.13ZM25.58,33.69h24.6v24.6h-24.6v-24.6Z"/>
    <path class="cls-3" d="M65.85,40.41h.47c1.57,0,3.34.29,3.34,2.31s-1.77,2.31-3.34,2.31h-.47v-4.61M70.61,47.65c2.48-.46,4.22-2.71,4.05-5.23,0-3.95-2.77-5.69-6.43-5.69h-7.19v18.51h4.81v-7.12h.05l4.54,7.12h5.99l-5.82-7.58Z"/>
    <polyline class="cls-4" points="84.1 43.87 84.1 36.73 79.29 36.73 79.29 55.24 84.1 55.24 84.1 47.65 91.05 47.65 91.05 55.24 95.86 55.24 95.86 36.73 91.05 36.73 91.05 43.87 84.1 43.87"/>
    <polyline class="cls-4" points="111.1 40.8 111.1 36.73 100.57 36.73 100.57 55.24 111.1 55.24 111.1 51.16 105.38 51.16 105.38 47.97 110.81 47.97 110.81 43.9 105.38 43.9 105.38 40.8 111.1 40.8"/>
    <rect class="cls-4" x="115.64" y="36.73" width="4.81" height="18.51"/>
    <polyline class="cls-4" points="125.17 55.24 129.98 55.24 129.98 43.9 130.03 43.9 138.84 55.24 143.65 55.24 143.65 36.73 138.84 36.73 138.84 48.05 138.79 48.05 129.98 36.73 125.17 36.73 125.17 55.24"/>
    <polyline class="cls-4" points="155.17 51.16 163.88 36.73 148.56 36.73 148.56 40.8 155.83 40.8 147.07 55.24 162.92 55.24 162.92 51.16 155.17 51.16"/>
    <rect class="cls-4" x="167.29" y="36.73" width="4.81" height="18.51"/>
    <polyline class="cls-4" points="176.82 55.24 181.63 55.24 181.63 43.9 181.68 43.9 190.49 55.24 195.3 55.24 195.3 36.73 190.49 36.73 190.49 48.05 190.44 48.05 181.63 36.73 176.82 36.73 176.82 55.24"/>
    <polyline class="cls-4" points="204.87 44.36 204.82 44.36 204.82 36.73 200.01 36.73 200.01 55.24 204.82 55.24 204.82 47.21 204.87 47.21 211.08 55.24 217.32 55.24 209.29 45.49 216.65 36.73 210.69 36.73 204.87 44.36"/>
    <path class="cls-3" d="M220.31,37.9v-.75h.78c.32,0,.71.05.71.36,0,.47-.64.4-1,.4h-.49M221.29,38.31c.52-.01.92-.22.92-.8,0-.63-.51-.77-1.04-.77h-1.27v2.92h.41v-1.35h.49l.88,1.35h.49l-.88-1.35ZM220.9,40.47c-1.25,0-2.25-1.02-2.24-2.27,0-1.25,1.02-2.25,2.27-2.24,1.24,0,2.24,1.02,2.24,2.26-.01,1.25-1.02,2.25-2.27,2.26h0ZM220.9,40.88c1.47,0,2.66-1.21,2.65-2.68,0-1.47-1.21-2.66-2.68-2.65-1.47,0-2.65,1.2-2.65,2.67,0,1.47,1.18,2.66,2.65,2.67.01,0,.02,0,.04,0h0Z"/>
    <rect class="cls-1" width="245.9" height="91.97"/>
  </g>
</svg>