<?xml version="1.0" encoding="UTF-8"?>
<svg id="Ebene_2" data-name="Ebene 2" xmlns="http://www.w3.org/2000/svg" viewBox="0 0 2314.74 691.48">
  <defs>
    <style>
      .cls-1 {
        fill: none;
      }

      .cls-2 {
        fill: #4a4a49;
        fill-rule: evenodd;
      }
    </style>
  </defs>
  <g id="Ebene_1-2" data-name="Ebene 1">
    <g id="g10">
      <g id="g12">
        <g id="g14">
          <path id="path16" class="cls-2" d="M2127.04,145.3c30.35,0,20.42,28.7,20.42,28.7l-51.56,149.02c-3.9-66.93-23.54-86.66-101.47-86.66-88.57,0-101.1,34.26-101.1,112.82,0,84.81,17.13,111.55,101.1,111.55,21.25,0,39.79-.46,55.13-3.67l-21.07,60.88c-9.93,28.68-40.27,28.68-40.27,28.68h-162.61c29.11-11.91,39.72-37.73,39.72-88.81v-218.93h-52.63l2.07,32.99h-1.68c-13.37-28.81-37.59-35.51-68.51-35.51-81.46,0-83.97,51.39-83.97,118.66s8.76,105.71,83.97,105.71c26.73,0,54.74-5.02,68.51-33.85h1.26v41.79c0,37.61-9.59,46.78-54.31,46.78-29.66,0-40.94-4.57-40.94-34.66h-49.31c-1.9,37.3,10.28,56.32,30.94,65.83h-534.53c-30.37,0-20.44-28.68-20.44-28.68l51.14-147.85c3.11,68.26,24.03,90.64,100.62,90.64,62.68,0,102.36-3.33,102.36-72.28h-52.64c0,32.59-20.48,32.16-49.72,32.16-47.21,0-48.46-15.03-48.46-62.23h150.82c0-95.68-12.1-122.02-102.36-122.02-24.46,0-42.98,2.72-57.18,8.19l24.4-70.56c9.92-28.69,40.29-28.69,40.29-28.69h274.94v122.82h-2.1c-11.28-26.74-39.27-31.76-66-31.76-75.22,0-84,41.37-84,105.71s2.52,118.66,84,118.66c30.91,0,55.15-6.69,68.51-35.51h1.66l-2.07,33h52.64V145.3h494.43ZM1347.24,324.94h-98.18c0-38.85,2.91-48.47,48.46-48.47,43.04,0,49.72,3.35,49.72,48.47ZM1527.32,420.61c-48.05,0-46.79-28.82-46.79-78.54,0-55.15,10.44-65.6,46.79-65.6,45.53,0,51.8,18.82,51.8,65.6,0,52.23,2.1,78.54-51.8,78.54ZM1760.04,420.61c-46.78,0-46.78-28.82-46.78-78.54,0-55.15,10.44-65.6,46.78-65.6,45.54,0,52.66,18.82,52.66,65.6,0,52.23,0,78.54-52.66,78.54ZM1994.43,276.47c43.04,0,49.72,3.34,49.72,48.47h-98.18c0-38.87,2.92-48.47,48.46-48.47ZM2044.15,388.45c0,32.59-20.48,32.16-49.72,32.16-47.21,0-48.46-15.03-48.46-62.23h137.72l-10.39,30.07h-29.15Z"/>
        </g>
        <path id="path18" class="cls-2" d="M307.36,298.61c0-26.32-13.79-26.32-41.8-26.32s-47.2,0-47.2,28.84c0,21.73,5.85,22.56,51.81,24.64,51.81,2.52,97.76-1.24,97.76,69.79,0,59.33-46.8,65.17-102.37,65.17-59.73,0-99.84,0-99.84-71.42h52.64c.82,31.73,8.36,35.5,47.2,35.5,31.35,0,49.73.83,49.73-29.25,0-19.22-1.25-28.83-54.32-29.68-80.64-1.24-95.25-12.11-95.25-68.09,0-60.16,43.45-61.43,99.84-61.43,43.06,0,94.44.83,94.44,62.25h-52.64ZM502.46,236.36c91.51,0,103.22,27.16,103.22,112.41s-11.71,111.96-103.22,111.96-103.18-27.16-103.18-111.96,11.69-112.41,103.18-112.41ZM451.9,349.19c0,58.47,3.78,71.42,50.56,71.42s50.56-12.95,50.56-71.42-3.77-72.72-50.56-72.72-50.56,13.38-50.56,72.72ZM703.01,458.22h-52.63V144.86h52.63v313.36ZM898.55,430.66h-1.25c-10.45,29.24-42.63,30.07-68.1,30.07-49.73,0-81.89-10.43-81.89-69.76,0-52.66,27.56-67.28,81.89-67.28,26.74,0,53.06.42,65.59,25.08h1.67v-28.42c0-35.52-2.92-48.06-46.79-48.06-22.99,0-41.37,2.09-41.37,30.51h-52.65c0-63.93,43.87-66.44,94.02-66.44,70.19,0,99.43,10.88,99.43,84.41v137.45h-52.64l2.09-27.56ZM799.94,390.97c0,30.91,12.55,33.84,48.04,33.84,28.02,0,48.48-2.51,48.48-33.84s-22.56-31.35-48.48-31.35-48.04,0-48.04,31.35ZM997.56,238.87h51.4l-1.26,28.84h2.09c10.44-24.24,33-31.35,58.49-31.35,46.39,0,57.66,27.58,57.66,68.94v17.56h-49.29v-11.3c0-22.13-2.09-35.09-26.75-35.09-31.34,0-40.53,17.97-39.7,46.39v135.36h-52.64v-219.35Z"/>
      </g>
    </g>
    <rect class="cls-1" width="2314.74" height="691.48"/>
  </g>
</svg>