<?xml version="1.0" encoding="UTF-8"?>
<svg id="Ebene_2" data-name="Ebene 2" xmlns="http://www.w3.org/2000/svg" viewBox="0 0 190.57 86.07">
  <defs>
    <style>
      .cls-1 {
        fill: none;
      }

      .cls-2 {
        fill: #6d6d6d;
      }
    </style>
  </defs>
  <g id="Ebene_1-2" data-name="Ebene 1">
    <path class="cls-2" d="M119.59,17.54h1v50.5h-1V17.54ZM95.49,68.04h1V17.54h-1v50.5ZM71.19,17.54h1v50.5h-.6s-4.2.2-5.2-.5c-.4-.3-1.1-1.2-1.8-3.1l-1.5-5.3c-.4-1.7-2.1-3.2-3.1-3.2h-3v9.3c0,1.6,2.4,1.8,2.4,1.8v1s-2.7-.1-4.1-.1-4.1.1-4.1.1v-1s2.3-.2,2.3-1.8v-20c0-.5-.3-1-.8-1.2l-1.5-.6v-1.2s4.9.1,6.1.1h4.7c4.2,0,5.9,3.1,5.9,6.2,0,4.3-3.1,5.8-5.3,6.7,2.7.8,3.6,2.6,4.6,5l1.3,4c.2.6.5,1.2.8,1.8.2.5,1.1.9,1.9,1,0,0,0-49.5,0-49.5ZM64.29,48.64c0-2.6-1.9-4.9-3.7-4.9h-2.2c-.7,0-1.4.6-1.4,1.5v9.6h3c.7-.1,4.3-.6,4.3-6.2ZM46.99,68.04h1V17.54h-1v50.5ZM113.89,55.24c-2.6-1.5-5-2.8-7.6-4.1-1-.5-2.4-1.9-2.4-3.7,0-2.8,2.8-4,4.6-4,3.3,0,5.2,2.7,5.2,5.8h1.6v-6.2c-3-.7-5.7-.9-6.8-.9-4.3,0-7.9,2-7.9,6.9,0,2.1.8,3.4,2.3,4.9,2,1.9,5.6,2.6,8.7,4.8,2,1.4,2.2,3.5,2.2,3.8,0,1.7-1.3,4.5-5.3,4.5-2.8,0-6-1.3-6-7h-2v6.4s3.8,2.2,8.1,2.2,8.6-2.1,8.6-7.1c-.2-3.5-2.1-5.6-3.3-6.3h0ZM165.29,68.04s-2.3-.2-4-.2-4,.2-4,.2v-1c.9,0,2.4-.6,1.9-1.8l-2-6.6h-6.7l-2.2,6.6c-.2.7.5,1.8,1.9,1.8v1s-1.8-.2-3.2-.2c-.9,0-1.7.1-2.3.1l-.9.1V17.54h1v49.1c1.4-.9,2.2-2.8,2.5-3.7l7.2-21.1h1.3l7.1,23.4c.4,1.1,1.1,1.5,2.3,1.8.1,0,.1,1,.1,1h0ZM156.79,56.94l-2.6-8.8-3,8.8h5.6ZM25.79,42.24l-.5,6.8h1.4c.2-1,.2-1.9.7-2.8.2-.4.4-.7.7-1,.5-.5,1.1-.9,1.8-1,1.2-.3,2.5-.4,3.6-.4v21.6c0,.9-1.3,1.6-2.6,1.6v1.2c1-.1,3-.2,4.3-.2s3.3.2,4.3.2v-1.2c-1.3,0-2.6-.7-2.6-1.6v-21.6c1.2,0,2.5.1,3.6.4.7.2,1.3.6,1.8,1,.3.3.5.7.7,1,.5.9.5,1.8.7,2.8h1.4l-.5-6.8s-18.8,0-18.8,0ZM86.79,66.54h-2.8c-1.2,0-2.1-.3-2.1-1.5v-9.8h3c2.3,0,2.7.9,2.7,3.6h1.4s-.2-3.4-.2-4.3c0-.8.2-4.3.2-4.3h-1.4c0,2.7-.4,3.6-2.7,3.6h-3v-8.5c0-1.3,1.1-1.6,2-1.6h1.9c1,0,4.3.3,4.3,4.5h1.3l-.3-6.1s-5.7.2-7.1.2c-1.3,0-7.9-.2-7.9-.2v1.2l1.5.6c.5.2.8.7.8,1.2v20c0,1.6-2.3,1.8-2.3,1.8v1s6.7-.1,8.1-.1,8,.1,8,.1l1-7h-1.3c-.5,3.6-2.7,5.6-5.1,5.6ZM141.89,50.24c0,5.7-4.9,7.5-7.4,7.5-1.6,0-3.8-.2-4.5-.3v7.8c0,1.6,2.4,1.8,2.4,1.8v1s-2.7-.1-4.1-.1-4.1.1-4.1.1v-1s2.3-.2,2.3-1.8v-20c0-.5-.3-1-.8-1.2l-1.5-.6v-1.2s2.6.2,3.4.2c.9,0,5.5-.2,5.5-.2,3.4,0,8.8.2,8.8,8ZM138.19,50.24c0-1.3-.6-6.4-4.4-6.4h-1.2c-1,0-2.5.5-2.5,1.4v10.8s2.2.4,3.2.4c.5-.1,4.9-.6,4.9-6.2ZM158.89,39.54c0-1.7,1.4-3,3.1-3s3.1,1.4,3.1,3c0,1.7-1.4,3-3.1,3s-3.1-1.4-3.1-3ZM159.39,39.54c0,1.4,1.1,2.5,2.5,2.5s2.5-1.1,2.5-2.5-1.1-2.5-2.5-2.5c-1.3,0-2.5,1.1-2.5,2.5ZM161.49,41.04h-.6v-3.2h.7c.4,0,.8,0,1.2.2s.6.5.6.8c0,.5-.4.8-1.1.9l1.4,1.4h-.7l-1.3-1.4h-.2v1.3h0ZM161.49,39.34h.2c.6,0,1.2-.1,1.2-.6s-.7-.6-1.2-.6h-.1v1.2h-.1Z"/>
    <rect class="cls-1" width="190.57" height="86.07"/>
  </g>
</svg>