<?xml version="1.0" encoding="UTF-8"?>
<svg id="Ebene_2" data-name="Ebene 2" xmlns="http://www.w3.org/2000/svg" viewBox="0 0 226 100">
  <defs>
    <style>
      .cls-1 {
        fill: none;
      }

      .cls-2 {
        fill: #4a4a49;
      }
    </style>
  </defs>
  <g id="Ebene_1-2" data-name="Ebene 1">
    <path class="cls-2" d="M13,30.05h13.25l7.02,26.55,7.28-26.55h13.25l-13.91,39.89h-13.25L13,30.05ZM56.85,30.05h32.71v9.38h-19.61v5.68h16.56v9.38h-16.56v6.21h20.27v9.38h-33.38V30.05ZM93.93,69.93V30.05h17.62c12.85,0,20.93,5.94,20.93,19.15,0,15.06-8.34,20.87-21.19,20.87l-17.35-.13h-.01s0-.01,0-.01ZM107.05,60.68h2.78c6.1,0,9.41-3.17,9.41-10.83,0-8.32-2.78-10.57-9.8-10.57h-2.39s0,21.4,0,21.4ZM131.15,69.93l14.3-40.02h13.38l14.44,40.02h-13.12l-1.58-5.28h-13.12l-1.45,5.28h-12.85ZM152.08,42.06l-4.1,14.26h8.34l-4.24-14.26ZM213,70.07h-8.47l-.53-3.96c-2.12,2.51-5.83,4.89-12.05,4.89-10.2,0-19.48-6.6-19.48-20.47,0-12.81,8.08-21.53,20.93-21.53,9.67,0,17.35,5.02,18.94,14.79h-12.46c-.66-3.04-3.58-5.28-6.76-5.02-5.16,0-7.68,4.62-7.68,11.75,0,5.68,1.73,10.83,8.34,10.83,2.65,0,6.1-1.85,6.76-4.62h-5.83v-8.72h18.28v22.06Z"/>
    <rect class="cls-1" width="226" height="100"/>
  </g>
</svg>