<?xml version="1.0" encoding="UTF-8"?>
<svg id="Ebene_2" data-name="Ebene 2" xmlns="http://www.w3.org/2000/svg" width="1003.92" height="334.64" viewBox="0 0 1003.92 334.64">
  <g id="svg3821">
    <path id="path2512" d="M0,334.64H1003.92V0H0V334.64Z" fill="#4a4a49"/>
    <path id="path2514" d="M890.52,225.6h19.66v29.87h-82.27v-28.05h16.56l-25.19-36.6-24.47,36.6h16.56v28.05h-69.83v-29.87h18.48l40.06-60.75-39.56-55.84h-15.18v-29.85h76.6v28.05h-15.61l24.23,32.97,22.08-32.97h-14.87v-28.05h72.43v29.85h-22.77l-38.62,57.65,41.73,58.94Zm-220.82-146.45h61.65v29.85h-16.19v98.68c0,41.02-39.61,49.86-64.04,49.86-33.82,0-65.08-13.24-65.08-56.36V109.01h-19.2v-29.85h75.81v29.85h-14.14v89.6c0,17.38,8.07,29.07,26.98,29.07,15.86,0,28.66-7.53,28.66-27.54V109.01h-14.45v-29.85Zm-483.14,0h67.6v29.85h-15.67l-46.82,146.51h-38.22L104.92,109.01h-19.2v-29.85h80.6v29.85h-18.71l27.11,89.29h.47l29.37-89.29h-18v-29.85Zm350.06,120.18h31.9v56.13h-138.66v-29.87h23.26V109.01h-23.26v-29.85h89.49v29.85h-23.76v116.59h41.02v-26.27ZM268.13,79.16h141.7v55.83h-30.95v-25.97h-50.62v40.52h40.79v29.85h-40.79v46.22h50.62v-26.21h30.95v56.08h-143.2v-29.87h19.2V109.01h-17.69v-29.85Zm639.94,88.1c0-12.66,9.59-22.22,22.3-22.22s22.28,9.56,22.28,22.22-9.53,22.34-22.16,22.34-22.42-9.61-22.42-22.34Zm-5.14,.06c0,15.64,11.73,27.43,27.31,27.43s27.57-11.79,27.57-27.43-11.81-27.45-27.46-27.45-27.42,11.81-27.42,27.45Zm27.79-10.64c3.35,0,5.19,1.52,5.19,4.28,0,3.53-2.82,4.26-5.19,4.26h-4.18v-8.54h4.18Zm-9.62-4.53h-.24v29.65h5.93v-12.03h2.54c0,.21,7.44,11.91,7.44,11.91l6.09,.12h.44s-7.88-12.28-8.19-12.74c4.12-1.2,6.49-4.1,6.49-8.1,0-5.61-3.85-8.81-10.55-8.81h-9.96" fill="#fff"/>
  </g>
</svg>