<?xml version="1.0" encoding="UTF-8"?>
<svg id="Ebene_2" data-name="Ebene 2" xmlns="http://www.w3.org/2000/svg" viewBox="0 0 246 114.55">
  <defs>
    <style>
      .cls-1 {
        fill: none;
      }

      .cls-2 {
        fill: #4a4a49;
      }
    </style>
  </defs>
  <g id="Ebene_1-2" data-name="Ebene 1">
    <path class="cls-2" d="M47.36,62.1l4.6-24.66h12.54l-9.85,39.94h-12.79l-4.6-23.12h-.13l-4.48,23.12h-12.79l-9.85-39.94h12.54l4.48,24.66h.13l4.73-24.66h10.75l4.73,24.66h-.01ZM106.37,57.09c0,13.61-9.09,21.19-20.86,21.19-12.42,0-20.86-7.71-20.86-21.32,0-12.46,8.45-20.68,20.86-20.68,14.21,0,20.86,10.28,20.86,20.81ZM77.7,57.09c0,5.14,1.54,11.43,7.8,11.43,5.63,0,7.8-4.88,7.8-11.43,0-5.39-2.17-11.17-7.93-11.05-5.89,0-7.68,6.04-7.68,11.05,0,0,.01,0,0,0ZM110.33,37.44h13.05v30.57h17.91v9.25h-30.97v-39.82ZM144.5,37.44h30.97v9.25h-17.91v7.32h14.21v9.25h-14.21v14h-13.05v-39.82ZM179.05,37.44h13.05v39.94h-13.05v-39.94ZM224.09,59.14l-.51-9.12v-12.72h12.41v39.94h-12.15l-14.21-21.71.51,9.12v12.59h-12.41v-39.8h12.15l14.21,21.71h0Z"/>
    <rect class="cls-1" width="246" height="114.55"/>
  </g>
</svg>