<?xml version="1.0" encoding="UTF-8"?>
<svg id="Ebene_2" data-name="Ebene 2" xmlns="http://www.w3.org/2000/svg" viewBox="0 0 241.9 100.15">
  <defs>
    <style>
      .cls-1 {
        fill: none;
      }

      .cls-2 {
        fill: #4a4a49;
      }
    </style>
  </defs>
  <g id="Neu_1" data-name="Neu 1">
    <path id="Wortmarke_pos" data-name="Wortmarke pos" class="cls-2" d="M161.05,64.69h8.75l-6.23-10.79c3.48-1.44,5.39-4.32,5.39-7.91,0-5.51-3.6-9.11-10.79-9.11h-13.79v27.81h7.55v-9.71h3.84l5.27,9.71h0ZM161.29,45.99c0,1.92-1.32,3.36-4.2,3.36h-5.27v-6.71h5.27c2.88,0,4.2,1.44,4.2,3.36h0ZM130.84,44.67v8.87c0,4.08-1.92,5.39-4.56,5.39s-4.56-1.44-4.56-5.39v-8.99h-7.67v9.35c0,7.31,4.08,11.39,12.35,11.39s12.23-4.08,12.23-11.27v-9.35h-7.79ZM121.73,42.15v-5.27h-7.67v5.27h7.67ZM130.84,42.15h7.67v-5.27h-7.67v5.27h0ZM82.17,55.34l-3.96-18.46h-7.67l7.07,27.81h8.15l4.79-18.22,4.79,18.22h8.15l7.07-27.81h-7.67l-3.96,18.46-4.79-18.46h-7.19l-4.79,18.46h0ZM215.11,46.83h-9.35v-9.95h-7.67v27.81h7.67v-11.63h9.35v11.63h7.79v-27.81h-7.79v9.95h0ZM178.91,42.99v21.82h7.67v-21.82h7.19v-6.11h-22.06v6.11h7.19Z"/>
    <path class="cls-2" d="M58.92,45.39H19v-17.14h16.66v6.71h6.71v-6.71h16.66v17.14h-.12ZM42.25,65.29v6.71c9.59-1.8,16.66-10.07,16.66-19.42v-.36H19v.36c0,9.23,7.07,17.5,16.66,19.3v-6.71h6.59v.12Z"/>
    <rect class="cls-1" width="241.9" height="100.15"/>
  </g>
</svg>