<?xml version="1.0" encoding="UTF-8"?>
<svg id="Ebene_2" data-name="Ebene 2" xmlns="http://www.w3.org/2000/svg" width="135.81mm" height="41.78mm" viewBox="0 0 384.96 118.43">
  <g id="Ebene_1-2" data-name="Ebene 1">
    <polygon points="168.92 7.44 3.4 115.01 0 109.78 168.92 0 258.48 58.21 255.08 63.43 168.92 7.44" fill="#e30613" fill-rule="evenodd"/>
    <path d="M215.72,118.42c-3.93,0-6.93-2.04-8.98-6.13l4.57-2.73c1.34,2.51,2.86,3.77,4.56,3.77,.89,0,1.67-.26,2.34-.78,.6-.56,.9-1.17,.9-1.83s-.22-1.29-.64-1.95c-.27-.31-.67-.71-1.19-1.18-.52-.47-1.17-1.04-1.95-1.69-1.49-1.25-2.73-2.35-3.7-3.3-.98-.95-1.69-1.76-2.14-2.43-.96-1.37-1.43-2.7-1.43-4.02,0-1.97,.73-3.65,2.21-5.06,1.53-1.39,3.35-2.09,5.45-2.09,1.45,0,2.8,.35,4.04,1.04,.64,.31,1.31,.77,1.99,1.36,.68,.59,1.41,1.3,2.17,2.15l-4.04,3.51c-1.35-1.9-2.74-2.85-4.16-2.85-.79,0-1.35,.17-1.68,.51-.44,.34-.66,.78-.66,1.32,0,.41,.13,.83,.39,1.27,.26,.27,.71,.7,1.36,1.28,.64,.58,1.5,1.33,2.56,2.25,1.22,1.02,2.16,1.84,2.81,2.44,.42,.39,.74,.66,.95,.83,1.91,1.84,2.87,3.96,2.87,6.36s-.79,4.26-2.36,5.74c-1.56,1.48-3.64,2.21-6.24,2.21Z" fill="#1d1d1b" fill-rule="evenodd"/>
    <polygon points="247.82 89.02 247.82 94.52 245.16 94.52 239.79 94.52 239.79 118.43 234.03 118.43 234.03 94.52 228.8 94.52 226.14 94.52 226.14 89.02 247.82 89.02" fill="#1d1d1b" fill-rule="evenodd"/>
    <path d="M270.47,118.43h-6.01l-5.35-10.05h-3.26v10.05h-5.63v-29.41h10.78c2.62,0,4.85,.92,6.7,2.77s2.76,4.08,2.76,6.71v.29c0,3.98-1.92,6.91-5.75,8.8l5.75,10.85h0Zm-10.01-15.51c1.11,0,2.09-.43,2.91-1.27,.82-.82,1.22-1.83,1.22-3.02s-.41-2.14-1.22-2.92c-.8-.79-1.78-1.19-2.91-1.19h-4.61v8.4h4.61Z" fill="#1d1d1b" fill-rule="evenodd"/>
    <path d="M289.22,89.02h5.46v18.63c0,1.49-.29,2.89-.85,4.19-.57,1.31-1.34,2.44-2.31,3.42-.98,.97-2.12,1.74-3.43,2.3-1.3,.57-2.7,.85-4.19,.85s-2.89-.29-4.19-.85c-1.31-.57-2.44-1.33-3.42-2.3-.97-.97-1.74-2.11-2.3-3.42-.57-1.3-.85-2.7-.85-4.19v-18.63h5.46v18.77c0,.74,.14,1.43,.42,2.07,.28,.64,.66,1.2,1.14,1.68,.48,.48,1.04,.85,1.69,1.13s1.33,.41,2.06,.41,1.43-.14,2.07-.41,1.2-.64,1.69-1.13c.48-.48,.86-1.04,1.14-1.68,.28-.64,.42-1.34,.42-2.07v-18.77Z" fill="#1d1d1b" fill-rule="evenodd"/>
    <path d="M312.45,113.38c.79,0,1.55-.09,2.29-.28,.73-.18,1.42-.44,2.08-.78s1.27-.75,1.83-1.22c.56-.47,1.06-1,1.49-1.59l3.79,3.28c-.66,.85-1.42,1.62-2.26,2.32-.84,.69-1.75,1.29-2.73,1.78-.98,.5-2.01,.88-3.09,1.14-1.09,.27-2.22,.4-3.39,.4-1.35,0-2.66-.17-3.91-.52-1.25-.34-2.42-.84-3.52-1.48-1.09-.64-2.08-1.41-2.97-2.3s-1.65-1.88-2.3-2.98c-.64-1.09-1.14-2.26-1.48-3.51-.35-1.25-.52-2.55-.52-3.91s.17-2.65,.52-3.91c.34-1.25,.84-2.42,1.48-3.51,.64-1.09,1.41-2.09,2.3-2.98s1.88-1.65,2.97-2.3c1.1-.64,2.27-1.14,3.52-1.48,1.25-.35,2.55-.52,3.91-.52,1.18,0,2.3,.13,3.39,.4,1.09,.27,2.11,.64,3.09,1.14,.98,.49,1.89,1.08,2.73,1.77,.84,.69,1.6,1.46,2.26,2.3l-3.79,3.3c-.43-.59-.93-1.12-1.49-1.6-.56-.48-1.17-.88-1.83-1.22s-1.35-.6-2.08-.78c-.73-.19-1.5-.28-2.29-.28-1.33,0-2.58,.25-3.75,.76-1.18,.51-2.2,1.2-3.08,2.07-.87,.88-1.56,1.9-2.07,3.07-.5,1.17-.76,2.43-.76,3.77s.25,2.58,.76,3.75c.51,1.18,1.2,2.21,2.07,3.08,.87,.88,1.9,1.56,3.08,2.07,1.18,.5,2.42,.76,3.75,.76Z" fill="#1d1d1b" fill-rule="evenodd"/>
    <polygon points="348.53 89.02 338.42 103.78 348.53 118.43 341.85 118.43 332.8 105.3 332.8 118.43 327.22 118.43 327.22 89.02 332.8 89.02 332.8 102.16 341.85 89.02 348.53 89.02" fill="#1d1d1b" fill-rule="evenodd"/>
    <polygon points="251.17 10.75 251.17 34.82 262.02 34.82 262.02 40.15 245.71 40.15 245.71 10.75 251.17 10.75" fill="#1d1d1b" fill-rule="evenodd"/>
    <polygon points="282.13 10.75 282.27 11.16 279.4 18.55 275.43 28.64 283.36 28.64 281.45 23.86 284.32 16.46 293.49 40.13 287.59 40.13 285.42 34.1 273.38 34.1 270.91 40.13 265.17 40.13 276.51 10.75 282.13 10.75" fill="#1d1d1b" fill-rule="evenodd"/>
    <path d="M310.22,10.75h5.46V29.39c0,1.49-.29,2.89-.85,4.19-.57,1.31-1.34,2.44-2.31,3.42-.98,.97-2.12,1.74-3.43,2.3-1.3,.57-2.7,.85-4.19,.85s-2.89-.29-4.19-.85c-1.31-.57-2.44-1.33-3.42-2.3-.97-.97-1.74-2.11-2.3-3.42-.57-1.3-.85-2.7-.85-4.19V10.75h5.46V29.53c0,.73,.14,1.43,.42,2.07,.28,.64,.67,1.2,1.14,1.68,.48,.48,1.04,.85,1.69,1.13,.64,.27,1.33,.41,2.06,.41s1.43-.14,2.07-.41c.64-.27,1.2-.64,1.69-1.13s.86-1.04,1.14-1.68c.28-.64,.42-1.34,.42-2.07V10.75Z" fill="#1d1d1b" fill-rule="evenodd"/>
    <polygon points="340.43 10.75 340.43 16.25 337.77 16.25 332.39 16.25 332.39 40.17 326.64 40.17 326.64 16.25 321.41 16.25 318.74 16.25 318.74 10.75 340.43 10.75" fill="#1d1d1b" fill-rule="evenodd"/>
    <polygon points="360.48 10.75 360.48 16.21 348.3 16.21 348.3 22.76 360.48 22.76 360.48 28.1 348.3 28.1 348.3 34.69 360.48 34.69 360.48 40.15 342.84 40.15 342.84 10.75 360.48 10.75" fill="#1d1d1b" fill-rule="evenodd"/>
    <path d="M384.96,40.17h-6.01l-5.35-10.05h-3.26v10.05h-5.63V10.75h10.78c2.62,0,4.85,.92,6.7,2.77s2.76,4.08,2.76,6.71v.29c0,3.98-1.92,6.91-5.75,8.8l5.75,10.85h0Zm-10.01-15.51c1.11,0,2.09-.43,2.91-1.27,.82-.82,1.22-1.83,1.22-3.02s-.41-2.13-1.22-2.92c-.81-.79-1.78-1.19-2.91-1.19h-4.61v8.4h4.61Z" fill="#1d1d1b" fill-rule="evenodd"/>
    <g>
      <path d="M162.9,77.32c8,0,14.53,6.52,14.53,14.53s-6.53,14.53-14.53,14.53-14.53-6.53-14.53-14.53c0-8,6.53-14.53,14.53-14.53h0Zm.24,16.46h0c-.57-.94-6.31-8.26-6-8.81,.75-1.34,2.78-1.52,2.47-2.64-.1-.36-.6-.86-1.01-.76l-6,1.62c-.5,.98-2.33,10.86-2.52,12.38-.06,.51,3.24-5.94,3.89-6.41,.29-.02,6.56,6.28,7.34,6.4,.32,.05,1.76-1.09,1.82-1.79h0Zm-6.61-1.14h0c-1.04,1.57-3.78,8.27-3.61,8.3,.14,.02,3.59-6.11,4.71-7.52,.06-.08-.34-.02-.63-.18-.3-.17-.38-.61-.47-.6h0Zm9.63-.72h0l-2.69,2.42c-.57,.58-1.64,1.54-1.71,1.73l-.23,.6-.83,.78c-.15,.14-.48,.08-.64,.22l-.99,.78c-.77,.61-2.38,1.55-3.26,2.59-.46,.54-.5,1.16-.49,1.75,.01,.96,1.42,.68,2.04,.53,1.2-.36,2.25-1.68,2.55-2.08,.61-.82,1.51-1.32,2.04-2.03,.17-.23,.1-.63,.28-.81,.19-.2,.42-.28,.62-.51,.51-.01,.88-.21,1.02-.28,.22-.13,2.74-1.67,3.36-2.68-.02-.41-.35-3.05-1.05-3.01h0Zm-.76,5.54h0c-.23-.11-1.09,.43-1.15,.62-.25,.7,1.23,2.43,2.63,3.79,.59,.58,1.09,1.25,1.57,1.48,.85,.42,2.9,.77,1.48-1.66-.65-1.11-3.38-3.69-4.52-4.23h0Zm6.83,3.98c-.23-2.46-1.85-5.99-2.81-8.43-.41-1.04-1.16-2.59-1.33-3.23-.06-.24,1.13,3.97,1.07,3.87-1.36-2.22-1.74-5.03-2.95-7.18-.49-.87-1.13-1.53-1.38-2.23-.21-.61-.14-1.09,.11-1.3,.97-.82-1.19-.46-1.38,.08-.27,.77,.79,2.41,1.43,4.1l2.17,5.72c.33,.69,.59,1.14,.93,1.83,.24,.11,.67,.41,.91,.52l3.23,6.24h0Zm-2.17-8.59c.64,.19,1.69-1.46,2.59-1.01,.77,.38,1.63,1.6,2.06,2.3,.46,.74,1.14,1.8,1.42,1.62,.22-.14,.79-3.43-.42-6.63-1.04-2.75-5.03-8.02-6.74-8.93-.21-.11-.47,.23-.68,.42-.63,.55-2.85,2.61-3.11,3.42-.08,.25,2.37,2.77,2.62,2.82,.62,.12,1.11-.17,1.52,.03,.28,.14,.46,.57,.42,.87-.05,.36-.79,.85-1.06,2.01-.05,.2,1.12,3.04,1.37,3.1h0Zm-7.23-9.54h0c0-.16-.27-.73-.74-.83-.83-.17-2.8,4.67-2.66,4.73,.19,.08,2.35-4.23,2.51-4.01,.15,.21-1.41,3.5-2,4.63-.12,.23,.15,.38,.45,.6,.14,.1,.29-.3,.4-.55,.19-.48,.6-1.08,.98-1.75,.52-.91,1.08-1.9,1.06-2.82h0Zm.5-4.48c-.94,0-1.7,.76-1.7,1.7s.77,1.7,1.7,1.71c.94,0,1.7-.77,1.7-1.71s-.77-1.7-1.7-1.7h0Z" fill="#1d1d1b" fill-rule="evenodd"/>
      <path d="M146.29,63.79l43.43-.14-.15,54.75-45.67-.11-21.53-20.9-22.18,19.75v-47.43l22.65-21.18,23.45,23.15v-7.88h0Zm-.09,21.35h0l-23.51-23.33-12.89,12.06v21.87s9.53-8.49,9.53-8.49l3.33-2.96,3.2,3.09,22.13,21.41h32.02s.1-35.52,.1-35.52l-33.8,.11-.09,11.75Z" fill="#e30613" fill-rule="evenodd"/>
    </g>
    <path d="M4.92,25.58c4,0,6.25-3.09,6.25-7.41s-2.27-7.43-6.25-7.43H.5v14.84H4.92Zm-1.96-12.68h1.96c2.47,0,3.72,2.16,3.72,5.27s-1.29,5.23-3.72,5.23h-1.96V12.9Z" fill="#1d1d1b" fill-rule="evenodd"/>
    <path d="M23.44,25.58l-4.43-14.84h-2.96l-4.43,14.84h2.56l.8-2.94h5.1l.8,2.94h2.56Zm-3.85-5.12h-4.09l2.05-7.52,2.05,7.52Z" fill="#1d1d1b" fill-rule="evenodd"/>
    <path d="M29.89,25.85c2.69,0,4.03-1.74,4.78-3.47l-2.05-.91c-.47,1.25-1.38,2.18-2.74,2.18-2.11,0-3.47-2.31-3.47-5.47s1.36-5.5,3.47-5.5c1.29,0,2.2,.82,2.71,2l2.05-.91c-.78-1.65-2.11-3.27-4.76-3.27-3.65,0-5.99,3.2-5.99,7.68s2.34,7.68,5.99,7.68Z" fill="#1d1d1b" fill-rule="evenodd"/>
    <polygon points="47 25.58 47 10.74 44.53 10.74 44.53 16.86 39.1 16.86 39.1 10.74 36.63 10.74 36.63 25.58 39.1 25.58 39.1 19.04 44.53 19.04 44.53 25.58 47 25.58" fill="#1d1d1b" fill-rule="evenodd"/>
    <path d="M54.25,25.58c4,0,6.25-3.09,6.25-7.41s-2.27-7.43-6.25-7.43h-4.43v14.84h4.43Zm-1.96-12.68h1.96c2.47,0,3.72,2.16,3.72,5.27s-1.29,5.23-3.72,5.23h-1.96V12.9Z" fill="#1d1d1b" fill-rule="evenodd"/>
    <polygon points="70.92 25.58 70.92 23.4 65.27 23.4 65.27 19.11 70.76 19.11 70.76 16.93 65.27 16.93 65.27 12.9 70.92 12.9 70.92 10.74 62.8 10.74 62.8 25.58 70.92 25.58" fill="#1d1d1b" fill-rule="evenodd"/>
    <path d="M78.73,25.85c2.69,0,4.03-1.74,4.78-3.47l-2.05-.91c-.47,1.25-1.38,2.18-2.74,2.18-2.11,0-3.47-2.31-3.47-5.47s1.36-5.5,3.47-5.5c1.29,0,2.2,.82,2.71,2l2.05-.91c-.78-1.65-2.11-3.27-4.76-3.27-3.65,0-5.99,3.2-5.99,7.68s2.34,7.68,5.99,7.68Z" fill="#1d1d1b" fill-rule="evenodd"/>
    <polygon points="95.79 25.58 90.59 17.75 95.44 10.74 92.54 10.74 87.94 17.88 87.94 10.74 85.47 10.74 85.47 25.58 87.94 25.58 87.94 21.15 89.05 19.46 92.88 25.58 95.79 25.58" fill="#1d1d1b" fill-rule="evenodd"/>
    <polygon points="105.49 25.58 105.49 23.4 99.84 23.4 99.84 19.11 105.34 19.11 105.34 16.93 99.84 16.93 99.84 12.9 105.49 12.9 105.49 10.74 97.37 10.74 97.37 25.58 105.49 25.58" fill="#1d1d1b" fill-rule="evenodd"/>
    <path d="M117.44,25.58l-2.87-6.03c1.31-.36,2.74-1.62,2.74-4.23,0-2.74-1.76-4.58-4.32-4.58h-5.12v14.84h2.47v-5.61h1.82l2.51,5.61h2.76Zm-2.65-10.24c0,1.47-.85,2.45-2.16,2.45h-2.29v-4.89h2.29c1.31,0,2.16,.98,2.16,2.45Z" fill="#1d1d1b" fill-rule="evenodd"/>
    <polygon points="27.69 44.63 27.69 29.79 24.37 29.79 21.17 39.38 17.99 29.79 14.65 29.79 14.65 44.63 17.12 44.63 17.12 33.84 20.68 44.63 21.63 44.63 25.24 33.84 25.24 44.63 27.69 44.63" fill="#1d1d1b" fill-rule="evenodd"/>
    <polygon points="38.63 44.63 38.63 42.45 32.98 42.45 32.98 38.15 38.48 38.15 38.48 35.97 32.98 35.97 32.98 31.95 38.63 31.95 38.63 29.79 30.51 29.79 30.51 44.63 38.63 44.63" fill="#1d1d1b" fill-rule="evenodd"/>
    <rect x="41.01" y="29.79" width="2.47" height="14.84" fill="#1d1d1b"/>
    <path d="M45.4,43c1.09,1.16,2.67,1.89,4.78,1.89,3.18,0,4.83-1.94,4.83-4.36,0-2.87-2.2-3.85-4.09-4.69-1.38-.62-2.56-1.16-2.56-2.29s.82-1.8,2.02-1.8,2.27,.4,3.14,1.27l1.2-1.87c-1.07-1.02-2.54-1.6-4.27-1.6-2.8,0-4.61,1.82-4.61,4.14,0,2.78,2.14,3.69,3.98,4.49,1.42,.65,2.67,1.22,2.67,2.56,0,1.05-.78,1.96-2.31,1.96s-2.74-.69-3.54-1.6l-1.25,1.91Z" fill="#1d1d1b" fill-rule="evenodd"/>
    <polygon points="61.86 44.63 61.86 31.95 65.27 31.95 65.27 29.79 56.01 29.79 56.01 31.95 59.42 31.95 59.42 44.63 61.86 44.63" fill="#1d1d1b" fill-rule="evenodd"/>
    <polygon points="75.32 44.63 75.32 42.45 69.67 42.45 69.67 38.15 75.17 38.15 75.17 35.97 69.67 35.97 69.67 31.95 75.32 31.95 75.32 29.79 67.2 29.79 67.2 44.63 75.32 44.63" fill="#1d1d1b" fill-rule="evenodd"/>
    <path d="M87.27,44.63l-2.87-6.03c1.31-.36,2.74-1.62,2.74-4.23,0-2.74-1.76-4.58-4.32-4.58h-5.12v14.84h2.47v-5.61h1.82l2.51,5.61h2.76Zm-2.65-10.24c0,1.47-.85,2.45-2.16,2.45h-2.29v-4.89h2.29c1.31,0,2.16,.98,2.16,2.45Z" fill="#1d1d1b" fill-rule="evenodd"/>
    <polygon points="277.39 66.58 277.39 61.67 284.71 61.67 284.71 54.35 289.63 54.35 289.63 61.67 296.82 61.67 296.82 66.58 289.63 66.58 289.63 73.78 284.71 73.78 284.71 66.58 277.39 66.58" fill="#1d1d1b" fill-rule="evenodd"/>
  </g>
</svg>