<?xml version="1.0" encoding="UTF-8"?><svg id="Ebene_2" xmlns="http://www.w3.org/2000/svg" viewBox="0 0 510.24 221.17"><g id="Ebene_1-2"><path d="m207.92,136.28l-2.11-2.05,2.72,7.76,5-5.55c-1.57-1.44-2.68-2.41-2.68-2.41l-2.93,2.24Z" style="fill:#fff;"/><path d="m194.76,105.9c-24.31,0-44.02,19.71-44.02,44.02s19.71,44.02,44.02,44.02,44.02-19.71,44.02-44.02-19.71-44.02-44.02-44.02Zm.23,10.09c2.14,0,3.87,1.73,3.87,3.87s-1.73,3.87-3.87,3.87-3.87-1.73-3.87-3.87,1.73-3.87,3.87-3.87Zm28.75,31.32c-.72-1.33-2.56-3.39-4.63-5.5l-.71.79s-2.85,3.17-6.95,7.72l7.21,20.57c.02.06.03.12.05.18l-10.46-6.5-2.7-7.7c-1.76,1.95-3.59,3.99-5.41,6.01l13.06,14.51c1.43,1.59,1.3,4.03-.29,5.46-.74.67-1.66.99-2.59.99-1.06,0-2.11-.43-2.88-1.28l-12.52-13.9c-6.84,7.6-12.52,13.9-12.52,13.9-.76.85-1.82,1.28-2.88,1.28-.92,0-1.85-.33-2.59-.99-1.59-1.43-1.72-3.88-.29-5.46l3.7-4.11,9.36-10.4-1.36-1.51-4.2-3.7-2.42,6.9-10.46,6.5c.02-.06.03-.12.05-.18l6.57-18.74-9.34-8.23-7.24,13.41,2.92-27.62,16.1-8.24,3.53,6.89-8.63,4.42,6.57,8.25,6.51-18.59c1.07,2.62,3.63,4.46,6.62,4.49l-7.44,21.24,4.75,5.96,2.69,2.98,7.7-8.56-7.58-21.63c3-.03,5.55-1.87,6.62-4.49l1.71,4.87,6.38-6.88c26.24,11.45,19.27,38.11,19.27,38.11,0,0-3.02-7.02-5.29-11.23Z" style="fill:#fff;"/><path d="m264.41,118.32h10.95v33.25h12.69v9.62h-23.64v-42.87Z" style="fill:#fff;"/><path d="m325.44,161.19h-9.62v-3.48c-1.74,3.13-5.74,4.58-9.5,4.58-10.2,0-16.16-7.99-16.16-17.21,0-10.54,7.59-17.15,16.16-17.15,5.27,0,8.23,2.55,9.5,4.52v-3.42h9.62v32.15Zm-25.66-15.93c0,2.95,2.2,8.05,7.99,8.05,3.42,0,5.5-1.62,6.72-3.59.81-1.27,1.22-2.66,1.33-4.11s-.17-2.9-.81-4.23c-1.04-2.2-3.24-4.46-7.3-4.46-5.5,0-7.94,4.63-7.94,8.29v.06Z" style="fill:#fff;"/><path d="m362.02,161.19h-8.98v-3.42c-1.1,1.57-3.13,4.52-8.92,4.52-10.89,0-11.99-8.81-11.99-13.15v-20.1h9.62v17.55c0,3.53.75,6.66,5.1,6.66,4.81,0,5.56-3.42,5.56-6.72v-17.5h9.62v32.15Z" style="fill:#fff;"/><path d="m371,136.34h-4.75v-7.3h4.75v-10.72h9.62v10.72h4.63v7.3h-4.63v24.85h-9.62v-24.85Z" style="fill:#fff;"/><path d="m396.51,148.45c.4,3.42,3.65,5.68,7.42,5.68,3.07,0,4.69-1.33,5.85-3.01h9.85c-1.56,3.59-3.82,6.37-6.55,8.23-2.66,1.91-5.85,2.9-9.15,2.9-9.21,0-17.03-7.47-17.03-17.03,0-8.98,7.07-17.26,16.86-17.26,4.92,0,9.15,1.91,12.17,5.1,4.06,4.35,5.27,9.5,4.52,15.41h-23.93Zm14.48-7.3c-.23-1.51-2.2-5.1-7.18-5.1s-6.95,3.59-7.18,5.1h14.37Z" style="fill:#fff;"/><path d="m425.48,129.04h9.04v3.59c.93-1.74,2.61-4.69,8.17-4.69v9.68h-.35c-4.92,0-7.24,1.79-7.24,6.31v17.26h-9.62v-32.15Z" style="fill:#fff;"/><path d="m509.68,130.56l-8.57,16.18,9.13,9.34-6.15,6.09-7.88-8.09c-2.14,3.94-6.15,8.09-14.45,8.09-10.65,0-17.22-6.71-17.22-14.66s6.29-12.1,10.51-14.59c-3.53-3.66-5.39-7.12-5.39-11.2,0-7.05,5.81-12.66,13.28-12.66s12.93,5.53,12.93,12.24-5.05,9.96-8.23,11.83l7.47,7.61,5.05-10.17h9.54Zm-29.04,7.95c-3.94,2.14-6.15,4.77-6.22,8.09.07,4.01,3.32,6.85,7.68,6.85s6.43-2.21,8.09-5.32l-9.54-9.61Zm2.28-21.99c-2.49,0-4.43,2.01-4.43,4.7,0,3.04,2.28,5.19,3.87,6.92,3.04-1.94,5.19-3.67,5.19-6.92,0-2.49-1.73-4.7-4.56-4.7h-.07Z" style="fill:#fff;"/><path d="m338,205.87c0,4.98,3.07,5.85,4.46,5.85,2.61,0,4.17-2.14,4.17-4.11,0-2.26-1.8-2.96-8.4-5.74-3.01-1.22-10.49-4.23-10.49-12.28,0-8.63,7.82-13.21,15-13.21,5.91,0,14.25,3.01,14.43,13.32h-10.83c-.23-1.45-.58-4.17-3.94-4.17-1.91,0-3.77,1.33-3.77,3.36s1.16,2.49,8.86,5.97c7.99,3.59,10.02,7.3,10.02,12.28,0,6.84-3.59,13.73-14.95,13.73s-15.76-6.6-15.47-15h10.89Z" style="fill:#fff;"/><path d="m364.45,195.21h-4.75v-7.3h4.75v-10.72h9.62v10.72h4.63v7.3h-4.63v24.85h-9.62v-24.85Z" style="fill:#fff;"/><path d="m382.87,187.91h9.04v3.59c.93-1.74,2.61-4.69,8.17-4.69v9.68h-.35c-4.92,0-7.24,1.79-7.24,6.31v17.26h-9.62v-32.15Z" style="fill:#fff;"/><path d="m433.42,220.06h-8.98v-3.42c-1.1,1.56-3.13,4.52-8.92,4.52-10.89,0-11.99-8.81-11.99-13.15v-20.1h9.62v17.55c0,3.53.75,6.66,5.1,6.66,4.81,0,5.56-3.42,5.56-6.72v-17.5h9.62v32.15Z" style="fill:#fff;"/><path d="m472.55,207.84c-1.74,7.3-8.17,13.27-16.86,13.27-9.73,0-17.21-7.65-17.21-17.2s7.36-17.09,16.97-17.09c8.52,0,15.41,5.62,17.03,13.5h-9.73c-1.04-2.2-2.96-4.52-6.95-4.52-2.26-.12-4.17.75-5.56,2.26-1.33,1.51-2.09,3.59-2.09,5.91,0,4.69,3.07,8.17,7.65,8.17,4,0,5.91-2.32,6.95-4.29h9.79Z" style="fill:#fff;"/><path d="m477.48,177.2h9.62v22.36l9.04-11.64h11.41l-12.11,14.14,11.76,18.02h-10.89l-9.21-15.47v15.47h-9.62v-42.87Z" style="fill:#fff;"/><path d="m263.17,81.32h4.39c1.72,0,4.23.17,5.87,2.39,1.01,1.27,1.42,2.8,1.42,4.51,0,3.91-2.06,6.94-7.09,6.94h-4.6v-13.84Zm2.79,11.39h1.96c2.99,0,4.15-1.96,4.15-4.45,0-1.08-.28-2.24-.93-3.1-.58-.75-1.51-1.38-3.2-1.38h-1.98v8.94Z" style="fill:#fff;"/><path d="m279.47,95.15h-3.03l5.61-13.84h2.45l5.48,13.84h-3.05l-1.01-2.71h-5.46l-.99,2.71Zm3.68-10.55l-1.96,5.61h3.98l-2.02-5.61Z" style="fill:#fff;"/><path d="m305.53,90.52c-.84,2.86-3.53,4.9-6.77,4.9-4.23,0-7.25-3.35-7.25-7.2s2.86-7.16,7.24-7.16c3.98.02,6.24,2.95,6.79,4.97h-2.94c-.43-.95-1.66-2.51-3.87-2.52-2.69,0-4.43,2.26-4.43,4.71s1.81,4.75,4.45,4.75c2.47,0,3.59-1.94,3.85-2.45h2.94Z" style="fill:#fff;"/><path d="m308.81,95.15v-13.84h2.79v5.55h5.33v-5.55h2.79v13.84h-2.79v-5.83h-5.33v5.83h-2.79Z" style="fill:#fff;"/><path d="m323.83,81.32h4.39c1.72,0,4.23.17,5.87,2.39,1.01,1.27,1.42,2.8,1.42,4.51,0,3.91-2.06,6.94-7.09,6.94h-4.6v-13.84Zm2.79,11.39h1.96c2.99,0,4.15-1.96,4.15-4.45,0-1.08-.28-2.24-.93-3.1-.58-.75-1.51-1.38-3.2-1.38h-1.98v8.94Z" style="fill:#fff;"/><path d="m339,81.32h7.76v2.45h-4.97v3.14h4.88v2.45h-4.88v3.35h4.97v2.45h-7.76v-13.84Z" style="fill:#fff;"/><path d="m363.71,90.52c-.84,2.86-3.53,4.9-6.77,4.9-4.23,0-7.25-3.35-7.25-7.2s2.86-7.16,7.24-7.16c3.98.02,6.24,2.95,6.79,4.97h-2.94c-.43-.95-1.66-2.51-3.87-2.52-2.69,0-4.43,2.26-4.43,4.71s1.81,4.75,4.45,4.75c2.47,0,3.59-1.94,3.85-2.45h2.94Z" style="fill:#fff;"/><path d="m367.16,81.32h2.79v6.41l4.58-6.41h2.94l-5.01,6.9,5.52,6.94h-3.4l-4.62-6.21v6.21h-2.79v-13.84Z" style="fill:#fff;"/><path d="m380.64,81.32h7.76v2.45h-4.97v3.14h4.88v2.45h-4.88v3.35h4.97v2.45h-7.76v-13.84Z" style="fill:#fff;"/><path d="m392.15,81.32h4.19c2.15,0,3.38.34,4.13.88,1.14.82,1.76,2.22,1.76,3.76,0,1.01-.28,1.91-.75,2.58-.6.88-1.38,1.27-2.28,1.5l3.09,5.12h-2.92l-3.72-6.43h.54c.92,0,1.91-.06,2.49-.5.54-.45.88-1.18.88-2.02s-.41-1.61-1.03-2c-.5-.32-1.18-.43-1.96-.43h-1.63v11.39h-2.79v-13.84Z" style="fill:#fff;"/><path d="m405.6,95.15v-13.84h3.76l3.55,9.93,3.5-9.93h3.78v13.84h-2.58l.07-11.09-3.87,11.09h-1.83l-3.89-11.09.07,11.09h-2.56Z" style="fill:#fff;"/><path d="m424.33,81.32h7.76v2.45h-4.97v3.14h4.88v2.45h-4.88v3.35h4.97v2.45h-7.76v-13.84Z" style="fill:#fff;"/><path d="m435.9,81.32h2.79v13.84h-2.79v-13.84Z" style="fill:#fff;"/><path d="m444.87,90.85c.09,1.87,1.35,2.22,1.94,2.22,1.07,0,1.89-.86,1.89-1.83,0-1.18-.99-1.48-2.92-2.24-1.05-.37-3.46-1.23-3.46-3.85s2.34-4.09,4.58-4.09c1.83,0,4.26.97,4.38,4.04h-2.75c-.11-.64-.36-1.7-1.72-1.7-.92,0-1.7.64-1.7,1.57-.02,1.03.73,1.29,3.07,2.26,2.11.92,3.29,1.93,3.29,3.89,0,2.22-1.36,4.3-4.62,4.3s-4.77-1.89-4.75-4.56h2.77Z" style="fill:#fff;"/><path d="m456.66,83.77h-2.99v-2.45h8.75v2.45h-2.97v11.39h-2.79v-11.39Z" style="fill:#fff;"/><path d="m465.17,81.32h7.76v2.45h-4.97v3.14h4.88v2.45h-4.88v3.35h4.97v2.45h-7.76v-13.84Z" style="fill:#fff;"/><path d="m476.68,81.32h4.19c2.15,0,3.38.34,4.13.88,1.14.82,1.76,2.22,1.76,3.76,0,1.01-.28,1.91-.75,2.58-.6.88-1.38,1.27-2.28,1.5l3.09,5.12h-2.92l-3.72-6.43h.54c.92,0,1.91-.06,2.49-.5.54-.45.88-1.18.88-2.02s-.41-1.61-1.03-2c-.5-.32-1.18-.43-1.96-.43h-1.63v11.39h-2.79v-13.84Z" style="fill:#fff;"/><polygon points="405.04 69.15 302.48 0 0 193.94 19.05 193.94 302.34 12.3 386.65 69.15 405.04 69.15" style="fill:#d51224;"/></g></svg>