<?xml version="1.0" encoding="UTF-8"?>
<svg id="Ebene_2" data-name="Ebene 2" xmlns="http://www.w3.org/2000/svg" viewBox="0 0 653.07 251.89">
  <defs>
    <style>
      .cls-1 {
        fill: #1d1d1b;
      }

      .cls-2 {
        fill: #66b32e;
      }
    </style>
  </defs>
  <g id="Ebene_1-2" data-name="Ebene 1">
    <path class="cls-2" d="M95.72,48.51c.74,3.4-1.42,6.74-4.81,7.48-3.39.74-6.75-1.41-7.48-4.81l-9.46-43.55c-.74-3.4,1.42-6.75,4.81-7.49,3.4-.74,6.75,1.42,7.48,4.81l9.46,43.55Z"/>
    <path class="cls-2" d="M70.33,57.92c2.34,2.57,2.15,6.55-.43,8.89-2.57,2.33-6.55,2.15-8.89-.43l-29.97-32.98c-2.33-2.57-2.14-6.55.43-8.89,2.57-2.34,6.55-2.14,8.89.43l29.96,32.98Z"/>
    <path class="cls-2" d="M53.05,78.78c3.31,1.06,5.13,4.6,4.07,7.91-1.06,3.31-4.6,5.14-7.91,4.07l-42.44-13.58c-3.3-1.06-5.13-4.6-4.08-7.92,1.07-3.31,4.6-5.13,7.92-4.07l42.44,13.58Z"/>
    <path class="cls-2" d="M48.51,105.48c3.39-.74,6.74,1.42,7.48,4.81.74,3.39-1.41,6.75-4.81,7.48l-43.54,9.46c-3.39.73-6.75-1.42-7.49-4.81-.73-3.4,1.42-6.75,4.82-7.48l43.55-9.46Z"/>
    <path class="cls-2" d="M57.93,130.86c2.57-2.33,6.55-2.14,8.88.43,2.33,2.57,2.15,6.55-.43,8.88l-32.98,29.97c-2.57,2.33-6.56,2.15-8.89-.42-2.34-2.58-2.14-6.56.43-8.89l32.98-29.97Z"/>
    <path class="cls-2" d="M78.78,148.15c1.06-3.3,4.6-5.13,7.91-4.07,3.31,1.06,5.14,4.6,4.07,7.9l-13.57,42.44c-1.06,3.3-4.61,5.13-7.92,4.08-3.31-1.07-5.13-4.6-4.07-7.92l13.58-42.44Z"/>
    <path class="cls-2" d="M152.69,95.72c-3.39.74-6.74-1.42-7.47-4.81-.73-3.4,1.41-6.75,4.81-7.48l43.54-9.47c3.39-.73,6.75,1.43,7.49,4.82.73,3.4-1.43,6.74-4.82,7.48l-43.55,9.46Z"/>
    <path class="cls-2" d="M143.27,70.33c-2.56,2.33-6.55,2.14-8.88-.43-2.33-2.58-2.15-6.55.43-8.88l32.97-29.98c2.57-2.33,6.56-2.13,8.9.43,2.33,2.58,2.13,6.55-.44,8.9l-32.98,29.97Z"/>
    <path class="cls-2" d="M122.42,53.05c-1.05,3.3-4.6,5.12-7.91,4.07-3.31-1.07-5.14-4.6-4.07-7.9l13.57-42.45c1.06-3.3,4.61-5.13,7.92-4.08,3.31,1.07,5.12,4.61,4.07,7.92l-13.58,42.44Z"/>
    <path class="cls-2" d="M65.63,108.2c-4.2-19.32,8.06-38.38,27.38-42.57,19.32-4.2,38.38,8.06,42.57,27.38.78,3.59.99,7.17.69,10.64-1.57-.4-3.21-.53-4.83-.41-.04,0-.07,0-.11.01l-20.49,2.35c-3.17.25-6.33,1.43-8.79,3.47-2.37,1.97-4.04,4.74-4.04,7.88v19.34c-15.43-1.11-28.94-12.22-32.39-28.1"/>
    <path class="cls-1" d="M141.92,138.46c0,4.56-4.62,8.4-10.27,8.53l-20.54.71c-5.65.13-10.27-3.25-10.27-7.51v-23.24c0-4.26,4.63-8.1,10.27-8.53l20.54-2.36c5.65-.43,10.27,2.95,10.27,7.51v24.89Z"/>
    <path class="cls-1" d="M194.01,136.38c0,4.92-4.63,9.06-10.27,9.19l-23.74.71c-5.65.13-10.27-3.55-10.27-8.17v-25.22c0-4.63,4.62-8.76,10.27-9.19l23.74-2.36c5.65-.43,10.27,3.25,10.27,8.17v26.86Z"/>
    <path class="cls-1" d="M249.73,134.3c0,5.28-4.63,9.71-10.27,9.85l-26.32.71c-5.65.13-10.27-3.84-10.27-8.82v-27.19c0-4.99,4.62-9.41,10.27-9.85l26.32-2.36c5.65-.43,10.27,3.54,10.27,8.83v28.83Z"/>
    <path class="cls-1" d="M141.92,185.48c0,4.56-4.62,8.12-10.27,7.9l-20.54-1.15c-5.65-.21-10.27-3.87-10.27-8.12v-23.24c0-4.26,4.63-7.82,10.27-7.91l20.54-.49c5.65-.09,10.27,3.57,10.27,8.13v24.89Z"/>
    <path class="cls-1" d="M194.01,187.12c0,4.92-4.63,8.78-10.27,8.57l-23.74-1.15c-5.65-.21-10.27-4.17-10.27-8.79v-25.21c0-4.63,4.62-8.48,10.27-8.57l23.74-.49c5.65-.09,10.27,3.87,10.27,8.79v26.87Z"/>
    <path class="cls-1" d="M249.73,188.76c0,5.29-4.63,9.44-10.27,9.24l-26.32-1.16c-5.65-.21-10.27-4.47-10.27-9.45v-27.19c0-4.98,4.62-9.14,10.27-9.23l26.32-.49c5.65-.09,10.27,4.16,10.27,9.45v28.83Z"/>
    <path class="cls-1" d="M141.92,232.48c0,4.56-4.62,7.85-10.27,7.29l-20.54-3.02c-5.65-.55-10.27-4.49-10.27-8.75v-23.24c0-4.27,4.63-7.54,10.27-7.29l20.54,1.37c5.65.25,10.27,4.19,10.27,8.76v24.88Z"/>
    <path class="cls-1" d="M194.01,237.85c0,4.93-4.63,8.5-10.27,7.95l-23.74-3.01c-5.65-.55-10.27-4.79-10.27-9.41v-25.21c0-4.63,4.62-8.2,10.27-7.95l23.74,1.37c5.65.26,10.27,4.49,10.27,9.41v26.86Z"/>
    <path class="cls-1" d="M249.73,243.23c0,5.29-4.63,9.16-10.27,8.61l-26.32-3.02c-5.65-.55-10.27-5.08-10.27-10.07v-27.19c0-4.98,4.62-8.85,10.27-8.6l26.32,1.38c5.65.25,10.27,4.79,10.27,10.07v28.83Z"/>
    <path class="cls-1" d="M356.4,75.01c-.16.54-.4.98-.7,1.32-.32.34-.74.58-1.3.76-.54.18-1.22.3-2.02.38-.8.08-1.78.12-2.95.12s-2.23-.04-3.07-.12c-.84-.08-1.52-.2-2.08-.38-.54-.18-.94-.42-1.22-.76-.28-.34-.5-.78-.64-1.32l-15.84-57.15h-.12l-14.63,57.15c-.1.54-.3.98-.58,1.32-.28.34-.66.58-1.16.76-.52.18-1.18.3-1.98.38-.8.08-1.82.12-3.05.12s-2.37-.04-3.23-.12c-.86-.08-1.56-.2-2.1-.38-.54-.18-.96-.42-1.26-.76-.3-.34-.5-.78-.62-1.32l-20-69.9c-.22-.9-.36-1.6-.38-2.1-.02-.52.14-.9.48-1.18.32-.26.86-.44,1.6-.52.74-.08,1.74-.12,2.99-.12s2.16.02,2.85.08c.7.06,1.24.18,1.62.34.36.14.62.36.76.64.14.26.24.62.32,1.06l17.02,63.4h.04l16.14-63.3c.12-.42.26-.78.44-1.08.18-.3.46-.52.84-.68.4-.14.96-.26,1.68-.34.72-.08,1.66-.12,2.83-.12,1.1,0,1.96.04,2.59.12.66.08,1.18.2,1.56.34.4.16.68.38.86.68.16.3.32.66.44,1.08l17.36,63.3h.12l16.64-63.36c.12-.38.24-.72.36-1.02.12-.3.36-.52.74-.68.36-.14.9-.26,1.58-.34.68-.08,1.58-.12,2.71-.12s2.1.04,2.77.14c.68.1,1.18.28,1.5.56.3.28.46.66.44,1.18-.02.5-.14,1.2-.32,2.1l-20.06,69.84Z"/>
    <path class="cls-1" d="M432.63,73.06c0,.72-.04,1.34-.12,1.86-.08.52-.22.96-.4,1.32-.2.36-.42.6-.68.76-.26.16-.54.24-.86.24h-36.34c-.9,0-1.76-.3-2.55-.9-.8-.62-1.2-1.68-1.2-3.19V5.65c0-1.52.4-2.57,1.2-3.19.8-.6,1.66-.9,2.55-.9h35.92c.32,0,.6.08.86.24.26.16.46.4.62.76.14.36.28.8.38,1.32.1.52.14,1.18.14,1.96,0,.72-.04,1.32-.14,1.86-.1.52-.24.96-.38,1.3-.16.32-.38.56-.62.72-.26.16-.54.24-.86.24h-29.61v23.71h25.42c.32,0,.6.08.86.26.24.18.46.42.64.74.18.32.3.74.38,1.28.08.56.12,1.2.12,1.94s-.04,1.32-.12,1.82c-.08.52-.2.92-.38,1.24-.18.32-.4.54-.64.68-.26.14-.54.2-.86.2h-25.42v27.06h30.03c.32,0,.6.08.86.24.26.16.48.4.68.72.18.34.32.78.4,1.3.08.52.12,1.18.12,1.96"/>
    <path class="cls-1" d="M488.49,55.99c0,3.53-.66,6.69-1.96,9.46-1.32,2.75-3.13,5.11-5.45,7.04-2.31,1.92-5.05,3.37-8.18,4.35-3.15.98-6.53,1.46-10.16,1.46-2.53,0-4.89-.22-7.04-.64-2.18-.44-4.11-.98-5.81-1.6-1.7-.62-3.11-1.28-4.27-1.94-1.14-.68-1.96-1.24-2.39-1.72-.46-.46-.78-1.06-1-1.78-.22-.72-.32-1.68-.32-2.87,0-.86.04-1.58.12-2.14.08-.56.2-1.02.34-1.36.16-.36.36-.6.6-.74.24-.14.5-.2.82-.2.54,0,1.32.34,2.32,1,.98.66,2.26,1.38,3.83,2.16,1.56.76,3.43,1.5,5.65,2.18,2.2.68,4.75,1.02,7.62,1.02,2.19,0,4.19-.3,6.01-.88,1.82-.58,3.37-1.4,4.67-2.47,1.32-1.06,2.31-2.37,3.01-3.93.7-1.56,1.06-3.33,1.06-5.31,0-2.14-.48-3.97-1.46-5.49-.98-1.52-2.26-2.85-3.85-4.01-1.62-1.14-3.43-2.19-5.47-3.15-2.06-.96-4.15-1.92-6.29-2.91-2.14-1-4.23-2.1-6.25-3.31-2.04-1.2-3.85-2.61-5.45-4.25-1.6-1.64-2.89-3.55-3.87-5.77-1-2.2-1.5-4.83-1.5-7.9s.58-5.99,1.72-8.46c1.16-2.45,2.75-4.53,4.79-6.21,2.06-1.68,4.49-2.95,7.3-3.83,2.83-.88,5.87-1.32,9.14-1.32,1.68,0,3.35.14,5.05.44,1.7.3,3.29.68,4.79,1.18,1.5.48,2.83,1.04,4.01,1.64,1.16.6,1.94,1.1,2.29,1.46.38.38.62.66.74.88.12.22.2.5.28.82.08.34.14.74.18,1.22.04.46.06,1.06.06,1.82,0,.7-.02,1.32-.08,1.88-.06.54-.16,1-.28,1.38-.1.36-.28.64-.48.82-.22.18-.46.26-.74.26-.44,0-1.1-.28-2.02-.82-.92-.56-2.04-1.16-3.37-1.86-1.32-.68-2.89-1.3-4.71-1.86-1.8-.58-3.83-.86-6.11-.86-2.1,0-3.93.28-5.49.84-1.56.58-2.85,1.32-3.87,2.25-1,.94-1.76,2.04-2.27,3.31-.5,1.3-.76,2.65-.76,4.09,0,2.1.48,3.91,1.46,5.43.98,1.52,2.27,2.85,3.89,4.03,1.64,1.18,3.47,2.24,5.55,3.21,2.06.98,4.17,1.96,6.33,2.95,2.14,1,4.25,2.08,6.31,3.27,2.08,1.18,3.91,2.59,5.55,4.21,1.62,1.62,2.91,3.51,3.91,5.73,1,2.2,1.5,4.79,1.5,7.8"/>
    <path class="cls-1" d="M544.94,73.06c0,.72-.04,1.34-.12,1.86-.08.52-.22.96-.4,1.32-.2.36-.42.6-.68.76-.26.16-.54.24-.86.24h-36.34c-.9,0-1.76-.3-2.55-.9-.8-.62-1.2-1.68-1.2-3.19V5.65c0-1.52.4-2.57,1.2-3.19.8-.6,1.66-.9,2.55-.9h35.92c.32,0,.6.08.86.24.26.16.46.4.62.76.14.36.28.8.38,1.32.1.52.14,1.18.14,1.96,0,.72-.04,1.32-.14,1.86-.1.52-.24.96-.38,1.3-.16.32-.38.56-.62.72-.26.16-.54.24-.86.24h-29.61v23.71h25.42c.32,0,.6.08.86.26.24.18.46.42.64.74.18.32.3.74.38,1.28.08.56.12,1.2.12,1.94s-.04,1.32-.12,1.82c-.08.52-.2.92-.38,1.24-.18.32-.4.54-.64.68-.26.14-.54.2-.86.2h-25.42v27.06h30.03c.32,0,.6.08.86.24.26.16.48.4.68.72.18.34.32.78.4,1.3.08.52.12,1.18.12,1.96"/>
    <path class="cls-1" d="M596.59,22.51c0-2.95-.66-5.47-2-7.52-1.32-2.04-3.53-3.51-6.67-4.41-.98-.28-2.08-.46-3.29-.58-1.24-.12-2.83-.18-4.83-.18h-8.48v25.5h9.82c2.65,0,4.95-.32,6.88-.96,1.92-.66,3.53-1.56,4.81-2.69,1.3-1.16,2.24-2.51,2.85-4.07.6-1.56.9-3.25.9-5.09M611.73,75.71c0,.32-.06.58-.18.82-.12.24-.36.44-.76.6-.38.14-.94.26-1.64.34-.7.08-1.64.12-2.79.12-1.02,0-1.86-.04-2.49-.12-.64-.08-1.16-.2-1.56-.38-.38-.18-.68-.42-.9-.74-.22-.3-.4-.7-.56-1.16l-6.94-17.86c-.82-2.04-1.68-3.89-2.55-5.59-.88-1.7-1.92-3.15-3.13-4.39-1.2-1.24-2.63-2.18-4.27-2.87-1.64-.68-3.61-1.02-5.91-1.02h-6.73v32.25c0,.32-.08.58-.26.82s-.46.42-.82.56c-.38.14-.88.26-1.52.36-.66.1-1.46.14-2.43.14s-1.78-.04-2.43-.14c-.64-.1-1.16-.22-1.54-.36-.4-.14-.66-.32-.82-.56-.16-.22-.24-.5-.24-.82V5.65c0-1.52.4-2.57,1.2-3.19.8-.6,1.66-.9,2.55-.9h16.08c1.92,0,3.49.04,4.77.14,1.26.1,2.39.22,3.41.32,2.93.52,5.51,1.32,7.76,2.39,2.23,1.1,4.11,2.47,5.63,4.15,1.54,1.68,2.67,3.59,3.43,5.77.76,2.16,1.14,4.55,1.14,7.16s-.34,4.79-1.02,6.8c-.7,2-1.68,3.77-2.95,5.31-1.3,1.54-2.83,2.87-4.63,4.01-1.8,1.12-3.79,2.08-6.03,2.85,1.26.56,2.37,1.24,3.39,2.08,1.02.84,1.96,1.86,2.83,3.01.88,1.18,1.72,2.53,2.49,4.05.78,1.52,1.56,3.23,2.33,5.15l6.78,16.68c.54,1.4.9,2.39,1.04,2.95.16.56.24,1,.24,1.32Z"/>
    <path class="cls-1" d="M319.88,132.68c0-3.09-.58-5.67-1.72-7.74-1.16-2.06-2.57-3.61-4.29-4.63-1.7-1-3.45-1.66-5.25-1.92-1.82-.28-3.59-.42-5.31-.42h-9.3v30.41h9.08c3.03,0,5.57-.4,7.56-1.18,2.02-.78,3.69-1.86,5.07-3.25,1.36-1.38,2.39-3.03,3.09-4.97.7-1.94,1.06-4.03,1.06-6.31M330.42,131.88c0,3.79-.62,7.2-1.88,10.26-1.24,3.03-3.01,5.63-5.35,7.78-2.32,2.14-5.15,3.79-8.52,4.97-3.37,1.18-7.38,1.76-12.07,1.76h-8.58v27.22c0,.32-.08.6-.26.82-.18.24-.46.42-.82.56-.38.14-.88.26-1.52.36-.66.1-1.46.14-2.43.14s-1.78-.04-2.43-.14c-.64-.1-1.16-.22-1.54-.36-.4-.14-.66-.32-.82-.56-.16-.22-.24-.5-.24-.82v-69.82c0-1.56.42-2.67,1.24-3.33.82-.66,1.72-1,2.73-1h16.18c1.64,0,3.21.06,4.71.2,1.5.14,3.27.44,5.31.88,2.06.46,4.13,1.3,6.27,2.51,2.12,1.24,3.91,2.75,5.41,4.55,1.48,1.8,2.61,3.87,3.41,6.23.8,2.35,1.2,4.97,1.2,7.8Z"/>
    <path class="cls-1" d="M503.15,183.17c-.16.54-.4.98-.7,1.32-.32.34-.74.58-1.3.76-.54.18-1.22.3-2.02.38-.8.08-1.78.12-2.95.12s-2.23-.04-3.07-.12c-.84-.08-1.52-.2-2.08-.38-.54-.18-.94-.42-1.22-.76-.28-.34-.5-.78-.64-1.32l-15.84-57.15h-.12l-14.63,57.15c-.1.54-.3.98-.58,1.32-.28.34-.66.58-1.16.76-.52.18-1.18.3-1.98.38-.8.08-1.82.12-3.05.12s-2.37-.04-3.23-.12c-.86-.08-1.56-.2-2.1-.38-.54-.18-.96-.42-1.26-.76-.3-.34-.5-.78-.62-1.32l-20-69.9c-.22-.9-.36-1.6-.38-2.1-.02-.52.14-.9.48-1.18.32-.26.86-.44,1.6-.52.74-.08,1.74-.12,2.99-.12s2.16.02,2.85.08c.7.06,1.24.18,1.62.34.36.14.62.36.76.64.14.26.24.62.32,1.06l17.02,63.4h.04l16.14-63.3c.12-.42.26-.78.44-1.08.18-.3.46-.52.84-.68.4-.14.96-.26,1.68-.34.72-.08,1.66-.12,2.83-.12,1.1,0,1.96.04,2.59.12.66.08,1.18.2,1.56.34.4.16.68.38.86.68.16.3.32.66.44,1.08l17.36,63.3h.12l16.64-63.36c.12-.38.24-.72.36-1.02.12-.3.36-.52.74-.68.36-.14.9-.26,1.58-.34.68-.08,1.58-.12,2.71-.12s2.1.04,2.77.14c.68.1,1.18.28,1.5.56.3.28.46.66.44,1.18-.02.5-.14,1.2-.32,2.1l-20.06,69.84Z"/>
    <path class="cls-1" d="M582.83,181.21c0,.72-.04,1.34-.12,1.86-.08.52-.22.96-.4,1.32-.2.36-.42.6-.68.76-.26.16-.54.24-.86.24h-36.34c-.9,0-1.76-.3-2.55-.9-.8-.62-1.2-1.68-1.2-3.19v-67.49c0-1.52.4-2.57,1.2-3.19.8-.6,1.66-.9,2.55-.9h35.92c.32,0,.6.08.86.24.26.16.46.4.62.76.14.36.28.8.38,1.32.1.52.14,1.18.14,1.96,0,.72-.04,1.32-.14,1.86-.1.52-.24.96-.38,1.3-.16.32-.38.56-.62.72-.26.16-.54.24-.86.24h-29.61v23.71h25.42c.32,0,.6.08.86.26.24.18.46.42.64.74.18.32.3.74.38,1.28.08.56.12,1.2.12,1.94s-.04,1.32-.12,1.82c-.08.52-.2.92-.38,1.24-.18.32-.4.54-.64.68-.26.14-.54.2-.86.2h-25.42v27.06h30.03c.32,0,.6.08.86.24.26.16.48.4.68.72.18.34.32.78.4,1.3.08.52.12,1.18.12,1.96"/>
    <path class="cls-1" d="M637.92,130.66c0-2.95-.66-5.47-2-7.52-1.32-2.04-3.53-3.51-6.67-4.41-.98-.28-2.08-.46-3.29-.58-1.24-.12-2.83-.18-4.83-.18h-8.48v25.5h9.82c2.65,0,4.95-.32,6.88-.96,1.92-.66,3.53-1.56,4.81-2.69,1.3-1.16,2.24-2.51,2.85-4.07.6-1.56.9-3.25.9-5.09M653.07,183.87c0,.32-.06.58-.18.82-.12.24-.36.44-.76.6-.38.14-.94.26-1.64.34-.7.08-1.64.12-2.79.12-1.02,0-1.86-.04-2.49-.12-.64-.08-1.16-.2-1.56-.38-.38-.18-.68-.42-.9-.74-.22-.3-.4-.7-.56-1.16l-6.94-17.86c-.82-2.04-1.68-3.89-2.55-5.59-.88-1.7-1.92-3.15-3.13-4.39-1.2-1.24-2.63-2.18-4.27-2.87-1.64-.68-3.61-1.02-5.91-1.02h-6.73v32.25c0,.32-.08.58-.26.82-.18.24-.46.42-.82.56-.38.14-.88.26-1.52.36-.66.1-1.46.14-2.43.14s-1.78-.04-2.43-.14c-.64-.1-1.16-.22-1.54-.36-.4-.14-.66-.32-.82-.56-.16-.22-.24-.5-.24-.82v-70.06c0-1.52.4-2.57,1.2-3.19.8-.6,1.66-.9,2.55-.9h16.08c1.92,0,3.49.04,4.77.14,1.26.1,2.39.22,3.41.32,2.93.52,5.51,1.32,7.76,2.39,2.23,1.1,4.11,2.47,5.63,4.15,1.54,1.68,2.67,3.59,3.43,5.77.76,2.16,1.14,4.55,1.14,7.16s-.34,4.79-1.02,6.8c-.7,2-1.68,3.77-2.95,5.31-1.3,1.54-2.83,2.87-4.63,4.01-1.8,1.12-3.79,2.08-6.03,2.85,1.26.56,2.37,1.24,3.39,2.08,1.02.84,1.96,1.86,2.83,3.01.88,1.18,1.72,2.53,2.49,4.05.78,1.52,1.56,3.23,2.33,5.15l6.78,16.68c.54,1.4.9,2.39,1.04,2.95.16.56.24,1,.24,1.32Z"/>
    <path class="cls-1" d="M307.31,218.69c0,.37-.02.7-.06.98-.04.28-.1.52-.17.71-.08.18-.18.31-.3.39-.11.08-.24.12-.38.12-.23,0-.62-.19-1.17-.56s-1.28-.79-2.2-1.24c-.92-.45-2.02-.87-3.29-1.24-1.28-.37-2.79-.56-4.54-.56-2.1,0-3.96.38-5.62,1.14-1.66.77-3.06,1.82-4.21,3.16-1.16,1.35-2.04,2.94-2.65,4.8-.61,1.86-.92,3.86-.92,6.03,0,2.42.34,4.57,1.01,6.45.68,1.87,1.61,3.45,2.8,4.74,1.19,1.29,2.6,2.27,4.26,2.92,1.65.67,3.46,1,5.43,1,1.18,0,2.36-.14,3.56-.43,1.2-.28,2.31-.71,3.35-1.27v-11.06h-8.76c-.34,0-.59-.17-.75-.5-.17-.33-.25-.85-.25-1.56,0-.37.02-.69.06-.95.04-.26.1-.48.19-.65.09-.16.19-.28.31-.36.11-.08.26-.12.44-.12h12c.22,0,.43.04.65.12.21.08.41.19.58.35.18.16.32.37.41.64.1.28.15.59.15.94v14.44c0,.51-.09.95-.26,1.32-.18.37-.55.7-1.12.98-.56.28-1.3.59-2.2.92-.9.34-1.82.62-2.77.86-.96.23-1.93.41-2.89.52-.98.12-1.95.18-2.89.18-2.93,0-5.55-.45-7.84-1.36-2.3-.91-4.25-2.21-5.84-3.88-1.59-1.68-2.8-3.68-3.64-6.03-.84-2.34-1.26-4.95-1.26-7.84s.45-5.73,1.36-8.16c.91-2.43,2.18-4.51,3.83-6.24,1.65-1.72,3.62-3.04,5.93-3.99,2.31-.95,4.87-1.42,7.67-1.42,1.45,0,2.79.13,4.06.38,1.27.26,2.39.56,3.38.9.98.35,1.81.72,2.48,1.13.67.4,1.13.73,1.39.99.25.25.43.55.52.88.1.33.15.81.15,1.44"/>
    <path class="cls-1" d="M355.19,250.63c0,.16-.04.29-.12.4-.08.1-.2.2-.38.28-.17.07-.42.13-.73.17-.31.04-.7.06-1.17.06s-.89-.02-1.2-.06c-.31-.04-.56-.1-.75-.17-.18-.08-.31-.18-.39-.28-.08-.11-.12-.24-.12-.4v-15.99c0-1.12-.1-2.14-.29-3.04-.2-.92-.51-1.71-.94-2.37-.43-.66-.97-1.17-1.63-1.52-.66-.35-1.44-.53-2.33-.53-1.11,0-2.23.43-3.33,1.29-1.12.86-2.35,2.12-3.69,3.77v18.4c0,.16-.04.29-.12.4-.08.1-.21.2-.4.28-.18.07-.43.13-.75.17-.31.04-.7.06-1.17.06s-.84-.02-1.17-.06c-.32-.04-.58-.1-.76-.17-.19-.08-.32-.18-.39-.28-.07-.11-.1-.24-.1-.4v-15.99c0-1.12-.11-2.14-.32-3.04-.22-.92-.54-1.71-.97-2.37-.43-.66-.97-1.17-1.62-1.52-.66-.35-1.43-.53-2.32-.53-1.11,0-2.24.43-3.36,1.29-1.13.86-2.35,2.12-3.68,3.77v18.4c0,.16-.04.29-.12.4-.08.1-.2.2-.38.28-.18.07-.42.13-.74.17-.31.04-.71.06-1.2.06s-.87-.02-1.18-.06c-.32-.04-.57-.1-.75-.17-.19-.08-.32-.18-.39-.28-.07-.11-.1-.24-.1-.4v-26.32c0-.16.03-.29.09-.4.06-.1.17-.2.35-.29.18-.09.4-.15.68-.18.27-.03.64-.04,1.09-.04s.79.01,1.07.04c.29.03.51.09.67.18.15.09.27.19.34.29.06.11.1.24.1.4v3.48c1.48-1.67,2.92-2.88,4.32-3.65,1.39-.77,2.8-1.16,4.22-1.16,1.1,0,2.08.13,2.94.38.87.26,1.64.61,2.29,1.07.67.46,1.24,1.01,1.7,1.65.47.63.86,1.34,1.18,2.13.88-.96,1.71-1.77,2.49-2.43.79-.67,1.55-1.2,2.27-1.62.73-.41,1.44-.71,2.13-.89.7-.19,1.39-.28,2.09-.28,1.7,0,3.11.3,4.26.89,1.15.6,2.08,1.4,2.79,2.38.71,1,1.21,2.17,1.52,3.5.3,1.34.45,2.74.45,4.23v16.64Z"/>
    <path class="cls-1" d="M383.14,237.65c0-1.35-.1-2.65-.31-3.92-.2-1.28-.56-2.39-1.07-3.37-.51-.98-1.18-1.77-2.02-2.35-.84-.6-1.89-.9-3.13-.9-.62,0-1.24.09-1.85.26-.6.18-1.22.48-1.84.89-.63.41-1.28.94-1.95,1.59-.68.64-1.4,1.46-2.16,2.43v10.5c1.33,1.63,2.59,2.86,3.8,3.71,1.21.85,2.47,1.28,3.78,1.28,1.21,0,2.23-.29,3.09-.88.86-.59,1.56-1.37,2.1-2.33.54-.96.93-2.05,1.17-3.24.25-1.21.37-2.42.37-3.65M388.17,237.1c0,2.28-.25,4.33-.75,6.16-.49,1.83-1.22,3.38-2.19,4.66-.96,1.29-2.14,2.28-3.54,2.95-1.4.69-3,1.03-4.81,1.03-.84,0-1.62-.08-2.32-.25-.71-.16-1.41-.43-2.09-.8-.68-.38-1.36-.84-2.05-1.41-.68-.57-1.4-1.25-2.16-2.05v3.23c0,.15-.04.29-.12.41-.08.12-.2.21-.38.28-.18.07-.4.12-.66.16-.27.04-.61.06-1.02.06s-.73-.02-1-.06c-.28-.04-.5-.09-.68-.16-.17-.07-.29-.16-.35-.28-.06-.12-.09-.25-.09-.41v-39.04c0-.16.03-.3.1-.41.07-.12.2-.22.39-.3.18-.07.43-.13.75-.17.31-.04.7-.06,1.18-.06s.89.02,1.2.06c.32.04.56.1.74.17.18.08.3.18.38.3.08.11.12.25.12.41v15.72c.78-.8,1.53-1.48,2.26-2.03.73-.54,1.44-.99,2.14-1.33.71-.34,1.41-.59,2.11-.75.7-.15,1.44-.23,2.21-.23,1.91,0,3.53.38,4.89,1.14,1.35.76,2.44,1.79,3.29,3.05.85,1.28,1.47,2.77,1.86,4.49.39,1.72.58,3.53.58,5.44Z"/>
    <path class="cls-1" d="M423.21,250.6c0,.16-.04.3-.12.41-.08.12-.21.21-.41.28-.2.07-.46.13-.78.18-.33.05-.72.07-1.19.07-.52,0-.93-.02-1.24-.07-.32-.05-.57-.11-.77-.18-.2-.07-.33-.16-.41-.28-.08-.11-.12-.25-.12-.41v-16.78h-17.18v16.78c0,.16-.04.3-.12.41-.08.12-.21.21-.41.28-.19.07-.45.13-.77.18-.33.05-.73.07-1.22.07s-.87-.02-1.2-.07c-.33-.05-.6-.11-.79-.18-.2-.07-.33-.16-.41-.28-.08-.11-.12-.25-.12-.41v-36.32c0-.16.04-.3.12-.41.08-.12.21-.21.41-.28.19-.07.46-.13.79-.18.33-.05.73-.07,1.2-.07s.89.02,1.22.07c.32.05.58.11.77.18.2.07.33.16.41.28.08.12.12.25.12.41v15.17h17.18v-15.17c0-.16.04-.29.12-.41.08-.12.21-.21.41-.28.2-.07.45-.13.77-.18.31-.05.72-.07,1.24-.07.47,0,.86.02,1.19.07.32.05.58.11.78.18.2.07.33.16.41.28.08.11.12.25.12.41v36.32Z"/>
    <path class="cls-1" d="M450.16,240.91c0,1.02.17,1.95.51,2.78.34.84.85,1.57,1.51,2.19.66.61,1.49,1.09,2.48,1.44,1,.34,2.15.51,3.45.51.8,0,1.58-.08,2.33-.25.76-.17,1.49-.39,2.18-.68.7-.28,1.36-.63,1.98-1.03.63-.4,1.2-.83,1.73-1.28-1.02-.88-2.03-1.8-3.02-2.73-1.01-.95-1.98-1.9-2.91-2.85-.94-.96-1.84-1.91-2.7-2.85-.87-.95-1.66-1.87-2.38-2.76-.97.63-1.79,1.25-2.43,1.87-.66.61-1.18,1.23-1.58,1.84-.4.62-.69,1.24-.87,1.87-.17.62-.26,1.28-.26,1.96M453.55,220.53c0,.53.07,1.07.22,1.62.14.55.37,1.12.67,1.72.3.59.67,1.23,1.11,1.92.44.68.97,1.45,1.57,2.29,1.43-.8,2.61-1.54,3.58-2.22.97-.67,1.74-1.32,2.32-1.95.58-.63,1.01-1.25,1.27-1.88.27-.62.4-1.29.4-1.99,0-.57-.1-1.12-.31-1.63-.2-.52-.53-.98-.98-1.38-.45-.4-1.02-.72-1.7-.96-.68-.23-1.5-.35-2.45-.35-1.04,0-1.91.13-2.61.4-.72.26-1.3.61-1.76,1.05-.46.44-.8.96-1.01,1.54-.22.59-.32,1.2-.32,1.82ZM444.92,241.4c0-1.07.15-2.09.44-3.05.3-.97.76-1.91,1.38-2.8.63-.91,1.44-1.79,2.44-2.63,1-.85,2.21-1.71,3.63-2.55-.78-1.06-1.45-2.02-2-2.87-.56-.86-1.02-1.66-1.38-2.39-.36-.74-.62-1.45-.78-2.12-.15-.68-.23-1.36-.23-2.04,0-1.21.2-2.36.62-3.46.41-1.1,1.06-2.08,1.97-2.92.91-.85,2.08-1.52,3.49-2.02,1.43-.5,3.15-.75,5.18-.75,1.72,0,3.2.19,4.46.56s2.29.9,3.12,1.58c.83.68,1.46,1.51,1.88,2.46.42.97.63,2.05.63,3.23s-.19,2.21-.56,3.16c-.37.95-.97,1.88-1.79,2.77-.82.9-1.87,1.79-3.14,2.67-1.28.89-2.81,1.82-4.63,2.79.66.8,1.39,1.64,2.17,2.49.78.87,1.59,1.75,2.43,2.62.85.88,1.72,1.74,2.6,2.58.89.85,1.76,1.67,2.61,2.44.39-.53.75-1.13,1.06-1.81.31-.67.58-1.38.82-2.13.23-.76.41-1.52.53-2.3.11-.78.17-1.57.17-2.36v-1.06c0-.19.04-.35.1-.48.07-.13.19-.23.34-.32.16-.09.39-.15.69-.19.3-.04.7-.06,1.19-.06.43,0,.79,0,1.09.03.31.02.56.06.75.13.2.07.34.18.43.32.08.15.13.35.13.6v.74c0,1.09-.09,2.17-.28,3.21-.19,1.06-.44,2.09-.76,3.08-.32,1.01-.72,1.97-1.2,2.88-.48.92-1.01,1.77-1.6,2.54.88.69,1.65,1.27,2.29,1.74.66.46,1.21.84,1.67,1.13.46.29.84.49,1.14.61.31.11.55.17.75.17s.38,0,.56-.03c.17-.02.31.01.42.09.11.08.19.23.25.47.06.23.09.6.09,1.09s0,.88-.03,1.17c-.02.29-.05.51-.1.66-.05.15-.14.27-.25.37-.12.1-.33.18-.65.26-.31.08-.72.12-1.23.12-.39,0-.82-.07-1.29-.2-.46-.14-1.01-.38-1.64-.72-.62-.34-1.35-.8-2.17-1.38-.83-.58-1.8-1.32-2.9-2.21-.82.66-1.69,1.28-2.59,1.85-.91.56-1.87,1.05-2.89,1.45-1.02.4-2.1.71-3.21.93-1.12.23-2.33.34-3.64.34-1.23,0-2.39-.11-3.49-.32-1.1-.22-2.12-.53-3.05-.93-.94-.4-1.78-.9-2.51-1.5-.74-.61-1.37-1.3-1.89-2.07-.52-.77-.92-1.64-1.2-2.58-.28-.96-.43-2-.43-3.1Z"/>
    <path class="cls-1" d="M526.43,246.03c0,.31,0,.58-.03.82-.02.23-.05.43-.1.61-.05.17-.11.33-.19.47-.08.13-.22.3-.41.49-.2.2-.61.5-1.23.9-.63.4-1.41.79-2.33,1.17-.93.38-1.99.7-3.18.96-1.21.27-2.51.4-3.94.4-2.45,0-4.68-.41-6.66-1.23-1.98-.82-3.67-2.03-5.06-3.63-1.4-1.6-2.47-3.57-3.22-5.92-.75-2.35-1.13-5.06-1.13-8.12s.41-5.94,1.22-8.4c.81-2.45,1.95-4.54,3.41-6.25,1.47-1.71,3.21-3,5.26-3.9,2.04-.9,4.3-1.35,6.77-1.35,1.1,0,2.17.1,3.19.3,1.04.21,2,.46,2.87.77.88.31,1.66.67,2.34,1.08.68.4,1.16.74,1.42,1,.27.26.44.46.52.6.08.13.14.29.19.48.05.19.09.41.12.66.03.26.04.56.04.91,0,.4-.02.73-.06,1-.04.28-.1.51-.18.7-.07.18-.17.32-.28.41-.1.09-.24.13-.39.13-.28,0-.66-.19-1.16-.57-.49-.38-1.12-.8-1.9-1.26-.78-.46-1.72-.88-2.82-1.26-1.12-.38-2.44-.57-3.99-.57-1.7,0-3.23.34-4.61,1.01-1.39.68-2.57,1.67-3.55,2.97-.98,1.31-1.75,2.9-2.28,4.79-.54,1.89-.81,4.04-.81,6.46s.26,4.53.78,6.38c.52,1.85,1.27,3.39,2.23,4.63.97,1.24,2.17,2.18,3.57,2.81,1.42.63,3.01.95,4.8.95,1.51,0,2.83-.19,3.96-.56,1.13-.37,2.09-.78,2.87-1.24.8-.46,1.45-.87,1.96-1.24.52-.37.92-.56,1.21-.56.14,0,.26.03.36.09.1.06.17.17.23.33.06.17.11.4.14.69.03.29.04.66.04,1.11"/>
    <path class="cls-1" d="M551.94,237.46c0-1.43-.13-2.77-.4-4.04-.26-1.27-.7-2.37-1.31-3.33-.6-.96-1.43-1.72-2.46-2.26-1.03-.56-2.32-.84-3.87-.84-1.43,0-2.65.25-3.68.76-1.03.51-1.87,1.23-2.53,2.16-.67.93-1.16,2.03-1.48,3.29-.33,1.27-.49,2.65-.49,4.15s.13,2.8.4,4.07c.26,1.27.7,2.37,1.32,3.32.62.94,1.45,1.7,2.47,2.24,1.04.56,2.33.84,3.88.84,1.41,0,2.62-.25,3.66-.76,1.04-.51,1.89-1.22,2.55-2.14.67-.92,1.16-2.02,1.47-3.28.31-1.27.47-2.66.47-4.18M556.97,237.16c0,2.15-.28,4.12-.85,5.93-.56,1.8-1.41,3.35-2.52,4.66-1.12,1.31-2.52,2.32-4.2,3.05-1.69.73-3.64,1.1-5.86,1.1s-4.05-.32-5.66-.97c-1.61-.64-2.94-1.58-4.01-2.8-1.07-1.23-1.87-2.72-2.39-4.47-.53-1.76-.79-3.74-.79-5.97s.28-4.12.83-5.92c.56-1.81,1.4-3.36,2.51-4.67,1.12-1.31,2.51-2.31,4.19-3.04,1.68-.72,3.63-1.08,5.87-1.08s4.05.32,5.66.97c1.61.64,2.94,1.58,4.01,2.8,1.07,1.23,1.88,2.71,2.41,4.47.53,1.76.8,3.73.8,5.94Z"/>
    <path class="cls-1" d="M570.34,248.14c0,1.39-.23,2.3-.69,2.76-.46.46-1.29.69-2.49.69s-1.99-.23-2.43-.68c-.45-.45-.67-1.35-.67-2.69s.23-2.3.69-2.76c.46-.46,1.29-.69,2.49-.69s1.99.22,2.43.67c.44.45.67,1.36.67,2.7"/>
    <path class="cls-1" d="M617.98,250.54c0,.16-.04.3-.11.43-.06.13-.2.23-.39.31-.2.07-.46.14-.79.19-.33.05-.76.07-1.29.07-.68,0-1.24-.03-1.67-.09-.43-.06-.75-.16-.97-.32-.21-.16-.39-.33-.52-.53l-13.92-18.92v18.92c0,.14-.04.27-.12.4-.08.12-.21.22-.41.29-.19.07-.45.13-.77.18-.33.05-.73.07-1.22.07s-.87-.02-1.2-.07c-.33-.05-.6-.11-.79-.18-.2-.07-.33-.17-.41-.29-.08-.13-.12-.26-.12-.4v-36.32c0-.16.04-.3.12-.41.08-.12.21-.21.41-.28.19-.07.46-.13.79-.18.33-.05.73-.07,1.2-.07s.89.02,1.22.07c.32.05.58.11.77.18.2.07.33.16.41.28.08.11.12.25.12.41v16.81l13.39-16.81c.12-.18.25-.32.41-.44.15-.12.34-.21.57-.28.22-.07.5-.12.82-.16.32-.04.74-.06,1.25-.06s.91.02,1.23.07c.31.05.56.12.74.19.19.08.32.18.38.3.07.11.11.24.11.38,0,.25-.07.51-.19.76-.13.25-.37.61-.72,1.06l-12.54,15,13.5,17.96c.34.51.54.85.6,1.04.07.18.11.34.11.45"/>
    <path class="cls-1" d="M650.44,218.69c0,.37-.02.7-.06.98-.04.28-.1.52-.17.71-.08.18-.18.31-.3.39-.11.08-.24.12-.38.12-.23,0-.62-.19-1.17-.56-.55-.37-1.28-.79-2.2-1.24-.92-.45-2.02-.87-3.29-1.24-1.28-.37-2.79-.56-4.54-.56-2.1,0-3.96.38-5.62,1.14-1.66.77-3.06,1.82-4.21,3.16-1.16,1.35-2.04,2.94-2.65,4.8-.61,1.86-.92,3.86-.92,6.03,0,2.42.34,4.57,1.01,6.45.68,1.87,1.61,3.45,2.8,4.74,1.19,1.29,2.6,2.27,4.26,2.92,1.65.67,3.46,1,5.43,1,1.18,0,2.36-.14,3.56-.43,1.2-.28,2.31-.71,3.35-1.27v-11.06h-8.76c-.34,0-.59-.17-.75-.5-.17-.33-.25-.85-.25-1.56,0-.37.02-.69.06-.95.04-.26.1-.48.19-.65.09-.16.19-.28.31-.36.11-.08.26-.12.44-.12h12c.22,0,.43.04.65.12.21.08.41.19.58.35.18.16.32.37.41.64.1.28.15.59.15.94v14.44c0,.51-.09.95-.26,1.32-.18.37-.55.7-1.12.98-.56.28-1.3.59-2.2.92-.9.34-1.82.62-2.77.86-.96.23-1.93.41-2.89.52-.98.12-1.95.18-2.89.18-2.93,0-5.55-.45-7.84-1.36-2.3-.91-4.25-2.21-5.84-3.88-1.59-1.68-2.8-3.68-3.64-6.03-.84-2.34-1.26-4.95-1.26-7.84s.45-5.73,1.36-8.16c.91-2.43,2.18-4.51,3.83-6.24,1.65-1.72,3.62-3.04,5.93-3.99,2.31-.95,4.87-1.42,7.67-1.42,1.45,0,2.79.13,4.06.38,1.27.26,2.39.56,3.38.9.98.35,1.81.72,2.48,1.13.67.4,1.13.73,1.39.99.25.25.43.55.52.88.1.33.15.81.15,1.44"/>
    <path class="cls-2" d="M390.17,123.97c8.92,4.39,14.46,13.29,14.46,23.22,0,14.25-11.6,25.85-25.85,25.85s-25.85-11.59-25.85-25.85c0-9.09,4.87-17.62,12.7-22.26l-6.85-11.55c-11.89,7.04-19.28,20-19.28,33.81,0,21.66,17.62,39.27,39.28,39.27s39.28-17.62,39.28-39.27c0-15.09-8.41-28.6-21.97-35.26l-5.93,12.04ZM371.77,145.16h13.43v-44.77h-13.43v44.77Z"/>
  </g>
</svg>