<?xml version="1.0" encoding="UTF-8"?>
<svg id="Ebene_2" data-name="Ebene 2" xmlns="http://www.w3.org/2000/svg" viewBox="0 0 249.73 251.89">
  <defs>
    <style>
      .cls-1 {
        fill: #1d1d1b;
      }

      .cls-2 {
        fill: #66b32e;
      }
    </style>
  </defs>
  <g id="Ebene_1-2" data-name="Ebene 1">
    <path class="cls-2" d="M95.72,48.51c.74,3.4-1.42,6.74-4.81,7.48-3.39.74-6.75-1.41-7.48-4.81l-9.46-43.55c-.74-3.4,1.42-6.75,4.81-7.49,3.4-.74,6.75,1.42,7.48,4.81l9.46,43.55Z"/>
    <path class="cls-2" d="M70.33,57.92c2.34,2.57,2.15,6.55-.43,8.89-2.57,2.33-6.55,2.15-8.89-.43l-29.97-32.98c-2.33-2.57-2.14-6.55.43-8.89,2.57-2.34,6.55-2.14,8.89.43l29.96,32.98Z"/>
    <path class="cls-2" d="M53.05,78.78c3.31,1.06,5.13,4.6,4.07,7.91-1.06,3.31-4.6,5.14-7.91,4.07l-42.44-13.58c-3.3-1.06-5.13-4.6-4.08-7.92,1.07-3.31,4.6-5.13,7.92-4.07l42.44,13.58Z"/>
    <path class="cls-2" d="M48.51,105.48c3.39-.74,6.74,1.42,7.48,4.81.74,3.39-1.41,6.75-4.81,7.48l-43.54,9.46c-3.39.73-6.75-1.42-7.49-4.81-.73-3.4,1.42-6.75,4.82-7.48l43.55-9.46Z"/>
    <path class="cls-2" d="M57.93,130.86c2.57-2.33,6.55-2.14,8.88.43,2.33,2.57,2.15,6.55-.43,8.88l-32.98,29.97c-2.57,2.33-6.56,2.15-8.89-.42-2.34-2.58-2.14-6.56.43-8.89l32.98-29.97Z"/>
    <path class="cls-2" d="M78.78,148.15c1.06-3.3,4.6-5.13,7.91-4.07,3.31,1.06,5.14,4.6,4.07,7.9l-13.57,42.44c-1.06,3.3-4.61,5.13-7.92,4.08-3.31-1.07-5.13-4.6-4.07-7.92l13.58-42.44Z"/>
    <path class="cls-2" d="M152.69,95.72c-3.39.74-6.74-1.42-7.47-4.81-.73-3.4,1.41-6.75,4.81-7.48l43.54-9.47c3.39-.73,6.75,1.43,7.49,4.82.73,3.4-1.43,6.74-4.82,7.48l-43.55,9.46Z"/>
    <path class="cls-2" d="M143.27,70.33c-2.56,2.33-6.55,2.14-8.88-.43-2.33-2.58-2.15-6.55.43-8.88l32.97-29.98c2.57-2.33,6.56-2.13,8.9.43,2.33,2.58,2.13,6.55-.44,8.9l-32.98,29.97Z"/>
    <path class="cls-2" d="M122.42,53.05c-1.05,3.3-4.6,5.12-7.91,4.07-3.31-1.07-5.14-4.6-4.07-7.9l13.57-42.45c1.06-3.3,4.61-5.13,7.92-4.08,3.31,1.07,5.12,4.61,4.07,7.92l-13.58,42.44Z"/>
    <path class="cls-2" d="M65.63,108.2c-4.2-19.32,8.06-38.38,27.38-42.57,19.32-4.2,38.38,8.06,42.57,27.38.78,3.59.99,7.17.69,10.64-1.57-.4-3.21-.53-4.83-.41-.04,0-.07,0-.11.01l-20.49,2.35c-3.17.25-6.33,1.43-8.79,3.47-2.37,1.97-4.04,4.74-4.04,7.88v19.34c-15.43-1.11-28.94-12.22-32.39-28.1"/>
    <path class="cls-1" d="M141.92,138.46c0,4.56-4.62,8.4-10.27,8.53l-20.54.71c-5.65.13-10.27-3.25-10.27-7.51v-23.24c0-4.26,4.63-8.1,10.27-8.53l20.54-2.36c5.65-.43,10.27,2.95,10.27,7.51v24.89Z"/>
    <path class="cls-1" d="M194.01,136.38c0,4.92-4.63,9.06-10.27,9.19l-23.74.71c-5.65.13-10.27-3.55-10.27-8.17v-25.22c0-4.63,4.62-8.76,10.27-9.19l23.74-2.36c5.65-.43,10.27,3.25,10.27,8.17v26.86Z"/>
    <path class="cls-1" d="M249.73,134.3c0,5.28-4.63,9.71-10.27,9.85l-26.32.71c-5.65.13-10.27-3.84-10.27-8.82v-27.19c0-4.99,4.62-9.41,10.27-9.85l26.32-2.36c5.65-.43,10.27,3.54,10.27,8.83v28.83Z"/>
    <path class="cls-1" d="M141.92,185.48c0,4.56-4.62,8.12-10.27,7.9l-20.54-1.15c-5.65-.21-10.27-3.87-10.27-8.12v-23.24c0-4.26,4.63-7.82,10.27-7.91l20.54-.49c5.65-.09,10.27,3.57,10.27,8.13v24.89Z"/>
    <path class="cls-1" d="M194.01,187.12c0,4.92-4.63,8.78-10.27,8.57l-23.74-1.15c-5.65-.21-10.27-4.17-10.27-8.79v-25.21c0-4.63,4.62-8.48,10.27-8.57l23.74-.49c5.65-.09,10.27,3.87,10.27,8.79v26.87Z"/>
    <path class="cls-1" d="M249.73,188.76c0,5.29-4.63,9.44-10.27,9.24l-26.32-1.16c-5.65-.21-10.27-4.47-10.27-9.45v-27.19c0-4.98,4.62-9.14,10.27-9.23l26.32-.49c5.65-.09,10.27,4.16,10.27,9.45v28.83Z"/>
    <path class="cls-1" d="M141.92,232.48c0,4.56-4.62,7.85-10.27,7.29l-20.54-3.02c-5.65-.55-10.27-4.49-10.27-8.75v-23.24c0-4.27,4.63-7.54,10.27-7.29l20.54,1.37c5.65.25,10.27,4.19,10.27,8.76v24.88Z"/>
    <path class="cls-1" d="M194.01,237.85c0,4.93-4.63,8.5-10.27,7.95l-23.74-3.01c-5.65-.55-10.27-4.79-10.27-9.41v-25.21c0-4.63,4.62-8.2,10.27-7.95l23.74,1.37c5.65.26,10.27,4.49,10.27,9.41v26.86Z"/>
    <path class="cls-1" d="M249.73,243.23c0,5.29-4.63,9.16-10.27,8.61l-26.32-3.02c-5.65-.55-10.27-5.08-10.27-10.07v-27.19c0-4.98,4.62-8.85,10.27-8.6l26.32,1.38c5.65.25,10.27,4.79,10.27,10.07v28.83Z"/>
  </g>
</svg>